<svg width="199" height="32" viewBox="0 0 199 32" fill="none" xmlns="http://www.w3.org/2000/svg">
<path d="M41.626 24.4206V8.21768H43.739V16.2533L51.6614 8.21768H54.5214L47.8282 14.7822L54.8146 24.4206H52.0294L46.3499 16.2193L43.739 18.8071V24.4206H41.626ZM63.8699 22.9721C63.1419 23.5983 62.4434 24.0398 61.7751 24.2998C61.103 24.5565 60.3822 24.6846 59.6136 24.6846C58.3431 24.6846 57.3699 24.3717 56.6865 23.7415C56.0068 23.1116 55.6651 22.3043 55.6651 21.3272C55.6651 20.7499 55.7913 20.2256 56.0512 19.7502C56.3076 19.2752 56.6459 18.8939 57.0618 18.6072C57.4813 18.3207 57.9493 18.1015 58.4732 17.9548C58.8558 17.8529 59.4353 17.751 60.2114 17.6564C61.7935 17.464 62.9596 17.2381 63.7064 16.97C63.7139 16.6984 63.7176 16.5249 63.7176 16.4533C63.7176 15.642 63.5316 15.0688 63.1602 14.7405C62.6627 14.2876 61.9161 14.0655 60.9318 14.0655C60.0108 14.0655 59.331 14.2274 58.8891 14.5557C58.4509 14.8841 58.1278 15.4649 57.9161 16.2985L56.0031 16.0304C56.1778 15.2005 56.4636 14.5254 56.8612 14.016C57.2586 13.5031 57.8381 13.1069 58.5918 12.8315C59.3461 12.5562 60.2189 12.4167 61.214 12.4167C62.2022 12.4167 63.0006 12.5373 63.6173 12.7713C64.2337 13.0091 64.6872 13.3034 64.9804 13.6615C65.2701 14.0201 65.4708 14.4689 65.5894 15.0159C65.6527 15.3554 65.686 15.9666 65.686 16.8492V19.5015C65.686 21.3534 65.7267 22.523 65.8123 23.0097C65.8938 23.5001 66.0611 23.9718 66.3062 24.4206H64.2596C64.0593 24.0095 63.9257 23.5263 63.8699 22.9721ZM63.7064 18.528C62.9931 18.826 61.9273 19.075 60.5083 19.2825C59.7024 19.3996 59.1304 19.5314 58.8 19.6786C58.4657 19.8257 58.2058 20.0408 58.0275 20.3275C57.8456 20.6105 57.7524 20.9237 57.7524 21.2707C57.7524 21.8025 57.953 22.2441 58.3466 22.5986C58.7406 22.9495 59.3198 23.1266 60.0812 23.1266C60.8354 23.1266 61.5077 22.9608 62.0943 22.6249C62.681 22.2893 63.1157 21.829 63.3907 21.248C63.6025 20.7992 63.7064 20.135 63.7064 19.2598V18.528ZM68.7018 24.4206V12.6845H70.4627V14.4611C70.9121 13.6312 71.3279 13.0807 71.7105 12.8167C72.0894 12.5526 72.5089 12.4167 72.9658 12.4167C73.627 12.4167 74.2956 12.6319 74.9789 13.058L74.3031 14.9068C73.8276 14.616 73.3484 14.4725 72.8692 14.4725C72.4384 14.4725 72.0559 14.6047 71.714 14.8651C71.3726 15.1289 71.131 15.4912 70.986 15.9553C70.7671 16.6609 70.6593 17.4341 70.6593 18.2753V24.4206H68.7018ZM76.1453 24.4206V12.6845H77.906V14.3519C78.7565 13.0616 79.982 12.4167 81.5829 12.4167C82.281 12.4167 82.9198 12.5449 83.503 12.7975C84.09 13.0542 84.5246 13.3862 84.814 13.8009C85.1077 14.2125 85.3084 14.703 85.427 15.2685C85.4975 15.6383 85.5348 16.2836 85.5348 17.2041V24.4206H83.5738V17.2792C83.5738 16.472 83.4994 15.8648 83.3469 15.4609C83.1949 15.0611 82.9238 14.7405 82.5373 14.5028C82.1472 14.2614 81.6944 14.1406 81.1705 14.1406C80.3347 14.1406 79.6179 14.4122 79.0089 14.9478C78.4034 15.4876 78.1027 16.506 78.1027 18.011V24.4206H76.1453ZM96.0795 22.9721C95.3515 23.5983 94.653 24.0398 93.9848 24.2998C93.3124 24.5565 92.5916 24.6846 91.823 24.6846C90.5525 24.6846 89.5795 24.3717 88.896 23.7415C88.2162 23.1116 87.8748 22.3043 87.8748 21.3272C87.8748 20.7499 88.0009 20.2256 88.2608 19.7502C88.5171 19.2752 88.8555 18.8939 89.2714 18.6072C89.691 18.3207 90.159 18.1015 90.6829 17.9548C91.0652 17.8529 91.6447 17.751 92.4208 17.6564C94.003 17.464 95.1692 17.2381 95.9158 16.97C95.9235 16.6984 95.927 16.5249 95.927 16.4533C95.927 15.642 95.7413 15.0688 95.3699 14.7405C94.8724 14.2876 94.1255 14.0655 93.1413 14.0655C92.2202 14.0655 91.5404 14.2274 91.0987 14.5557C90.6605 14.8841 90.3373 15.4649 90.1255 16.2985L88.2127 16.0304C88.3874 15.2005 88.6733 14.5254 89.0708 14.016C89.468 13.5031 90.0475 13.1069 90.8013 12.8315C91.5556 12.5562 92.4285 12.4167 93.4236 12.4167C94.4118 12.4167 95.2102 12.5373 95.8267 12.7713C96.4432 13.0091 96.8966 13.3034 97.19 13.6615C97.4798 14.0201 97.6804 14.4689 97.799 15.0159C97.8622 15.3554 97.8957 15.9666 97.8957 16.8492V19.5015C97.8957 21.3534 97.9363 22.523 98.0218 23.0097C98.1034 23.5001 98.2705 23.9718 98.5158 24.4206H96.4692C96.269 24.0095 96.1352 23.5263 96.0795 22.9721ZM95.9158 18.528C95.2027 18.826 94.1367 19.075 92.7178 19.2825C91.9118 19.3996 91.3398 19.5314 91.0096 19.6786C90.6752 19.8257 90.4152 20.0408 90.2369 20.3275C90.055 20.6105 89.962 20.9237 89.962 21.2707C89.962 21.8025 90.1625 22.2441 90.5562 22.5986C90.9503 22.9495 91.5294 23.1266 92.2907 23.1266C93.045 23.1266 93.7173 22.9608 94.304 22.6249C94.8906 22.2893 95.3252 21.829 95.6003 21.248C95.8121 20.7992 95.9158 20.135 95.9158 19.2598V18.528ZM105.209 22.6399L105.491 24.3979C104.941 24.5149 104.447 24.5754 104.013 24.5754C103.3 24.5754 102.75 24.4622 102.356 24.2319C101.967 24.0058 101.692 23.7039 101.532 23.3304C101.372 22.9608 101.29 22.1762 101.29 20.9839V14.2311H99.8531V12.6845H101.29V9.77566L103.24 8.58391V12.6845H105.209V14.2311H103.24V21.0931C103.24 21.6631 103.274 22.0249 103.34 22.1874C103.411 22.3495 103.523 22.4778 103.678 22.5759C103.834 22.6702 104.057 22.7191 104.347 22.7191C104.566 22.7191 104.852 22.6927 105.209 22.6399ZM114.665 22.9721C113.937 23.5983 113.239 24.0398 112.571 24.2998C111.898 24.5565 111.177 24.6846 110.409 24.6846C109.138 24.6846 108.165 24.3717 107.482 23.7415C106.802 23.1116 106.461 22.3043 106.461 21.3272C106.461 20.7499 106.587 20.2256 106.847 19.7502C107.103 19.2752 107.441 18.8939 107.857 18.6072C108.277 18.3207 108.745 18.1015 109.269 17.9548C109.651 17.8529 110.231 17.751 111.007 17.6564C112.589 17.464 113.755 17.2381 114.502 16.97C114.509 16.6984 114.513 16.5249 114.513 16.4533C114.513 15.642 114.327 15.0688 113.956 14.7405C113.458 14.2876 112.711 14.0655 111.727 14.0655C110.806 14.0655 110.126 14.2274 109.684 14.5557C109.246 14.8841 108.923 15.4649 108.711 16.2985L106.798 16.0304C106.973 15.2005 107.259 14.5254 107.657 14.016C108.054 13.5031 108.633 13.1069 109.387 12.8315C110.141 12.5562 111.014 12.4167 112.009 12.4167C112.998 12.4167 113.796 12.5373 114.413 12.7713C115.029 13.0091 115.482 13.3034 115.776 13.6615C116.066 14.0201 116.266 14.4689 116.385 15.0159C116.448 15.3554 116.481 15.9666 116.481 16.8492V19.5015C116.481 21.3534 116.522 22.523 116.608 23.0097C116.689 23.5001 116.856 23.9718 117.102 24.4206H115.055C114.855 24.0095 114.721 23.5263 114.665 22.9721ZM114.502 18.528C113.788 18.826 112.723 19.075 111.304 19.2825C110.498 19.3996 109.926 19.5314 109.595 19.6786C109.261 19.8257 109.001 20.0408 108.823 20.3275C108.641 20.6105 108.548 20.9237 108.548 21.2707C108.548 21.8025 108.748 22.2441 109.142 22.5986C109.536 22.9495 110.115 23.1266 110.876 23.1266C111.631 23.1266 112.303 22.9608 112.89 22.6249C113.476 22.2893 113.911 21.829 114.186 21.248C114.398 20.7992 114.502 20.135 114.502 19.2598V18.528ZM119.527 24.4206V8.21768H121.488V17.4568L126.123 12.6845H128.656L124.24 17.0379L129.106 24.4206H126.688L122.87 18.4185L121.488 19.7692V24.4206H119.527ZM138.202 22.9721C137.474 23.5983 136.776 24.0398 136.107 24.2998C135.435 24.5565 134.714 24.6846 133.946 24.6846C132.675 24.6846 131.702 24.3717 131.019 23.7415C130.339 23.1116 129.997 22.3043 129.997 21.3272C129.997 20.7499 130.123 20.2256 130.383 19.7502C130.64 19.2752 130.978 18.8939 131.394 18.6072C131.813 18.3207 132.281 18.1015 132.805 17.9548C133.188 17.8529 133.767 17.751 134.544 17.6564C136.126 17.464 137.292 17.2381 138.039 16.97C138.046 16.6984 138.05 16.5249 138.05 16.4533C138.05 15.642 137.864 15.0688 137.492 14.7405C136.995 14.2876 136.248 14.0655 135.264 14.0655C134.343 14.0655 133.663 14.2274 133.221 14.5557C132.783 14.8841 132.46 15.4649 132.248 16.2985L130.335 16.0304C130.51 15.2005 130.796 14.5254 131.193 14.016C131.591 13.5031 132.17 13.1069 132.924 12.8315C133.678 12.5562 134.551 12.4167 135.546 12.4167C136.534 12.4167 137.333 12.5373 137.949 12.7713C138.566 13.0091 139.019 13.3034 139.312 13.6615C139.602 14.0201 139.803 14.4689 139.921 15.0159C139.985 15.3554 140.018 15.9666 140.018 16.8492V19.5015C140.018 21.3534 140.059 22.523 140.144 23.0097C140.226 23.5001 140.393 23.9718 140.638 24.4206H138.592C138.391 24.0095 138.258 23.5263 138.202 22.9721ZM138.039 18.528C137.325 18.826 136.259 19.075 134.84 19.2825C134.034 19.3996 133.462 19.5314 133.132 19.6786C132.798 19.8257 132.538 20.0408 132.36 20.3275C132.178 20.6105 132.085 20.9237 132.085 21.2707C132.085 21.8025 132.285 22.2441 132.679 22.5986C133.073 22.9495 133.652 23.1266 134.413 23.1266C135.167 23.1266 135.84 22.9608 136.426 22.6249C137.013 22.2893 137.448 21.829 137.723 21.248C137.935 20.7992 138.039 20.135 138.039 19.2598V18.528ZM149.408 24.4206V8.21768H155.395C156.613 8.21768 157.59 8.38389 158.325 8.70849C159.064 9.03627 159.64 9.54213 160.056 10.2248C160.472 10.904 160.684 11.6168 160.684 12.3638C160.684 13.0542 160.498 13.7068 160.127 14.3181C159.759 14.9293 159.198 15.4232 158.452 15.8005C159.417 16.0871 160.156 16.5774 160.677 17.2679C161.196 17.9621 161.457 18.7806 161.457 19.7238C161.457 20.4823 161.297 21.1877 160.981 21.8403C160.665 22.493 160.275 22.9948 159.811 23.3494C159.347 23.7039 158.764 23.9679 158.066 24.149C157.367 24.33 156.509 24.4206 155.491 24.4206H149.408ZM151.521 15.0272H154.971C155.904 15.0272 156.576 14.9633 156.985 14.8387C157.519 14.6762 157.924 14.4086 158.195 14.0314C158.467 13.6539 158.604 13.1826 158.604 12.6165C158.604 12.0808 158.478 11.6054 158.225 11.1982C157.969 10.7868 157.605 10.5078 157.137 10.357C156.665 10.2059 155.855 10.1308 154.708 10.1308H151.521V15.0272ZM151.521 22.5081H155.491C156.175 22.5081 156.654 22.4817 156.929 22.4324C157.416 22.3419 157.82 22.1948 158.147 21.9874C158.474 21.7836 158.741 21.482 158.953 21.0896C159.161 20.6933 159.269 20.2409 159.269 19.7238C159.269 19.1203 159.117 18.5961 158.812 18.1469C158.507 17.7018 158.084 17.3889 157.542 17.2078C157.003 17.0303 156.223 16.9397 155.209 16.9397H151.521V22.5081ZM171.652 22.9721C170.924 23.5983 170.225 24.0398 169.557 24.2998C168.885 24.5565 168.164 24.6846 167.395 24.6846C166.125 24.6846 165.152 24.3717 164.468 23.7415C163.789 23.1116 163.447 22.3043 163.447 21.3272C163.447 20.7499 163.573 20.2256 163.833 19.7502C164.09 19.2752 164.428 18.8939 164.844 18.6072C165.263 18.3207 165.731 18.1015 166.255 17.9548C166.638 17.8529 167.217 17.751 167.993 17.6564C169.575 17.464 170.741 17.2381 171.488 16.97C171.496 16.6984 171.499 16.5249 171.499 16.4533C171.499 15.642 171.313 15.0688 170.942 14.7405C170.445 14.2876 169.698 14.0655 168.714 14.0655C167.793 14.0655 167.113 14.2274 166.671 14.5557C166.233 14.8841 165.91 15.4649 165.698 16.2985L163.785 16.0304C163.96 15.2005 164.245 14.5254 164.643 14.016C165.04 13.5031 165.62 13.1069 166.374 12.8315C167.128 12.5562 168.001 12.4167 168.996 12.4167C169.984 12.4167 170.782 12.5373 171.399 12.7713C172.016 13.0091 172.469 13.3034 172.762 13.6615C173.052 14.0201 173.253 14.4689 173.371 15.0159C173.435 15.3554 173.468 15.9666 173.468 16.8492V19.5015C173.468 21.3534 173.509 22.523 173.594 23.0097C173.676 23.5001 173.843 23.9718 174.088 24.4206H172.041C171.841 24.0095 171.708 23.5263 171.652 22.9721ZM171.488 18.528C170.775 18.826 169.709 19.075 168.29 19.2825C167.484 19.3996 166.912 19.5314 166.582 19.6786C166.248 19.8257 165.988 20.0408 165.809 20.3275C165.627 20.6105 165.534 20.9237 165.534 21.2707C165.534 21.8025 165.735 22.2441 166.128 22.5986C166.523 22.9495 167.102 23.1266 167.863 23.1266C168.617 23.1266 169.29 22.9608 169.876 22.6249C170.463 22.2893 170.898 21.829 171.173 21.248C171.384 20.7992 171.488 20.135 171.488 19.2598V18.528ZM176.506 24.4206V12.6845H178.267V14.3519C179.117 13.0616 180.343 12.4167 181.944 12.4167C182.642 12.4167 183.281 12.5449 183.864 12.7975C184.451 13.0542 184.885 13.3862 185.175 13.8009C185.469 14.2125 185.669 14.703 185.788 15.2685C185.858 15.6383 185.896 16.2836 185.896 17.2041V24.4206H183.935V17.2792C183.935 16.472 183.86 15.8648 183.708 15.4609C183.556 15.0611 183.285 14.7405 182.898 14.5028C182.508 14.2614 182.055 14.1406 181.531 14.1406C180.696 14.1406 179.979 14.4122 179.37 14.9478C178.764 15.4876 178.464 16.506 178.464 18.011V24.4206H176.506ZM188.908 24.4206V8.21768H190.869V17.4568L195.504 12.6845H198.037L193.621 17.0379L198.487 24.4206H196.069L192.251 18.4185L190.869 19.7692V24.4206H188.908Z" fill="white"/>
<path fill-rule="evenodd" clip-rule="evenodd" d="M24.885 21.8377L22.62 18.0972L20.3986 21.8377H24.885ZM24.8806 10.2368H20.3709L22.6183 13.9024L24.8806 10.2368ZM14.3224 4.41452L12.088 8.13503H16.5751L14.3224 4.41452ZM3.81234 10.2368L6.04227 13.9251L8.26086 10.2368H3.81234ZM3.80988 21.8691L8.26468 21.8413L6.04294 18.1337L3.80988 21.8691ZM0 8.13503H9.57115L14.0733 0.663763L14.3578 0.191402L14.6425 0.663763L19.1444 8.13503H28.7154L28.4303 8.60514L23.9292 16.028L28.4315 23.5041L28.7146 23.9742H19.1442L14.6425 31.4281L14.3578 31.8994L14.0733 31.4281L9.57133 23.9742H0.000923114L0.283825 23.5041L4.78594 16.028L0.285056 8.60514L0 8.13503ZM10.8237 10.3069L7.1971 16.0298L10.8237 21.8026H17.8915L21.5183 16.0298L17.8915 10.3069H10.8237ZM14.3543 27.6635L16.5755 23.9742H12.0926L14.3543 27.6635ZM14.0978 13.5933C14.8044 13.5933 15.447 13.8692 15.9128 14.3144V14.3131C16.3777 14.7569 16.6664 15.3703 16.6664 16.046C16.6664 16.7205 16.3777 17.3334 15.9128 17.7776V17.7788C15.4481 18.2227 14.8052 18.4984 14.0978 18.4984C13.3905 18.4984 12.748 18.2227 12.2832 17.7788H12.2845C11.8184 17.3339 11.5293 16.7204 11.5293 16.0458C11.5293 15.372 11.8177 14.7589 12.2831 14.3142C12.2834 14.3139 12.2843 14.313 12.2843 14.313C12.7499 13.8686 13.3922 13.5933 14.0978 13.5933Z" fill="white"/>
</svg>
