<svg width="138" height="16" viewBox="0 0 138 16" fill="none" xmlns="http://www.w3.org/2000/svg">
<path fill-rule="evenodd" clip-rule="evenodd" d="M16.8922 6.89031C16.9028 6.77374 16.8507 6.66093 16.7582 6.60013C16.1634 6.19388 8.63111 0.941679 8.60432 0.924268C8.50765 0.858577 8.3848 0.858577 8.28813 0.924268C8.26133 0.938777 0.72909 6.19388 0.135567 6.60013C0.0423577 6.66017 -0.00998452 6.77353 0.00158939 6.89031V15.3548C-0.000230038 15.431 0.0362256 15.5024 0.0968595 15.5413C0.157493 15.5801 0.232801 15.5804 0.293661 15.5419L0.368689 15.497C0.372232 15.4977 0.375865 15.4977 0.379407 15.497L0.407543 15.4766C0.66746 15.3025 2.47884 14.0881 2.90891 13.798L2.95848 13.7646L3.00002 13.737C3.09261 13.675 3.14812 13.5647 3.14605 13.4469V13.2466V8.49209C3.14188 8.39899 3.17927 8.30938 3.24654 8.25124L3.30415 8.20916L8.29751 4.73574C8.34297 4.70488 8.39526 4.68784 8.4489 4.68641C8.50259 4.68747 8.55498 4.70454 8.6003 4.73574L13.5937 8.20916L13.6513 8.25124C13.719 8.30908 13.7569 8.39873 13.7531 8.49209V13.4469C13.751 13.5647 13.8065 13.675 13.8991 13.737L16.4916 15.4781C16.509 15.4912 16.6055 15.5477 16.6068 15.5492C16.6677 15.5876 16.743 15.5874 16.8036 15.5485C16.8643 15.5097 16.9007 15.4383 16.8989 15.362V6.89756L16.8922 6.89031ZM28.1249 5.38574C27.5319 5.38388 26.9451 5.51788 26.4033 5.77893C25.9018 6.01223 25.455 6.36423 25.0957 6.80906H25.0488V2.24312C25.0584 2.10412 24.9851 1.97395 24.8666 1.91958C24.8036 1.89781 22.9078 1.32181 22.1441 1.09112C22.0696 1.07132 21.9909 1.08916 21.9299 1.13963C21.869 1.19011 21.8325 1.26778 21.8306 1.35083V15.3765C21.8321 15.554 21.9642 15.6977 22.1281 15.7001H24.7527C24.9187 15.6969 25.051 15.549 25.0488 15.3693V9.71083C25.0407 9.47203 25.0781 9.23398 25.1586 9.0115C25.4582 8.3217 26.1084 7.89146 26.8119 7.91754C27.3347 7.90011 27.836 8.14341 28.1718 8.5776C28.5077 9.0118 28.641 9.58888 28.5335 10.1432V15.3664C28.5313 15.5461 28.6637 15.694 28.8296 15.6972H31.5467C31.7127 15.694 31.845 15.5461 31.8428 15.3664V9.79643C31.8428 6.76553 30.2351 5.38284 28.1196 5.38284L28.1249 5.38574ZM71.7374 5.38284C70.3496 5.258 68.977 5.76956 67.9541 6.79292C66.9312 7.81628 66.3517 9.25752 66.3569 10.7656C66.3569 13.9227 68.4268 15.9235 72.0429 15.9235C73.2676 15.9381 74.4873 15.7512 75.6603 15.3693C75.8038 15.3055 75.8792 15.1341 75.8345 14.9732C75.8264 14.9253 75.537 13.5223 75.537 13.5223C75.5255 13.4332 75.4802 13.3534 75.4121 13.3019C75.344 13.2504 75.2592 13.232 75.178 13.251L75.123 13.2626C74.2713 13.4818 73.398 13.5881 72.5225 13.5789C70.9778 13.5789 69.6286 12.9594 69.5187 11.6608H76.0944C76.2605 11.6676 76.404 11.5361 76.4253 11.3576C76.4253 11.3286 76.4347 11.2981 76.4374 11.2676C76.4698 10.9875 76.4864 10.7055 76.4869 10.4232C76.5735 9.04233 76.0975 7.68963 75.1841 6.72147C74.2708 5.75332 73.0118 5.2668 71.7388 5.39009L71.7374 5.38284ZM69.4973 9.51641C69.5691 8.35525 70.4673 7.45785 71.5418 7.47356C72.0509 7.43637 72.5499 7.64005 72.9097 8.0319C73.2695 8.42376 73.4548 8.96529 73.4175 9.51641H69.4946H69.4973ZM39.9726 5.37849C36.5535 5.37849 34.2879 7.46196 34.2879 10.7206C34.2879 13.9793 36.6834 15.9192 39.7984 15.9192C42.6521 15.9192 45.4188 14.2274 45.4188 10.5349C45.4188 7.50258 43.2403 5.37849 39.9726 5.37849ZM39.8855 13.6703C38.4694 13.6703 37.7084 12.3718 37.7084 10.6394C37.7084 9.15224 38.2965 7.60705 39.8855 7.60705C41.3874 7.60705 41.9983 9.13338 41.9983 10.6394C41.9983 12.453 41.1703 13.6703 39.8855 13.6703ZM60.3614 5.37849C59.6584 5.3609 58.9623 5.53081 58.3343 5.87324C57.8044 6.17239 57.3374 6.58681 56.9623 7.09053H56.9195C56.3379 5.95292 55.199 5.28475 54.0014 5.37849C52.7515 5.30654 51.5478 5.89955 50.7766 6.96721V5.93418C50.7781 5.75555 50.6467 5.60879 50.4818 5.60482H48.1506C47.9846 5.60721 47.8517 5.75444 47.8532 5.93418V8.82434V15.3533C47.8517 15.5333 47.9844 15.6809 48.1506 15.6841H50.7846C50.949 15.6786 51.0789 15.5314 51.0767 15.3533V9.80514C51.0686 9.53656 51.1143 9.26927 51.2107 9.02166C51.4599 8.33418 52.0734 7.883 52.7554 7.88562C53.8018 7.88562 54.2801 8.75615 54.2801 10.0329V15.3533C54.2779 15.5331 54.4102 15.6809 54.5762 15.6841H57.2062C57.3723 15.6809 57.5051 15.5333 57.5036 15.3533V9.78337C57.5044 9.509 57.5497 9.23692 57.6376 8.97958C57.8863 8.3064 58.4942 7.8706 59.1636 7.88562C60.2287 7.88562 60.7311 8.73148 60.7311 10.1954V15.3533C60.7289 15.5331 60.8613 15.6809 61.0272 15.6841H63.6559C63.8221 15.6809 63.9548 15.5333 63.9533 15.3533V9.7442C63.9533 6.73071 62.4072 5.36978 60.36 5.36978L60.3614 5.37849ZM123.662 7.65928V6.02703C123.662 5.84873 123.53 5.70308 123.366 5.69913H122.216C122.052 5.70465 121.923 5.85096 121.924 6.02848V8.81273V15.3504C121.923 15.5293 122.054 15.6765 122.219 15.6812H123.523C123.688 15.678 123.82 15.531 123.819 15.3519V10.3695C123.823 10.0857 123.852 9.80299 123.906 9.52512C124.109 8.16461 125.204 7.17221 126.477 7.19499C126.589 7.19499 126.69 7.19499 126.785 7.2037C126.873 7.21893 126.963 7.19067 127.03 7.12664C127.097 7.06261 127.134 6.96953 127.131 6.8729V5.84422C127.13 5.80759 127.126 5.7711 127.119 5.7354C127.092 5.60765 126.994 5.51216 126.873 5.49746C126.777 5.48427 126.681 5.47894 126.584 5.4815C125.286 5.48176 124.124 6.3526 123.666 7.66798L123.662 7.65928ZM106.482 5.4815C105.099 5.41046 103.781 6.12039 102.999 7.35749V6.03574C103 5.94968 102.969 5.8667 102.913 5.80516C102.858 5.74363 102.782 5.7086 102.702 5.70784H101.531C101.452 5.70783 101.375 5.74251 101.319 5.80414C101.263 5.86576 101.232 5.94918 101.233 6.03574V8.41084V15.3635C101.232 15.5418 101.363 15.6881 101.527 15.6928H102.854C103.019 15.6897 103.151 15.5427 103.15 15.3635V9.68907C103.146 9.40059 103.192 9.11384 103.284 8.8432C103.695 7.70074 104.722 6.95895 105.854 6.98752C106.564 6.94541 107.253 7.25467 107.727 7.82823C108.202 8.40178 108.41 9.17758 108.293 9.93717V15.362C108.292 15.542 108.425 15.6897 108.591 15.6928H109.914C110.08 15.6896 110.213 15.5418 110.211 15.362V9.73114C110.318 8.61072 109.968 7.49527 109.252 6.67808C108.536 5.86088 107.526 5.4237 106.487 5.4815H106.482ZM84.6288 6.94689C85.2604 6.93286 85.8895 7.03692 86.4884 7.25448L86.5206 7.26754C86.596 7.31307 86.6859 7.32134 86.7674 7.29026C86.8489 7.25918 86.9141 7.19174 86.9466 7.10504L87.1931 6.31576C87.2427 6.14564 87.1575 5.96386 87.0015 5.90661L86.9707 5.895C86.2118 5.63618 85.4204 5.50599 84.6248 5.50907C81.1856 5.50907 78.9629 7.73617 78.9629 10.8091C78.9629 13.8821 81.0315 15.925 84.2121 15.925C85.156 15.9345 86.0944 15.7691 86.9868 15.436C87.1396 15.3705 87.218 15.1866 87.165 15.0182L87.1583 14.9906C87.1583 14.9906 86.9975 14.3217 86.9881 14.2884C86.9721 14.2052 86.9232 14.1339 86.8544 14.0931C86.7856 14.0523 86.7037 14.0463 86.6304 14.0765L86.605 14.0882C85.9483 14.3404 85.2559 14.4661 84.5591 14.4596C83.2692 14.5325 82.0486 13.8241 81.3903 12.6207C80.732 11.4173 80.7448 9.9176 81.4236 8.72759C82.1024 7.53759 83.335 6.85388 84.6234 6.9527L84.6288 6.94689ZM116.053 3.6882C116.056 3.5977 116.017 3.51166 115.95 3.45827C115.882 3.40487 115.795 3.39102 115.716 3.42124L115.67 3.4343L114.431 3.80573C114.409 3.81122 114.387 3.8185 114.367 3.82749C114.251 3.87898 114.178 4.00176 114.18 4.13653V5.71364H112.841C112.675 5.71682 112.544 5.86405 112.546 6.04299V6.76843C112.544 6.94681 112.676 7.09316 112.841 7.09633H114.18V12.543C114.08 13.4833 114.349 14.4261 114.921 15.1415C115.488 15.6879 116.232 15.9695 116.99 15.925C117.478 15.9305 117.965 15.8685 118.438 15.7407C118.576 15.7061 118.672 15.5729 118.671 15.4201V15.3533L118.63 14.6845C118.628 14.5972 118.595 14.5143 118.536 14.4542C118.478 14.3942 118.399 14.3621 118.319 14.3653C118.295 14.3661 118.272 14.3691 118.249 14.374C117.998 14.4066 117.745 14.4211 117.492 14.4175C116.42 14.4175 116.056 13.7167 116.056 12.4806V7.09053H118.501C118.581 7.09015 118.657 7.05549 118.712 6.99423C118.768 6.93296 118.799 6.85014 118.799 6.76408V6.03864C118.8 5.8589 118.667 5.71168 118.501 5.70929H116.052V3.67805L116.053 3.6882ZM98.3669 10.7598C98.3669 10.7381 98.3669 10.709 98.3763 10.6858C98.3927 10.5181 98.4012 10.3496 98.4017 10.1809C98.4737 8.90878 98.0376 7.66446 97.2042 6.76449C96.3708 5.86452 95.2206 5.39565 94.0461 5.47715C92.7124 5.41101 91.415 5.95786 90.4735 6.98295C89.532 8.00804 89.034 9.41603 89.1023 10.8599C89.1023 13.872 91.041 15.9148 94.2846 15.9148C95.2345 15.9257 96.1812 15.7949 97.0981 15.526C97.2643 15.4766 97.413 15.4259 97.5416 15.3809C97.6141 15.3533 97.6736 15.2956 97.7068 15.2204C97.7399 15.1453 97.7441 15.0589 97.7184 14.9804L97.7117 14.9558C97.7117 14.9558 97.5496 14.3159 97.5429 14.2855C97.5246 14.2045 97.475 14.1361 97.4068 14.0975C97.3386 14.0589 97.2584 14.0539 97.1865 14.0838C97.1778 14.0858 97.1693 14.0887 97.1611 14.0925C97.1397 14.1012 97.1182 14.107 97.0995 14.1128C96.2753 14.3869 95.4158 14.5153 94.5539 14.4929C93.6352 14.6251 92.7088 14.3189 92.0147 13.6539C91.3206 12.9888 90.9272 12.0303 90.9365 11.0268H98.0681C98.2166 11.0324 98.3465 10.9195 98.3736 10.7613L98.3669 10.7598ZM96.5568 9.72824H90.9512C91.0738 8.06668 92.3515 6.78391 93.8907 6.77714C94.6217 6.723 95.3378 7.01924 95.8492 7.58738C96.3607 8.15553 96.616 8.93825 96.5475 9.72824H96.5568ZM137.957 10.7613C137.957 10.7395 137.957 10.7105 137.967 10.6873C137.983 10.5195 137.992 10.351 137.992 10.1824C138.065 8.91011 137.629 7.6655 136.795 6.76542C135.962 5.86534 134.811 5.39662 133.637 5.4786C132.303 5.41246 131.005 5.95931 130.064 6.9844C129.122 8.00949 128.625 9.41748 128.693 10.8614C128.693 13.8734 130.631 15.9163 133.876 15.9163C134.826 15.9272 135.773 15.7964 136.69 15.5274C136.857 15.4781 137.006 15.4273 137.132 15.3823C137.205 15.3551 137.265 15.2974 137.298 15.2221C137.331 15.1469 137.335 15.0604 137.309 14.9819V14.9572C137.309 14.9572 137.145 14.3174 137.139 14.2869C137.121 14.2053 137.071 14.1362 137.002 14.0975C136.933 14.0588 136.852 14.0543 136.78 14.0852L136.756 14.094C136.735 14.1018 136.715 14.1086 136.694 14.1143C135.87 14.3882 135.01 14.5166 134.148 14.4944C133.23 14.627 132.303 14.3211 131.609 13.6559C130.915 12.9908 130.521 12.0319 130.531 11.0282H137.663C137.811 11.0337 137.94 10.9207 137.967 10.7627L137.957 10.7613ZM136.15 9.72969H130.554C130.676 8.06813 131.954 6.78536 133.493 6.77859C134.224 6.72446 134.94 7.02069 135.452 7.58883C135.963 8.15698 136.219 8.9397 136.15 9.72969Z" fill="#C3D500"/>
</svg>
