<svg width="74" height="166" viewBox="0 0 74 166" fill="none" xmlns="http://www.w3.org/2000/svg">
<g opacity="0.04" clip-path="url(#clip0_977_12921)">
<path fill-rule="evenodd" clip-rule="evenodd" d="M54.3871 113.048L42.6104 93.5998L31.0606 113.048H54.3871ZM54.3647 52.7305H30.9166L42.6018 71.7893L54.3647 52.7305ZM-0.532211 22.4581L-12.1495 41.8025H11.1808L-0.532211 22.4581ZM-55.1781 52.7305L-43.5838 71.9073L-32.0484 52.7305H-55.1781ZM-55.1909 113.211L-32.0286 113.067L-43.5803 93.7896L-55.1909 113.211ZM-75 41.8025H-25.2357L-1.82732 2.95634L-0.348068 0.500351L1.13213 2.95634L24.5395 41.8025H74.3029L72.8208 44.2468L49.4178 82.8415L72.8272 121.713L74.2991 124.157H24.5386L1.13213 162.913L-0.348068 165.363L-1.82732 162.913L-25.2347 124.157H-74.9952L-73.5243 121.713L-50.1159 82.8415L-73.5179 44.2468L-75 41.8025ZM-18.7232 53.0952L-37.5793 82.8509L-18.7232 112.866H18.0252L36.8822 82.8509L18.0252 53.0952H-18.7232ZM-0.36631 143.339L11.1828 124.157H-12.1257L-0.36631 143.339ZM-1.69964 70.1825C1.97399 70.1825 5.31548 71.6171 7.73705 73.9314V73.9249C10.1541 76.2323 11.6554 79.4219 11.6554 82.9347C11.6554 86.4418 10.1541 89.6284 7.73705 91.9381V91.9446C5.32092 94.2524 1.97847 95.686 -1.69964 95.686C-5.37742 95.686 -8.71796 94.2524 -11.1344 91.9446H-11.128C-13.5515 89.6313 -15.0544 86.4411 -15.0544 82.9341C-15.0544 79.4303 -13.555 76.2427 -11.1354 73.9307C-11.1334 73.9288 -11.129 73.9242 -11.129 73.9242C-8.70804 71.6135 -5.36846 70.1825 -1.69964 70.1825Z" fill="#4A1049"/>
</g>
<defs>
<clipPath id="clip0_977_12921">
<rect width="74" height="165" fill="white" transform="translate(0 0.5)"/>
</clipPath>
</defs>
</svg>
