<svg width="41" height="43" viewBox="0 0 41 43" fill="none" xmlns="http://www.w3.org/2000/svg">
<path d="M4.10372 21.7148C3.04855 21.7414 1.93648 21.7392 0.765137 21.7104C1.93352 21.6901 3.0458 21.6905 4.10372 21.7148C17.9155 21.3667 21.9783 16.0792 21.6223 0.710449C23.5184 19.6106 28.3844 22.6299 39.1908 21.846C39.7007 21.7963 40.2253 21.7512 40.7651 21.7104C40.2269 21.7633 39.7022 21.8089 39.1908 21.846C24.985 23.2306 22.2547 28.136 21.7353 38.2313C21.7537 39.6141 21.7147 41.1048 21.6223 42.7104C21.6341 41.1157 21.6637 39.6241 21.7353 38.2313C21.5683 25.6766 16.6707 22.0041 4.10372 21.7148Z" fill="#F9F785"/>
</svg>
