<svg width="563" height="250" viewBox="0 0 563 250" fill="none" xmlns="http://www.w3.org/2000/svg">
<path d="M418.067 11.2368C396.722 -1.11273 368.442 2.35713 345.575 2.72462C280.349 3.77289 214.361 4.06662 149.334 10.4413C116.884 13.6224 83.6457 19.5912 53.0048 33.5116C36.0894 41.1964 16.1649 52.249 6.82656 72.3334C-0.998448 89.1631 0.567941 108.886 12.4279 122.213C21.6075 132.528 33.0415 137.525 45.0588 140.749C75.201 148.835 106.639 151.08 137.35 153.398C249.485 161.86 362.347 146.501 474.21 163.342C490.024 165.723 505.928 168.354 521.496 172.57C584.103 189.523 564.787 236.805 512.377 248.145" stroke="#F9F785" stroke-width="3" stroke-linecap="round"/>
</svg>
