<svg width="16" height="17" viewBox="0 0 16 17" fill="none" xmlns="http://www.w3.org/2000/svg">
<path d="M11.6911 5.80995C12.0261 6.05358 12.1002 6.52264 11.8566 6.85763L7.85655 12.3576C7.72754 12.535 7.52734 12.647 7.30867 12.6642C7.08999 12.6814 6.87477 12.6019 6.71967 12.4468L4.21967 9.94683C3.92678 9.65394 3.92678 9.17907 4.21967 8.88617C4.51256 8.59328 4.98744 8.59328 5.28033 8.88617L7.15969 10.7655L10.6434 5.97538C10.8871 5.64039 11.3561 5.56632 11.6911 5.80995Z" fill="#333333"/>
<path fill-rule="evenodd" clip-rule="evenodd" d="M14.4032 11.3188C15.353 10.8152 16 9.81643 16 8.6665C16 7.51657 15.353 6.51776 14.4032 6.01422C14.7188 4.98653 14.47 3.82275 13.6569 3.00963C12.8437 2.1965 11.68 1.94772 10.6523 2.26329C10.1487 1.31348 9.14992 0.666504 8 0.666504C6.85007 0.666504 5.85125 1.3135 5.3477 2.26332C4.32002 1.94776 3.15627 2.19654 2.34315 3.00966C1.53003 3.82278 1.28125 4.98654 1.5968 6.01421C0.646987 6.51776 0 7.51658 0 8.6665C0 9.81643 0.646988 10.8152 1.59681 11.3188C1.28124 12.3465 1.53002 13.5102 2.34314 14.3234C3.15627 15.1365 4.32003 15.3853 5.34771 15.0697C5.85126 16.0195 6.85007 16.6665 8 16.6665C9.14993 16.6665 10.1488 16.0195 10.6523 15.0697C11.68 15.3852 12.8437 15.1365 13.6569 14.3233C14.47 13.5102 14.7188 12.3465 14.4032 11.3188ZM11.8566 6.85763C12.1002 6.52264 12.0261 6.05358 11.6911 5.80995C11.3561 5.56632 10.8871 5.64039 10.6434 5.97538L7.15969 10.7655L5.28033 8.88617C4.98744 8.59328 4.51256 8.59328 4.21967 8.88617C3.92678 9.17907 3.92678 9.65394 4.21967 9.94683L6.71967 12.4468C6.87477 12.6019 7.08999 12.6814 7.30867 12.6642C7.52734 12.647 7.72754 12.535 7.85655 12.3576L11.8566 6.85763Z" fill="#F9F785"/>
</svg>
