<svg width="20" height="21" viewBox="0 0 20 21" fill="none" xmlns="http://www.w3.org/2000/svg">
<circle cx="10" cy="10.239" r="10" fill="#F1E8F2"/>
<path fill-rule="evenodd" clip-rule="evenodd" d="M5.23649 9.71864C5.0385 9.71864 4.87799 9.87915 4.87799 10.0771C4.87799 10.2751 5.03849 10.4356 5.23648 10.4356L9.7161 10.4356L9.71604 14.9149C9.71604 15.1129 9.87654 15.2734 10.0745 15.2734C10.2725 15.2734 10.433 15.1129 10.433 14.9149L10.4331 10.4356L14.9121 10.4355C15.1101 10.4355 15.2706 10.275 15.2706 10.077C15.2706 9.87901 15.1101 9.71851 14.9121 9.71851L10.4331 9.71857L10.4332 5.2393C10.4332 5.04131 10.2727 4.8808 10.0747 4.8808C9.87668 4.88081 9.71617 5.04132 9.71617 5.23931L9.71611 9.71858L5.23649 9.71864Z" fill="#4F2B51"/>
</svg>
