<svg width="1366" height="249" viewBox="0 0 1366 249" fill="none" xmlns="http://www.w3.org/2000/svg">
<path opacity="0.7" d="M-135.111 183.109C-135.111 199.429 -98.7039 174.009 -92.9249 171.244C97.561 80.0873 306.93 30.4828 516.405 11.1993C583.632 5.01065 652.083 0.38903 719.691 0.38903C723.303 0.38903 737.102 0.207228 730.765 8.03532C719.154 22.3777 693.061 30.0448 677.504 37.3021C617.696 65.2029 558.283 93.3086 505.331 133.276C464.646 163.985 428.02 200.127 397.492 240.983C381.624 262.22 366.223 285.965 362.029 312.7C354.35 361.655 408.187 358.992 442.579 359.105C552.066 359.465 661.766 347.14 770.314 334.321C975.41 310.1 1179.8 279.245 1383.99 248.498C1555.44 222.682 1730.67 201.707 1898.01 154.633C1906.71 152.185 1993.46 134.837 1993.46 107.173" stroke="#F9F785" stroke-width="3" stroke-linecap="round"/>
</svg>
