<svg width="360" height="198" viewBox="0 0 360 198" fill="none" xmlns="http://www.w3.org/2000/svg">
<path d="M-54.0605 101.02C-54.0605 110.023 -33.9749 95.9995 -30.7867 94.4738C74.3028 44.1835 189.81 16.817 305.376 6.17849C342.464 2.76426 380.228 0.214553 417.527 0.214553C419.52 0.214553 427.132 0.114254 423.636 4.43295C417.231 12.3455 402.835 16.5754 394.253 20.5792C361.257 35.9718 328.479 51.4775 299.266 73.5273C276.821 90.4691 256.614 110.408 239.772 132.948C231.018 144.665 222.521 157.765 220.208 172.514C215.971 199.522 245.673 198.053 264.646 198.115C325.049 198.314 385.57 191.514 445.455 184.442C558.605 171.08 671.365 154.057 784.018 137.094C878.601 122.852 975.275 111.28 1067.6 85.3097C1072.4 83.9592 1120.25 74.3882 1120.25 59.1266" stroke="#F9F785" stroke-width="2.15643" stroke-linecap="round"/>
</svg>
