<svg width="360" height="275" viewBox="0 0 360 275" fill="none" xmlns="http://www.w3.org/2000/svg">
<path opacity="0.7" d="M-229.999 228.285C-228.57 236.938 -211.492 220.272 -208.67 218.299C-115.651 153.284 -8.98066 108.648 100.4 80.079C135.504 70.9105 171.395 62.4656 207.242 56.5452C209.157 56.2288 216.458 54.9241 213.783 59.6297C208.883 68.2512 195.719 74.6015 188.106 79.8119C158.837 99.8433 129.796 119.949 105.219 145.778C86.3358 165.623 70.0805 187.994 57.4716 212.331C50.9177 224.981 44.8308 238.92 44.9484 253.463C45.1637 280.093 73.4767 273.966 91.722 271.014C149.807 261.618 206.894 245.475 263.327 229.173C369.954 198.37 475.626 164.111 581.203 129.926C669.847 101.225 760.923 74.7579 845.53 35.1434C849.93 33.0834 894.405 16.2884 891.983 1.62047" stroke="#F9F785" stroke-width="1.75752" stroke-linecap="round"/>
</svg>
