<svg width="1366" height="302" viewBox="0 0 1366 302" fill="none" xmlns="http://www.w3.org/2000/svg">
<path opacity="0.7" d="M-101.111 183.109C-101.111 199.429 -64.7039 174.009 -58.9249 171.244C131.561 80.0873 340.93 30.4828 550.405 11.1993C617.632 5.01065 686.083 0.38903 753.691 0.38903C757.303 0.38903 771.102 0.207228 764.765 8.03532C753.154 22.3777 727.061 30.0448 711.504 37.3021C651.696 65.2029 592.283 93.3086 539.331 133.276C498.646 163.985 462.02 200.127 431.492 240.983C415.624 262.22 400.223 285.965 396.029 312.7C388.35 361.655 442.187 358.992 476.579 359.105C586.066 359.465 695.766 347.14 804.314 334.321C1009.41 310.1 1213.8 279.245 1417.99 248.498C1589.44 222.682 1764.67 201.707 1932.01 154.633C1940.71 152.185 2027.46 134.837 2027.46 107.173" stroke="#F9F785" stroke-width="3" stroke-linecap="round"/>
</svg>
