<svg width="1366" height="265" viewBox="0 0 1366 265" fill="none" xmlns="http://www.w3.org/2000/svg">
<path opacity="0.7" d="M-101 134.943C-101 146.817 -64.6023 128.323 -58.8248 126.311C131.61 59.987 340.924 23.8958 550.342 9.86557C617.551 5.36285 685.985 2.00026 753.574 2.00026C757.185 2.00026 770.98 1.86799 764.645 7.56353C753.038 17.9987 726.952 23.5771 711.399 28.8574C651.606 49.1574 592.209 69.6065 539.272 98.6861C498.597 121.029 461.981 147.325 431.461 177.051C415.598 192.503 400.2 209.779 396.008 229.231C388.331 264.849 442.154 262.912 476.536 262.994C585.994 263.256 695.665 254.288 804.184 244.962C1009.23 227.339 1213.56 204.89 1417.7 182.519C1589.1 163.736 1764.28 148.475 1931.58 114.225C1940.28 112.444 2027 99.8215 2027 79.6942" stroke="#F9F785" stroke-width="3" stroke-linecap="round"/>
</svg>
