<svg width="1366" height="441" viewBox="0 0 1366 441" fill="none" xmlns="http://www.w3.org/2000/svg">
<path d="M-15.2988 77.9429C6.26858 38.1262 49.1274 19.2365 92.4209 10.6558C200.589 -10.783 306.673 10.0077 406.528 53.6532C480.74 86.0902 595.798 140.2 587.721 238.919C578.78 348.191 457.302 365.441 369.415 341.66C338.012 333.163 295.102 321.199 268.333 301.68C253.932 291.179 250.628 273.212 260.186 258.381C279.772 227.989 325.222 217.127 357.496 209.651C481.192 180.998 609 178.635 735.27 184.757C909.445 193.202 1090.12 210.527 1258.03 259.588C1339.03 283.256 1417.43 316.119 1484.33 368.062C1503.85 383.222 1540.75 410.308 1540.75 439.121" stroke="#F9F785" stroke-width="3" stroke-linecap="round"/>
</svg>
