<svg width="15" height="19" viewBox="0 0 15 19" fill="none" xmlns="http://www.w3.org/2000/svg">
<path fill-rule="evenodd" clip-rule="evenodd" d="M1.94322 0.717773H6.3596C6.19946 4.12698 6.40596 4.80967 4.36212 8.34109C2.60905 11.291 1.6988 12.5215 1.88001 12.8923C2.18764 13.5413 3.67522 12.9682 4.14298 12.1338C4.61075 11.4595 4.59389 10.9749 5.19229 10.5156C5.3412 10.4772 5.49694 10.4736 5.64746 10.505C5.79799 10.5364 5.93927 10.602 6.0604 10.6968C7.53112 11.7714 5.74856 16.3437 6.57873 17.8987C6.61947 17.972 6.67495 18.036 6.74168 18.0868C6.80841 18.1376 6.88494 18.1739 6.96643 18.1937C7.4342 18.1937 7.51005 17.9324 7.65333 17.0896C7.85561 15.9307 8.0326 13.5876 8.39923 12.8333C8.67314 12.3698 8.99342 12.8797 9.05241 13.082C9.47382 14.717 9.30526 18.2442 10.4641 18.2021C10.6453 18.2021 10.8139 18.0209 10.8392 17.688C10.9656 16.4237 10.5021 13.7646 10.4431 12.8207C10.422 12.3993 10.7507 12.3487 10.9024 12.4878C11.5008 13.2294 11.6441 13.516 12.2256 14.2661C12.8072 15.0162 13.1738 15.9518 13.8481 15.7284C14.6277 15.5008 12.4448 12.3571 11.9981 11.2994C11.9559 11.1982 11.9981 11.114 12.1287 11.1856C13.1949 11.7629 13.9998 13.2463 14.5392 12.9429C15.0069 12.5215 12.6175 10.0604 12.0908 9.20919C11.6104 8.44223 10.6369 5.65249 10.6074 4.57368C10.5933 3.29197 10.6481 2.01044 10.7718 0.73463H13.768C14.0895 0.735741 14.3976 0.863965 14.625 1.09133C14.8523 1.3187 14.9805 1.62675 14.9817 1.94829V17.5405C14.9817 17.8624 14.8538 18.1711 14.6262 18.3987C14.3986 18.6263 14.0899 18.7541 13.768 18.7541H1.94322C1.62134 18.7541 1.31264 18.6263 1.08503 18.3987C0.857426 18.1711 0.729558 17.8624 0.729558 17.5405V1.94829C0.727889 1.78765 0.758019 1.62827 0.818212 1.47932C0.878405 1.33038 0.967471 1.19481 1.08028 1.08043C1.19309 0.966057 1.32742 0.875129 1.47552 0.812887C1.62362 0.750646 1.78257 0.718321 1.94322 0.717773Z" fill="white"/>
<path fill-rule="evenodd" clip-rule="evenodd" d="M6.36366 17.0769C6.18245 17.8607 6.08553 18.101 5.63462 18.0757C5.55432 18.0515 5.47991 18.0109 5.41608 17.9565C5.35225 17.9021 5.30039 17.8351 5.26378 17.7596C4.52209 16.1667 6.88621 11.6407 5.15 10.5493L5.19635 10.5156C5.34526 10.4772 5.50099 10.4736 5.65152 10.505C5.80205 10.5364 5.94333 10.602 6.06446 10.6968C7.32869 11.6197 6.19088 15.1216 6.37209 17.0769H6.36366ZM1.86299 12.6985C1.95149 12.1675 2.83645 10.9117 4.36196 8.34109C6.20774 5.59771 6.32994 4.54839 6.35944 0.717773H5.81161C5.55876 3.91206 5.55034 5.2985 3.55285 8.09667C1.6565 10.9749 0.683046 12.1254 0.838967 12.5088C0.994889 12.8923 1.39944 12.846 1.86299 12.6985ZM12.9334 11.7882C13.3886 12.4667 13.692 13.0525 13.4813 13.2337C13.3911 13.2547 13.297 13.2517 13.2082 13.2251C13.1195 13.1985 13.0393 13.1491 12.9756 13.082C12.5542 12.3698 12.1623 11.6829 11.9979 11.2867C11.9558 11.1856 11.9979 11.1013 12.1286 11.173C12.4217 11.3417 12.6921 11.547 12.9334 11.784V11.7882ZM12.668 14.9319C12.5247 14.717 12.3814 14.481 12.2255 14.2577C11.6439 13.5076 11.5007 13.221 10.9022 12.4793C10.7505 12.3403 10.4218 12.3951 10.4429 12.8123C10.4429 12.9808 10.4766 13.2042 10.5061 13.4654C10.7042 13.752 10.8727 14.0596 11.1003 14.4263C11.6018 15.2396 12.1496 16.4111 12.6427 15.9728C12.8534 15.8085 12.8239 15.4208 12.6722 14.9277L12.668 14.9319ZM9.71808 17.3593C9.70514 17.5562 9.67839 17.7519 9.63802 17.945C9.6187 18.0213 9.57713 18.09 9.51859 18.1426C9.46005 18.1951 9.3872 18.229 9.30932 18.24C8.23472 18.2906 8.4665 15.5219 8.12515 13.8321C8.17781 13.4879 8.27118 13.1512 8.40328 12.8291C8.6772 12.3656 8.99747 12.8755 9.05647 13.0777C9.35567 14.2029 9.35989 16.2215 9.70966 17.3635L9.71808 17.3593Z" fill="white"/>
</svg>
