<svg width="12" height="12" viewBox="0 0 12 12" fill="none" xmlns="http://www.w3.org/2000/svg">
<path d="M8.69709 4.0008C8.94629 4.17134 9.00139 4.49969 8.82015 4.73418L5.84453 8.58418C5.74856 8.70835 5.59963 8.78677 5.43696 8.79878C5.27428 8.81079 5.11418 8.75519 4.9988 8.64662L3.13903 6.89662C2.92115 6.6916 2.92115 6.35919 3.13903 6.15416C3.35692 5.94913 3.71018 5.94913 3.92807 6.15416L5.32613 7.46971L7.91772 4.1166C8.09896 3.88211 8.44789 3.83026 8.69709 4.0008Z" fill="#333333"/>
<path fill-rule="evenodd" clip-rule="evenodd" d="M10.7146 7.85699C11.4212 7.50451 11.9025 6.80534 11.9025 6.00039C11.9025 5.19544 11.4212 4.49627 10.7146 4.14379C10.9494 3.42441 10.7643 2.60977 10.1594 2.04058C9.55452 1.47139 8.68879 1.29724 7.92429 1.51814C7.5497 0.853277 6.80668 0.400391 5.95124 0.400391C5.0958 0.400391 4.35277 0.853285 3.97819 1.51816C3.21369 1.29727 2.34796 1.47142 1.74308 2.0406C1.1382 2.60978 0.953125 3.42441 1.18787 4.14379C0.481297 4.49627 0 5.19544 0 6.00039C0 6.80534 0.481298 7.50451 1.18787 7.85699C0.953119 8.57637 1.13819 9.39101 1.74308 9.9602C2.34796 10.5294 3.21369 10.7035 3.97819 10.4826C4.35278 11.1475 5.09581 11.6004 5.95124 11.6004C6.80668 11.6004 7.54971 11.1475 7.9243 10.4826C8.6888 10.7035 9.55452 10.5294 10.1594 9.96018C10.7643 9.391 10.9494 8.57637 10.7146 7.85699ZM8.82015 4.73418C9.00139 4.49969 8.94629 4.17134 8.69709 4.0008C8.44789 3.83026 8.09896 3.88211 7.91772 4.1166L5.32613 7.46971L3.92807 6.15416C3.71018 5.94913 3.35692 5.94913 3.13903 6.15416C2.92115 6.35919 2.92115 6.6916 3.13903 6.89662L4.9988 8.64662C5.11418 8.75519 5.27428 8.81079 5.43696 8.79878C5.59963 8.78677 5.74856 8.70835 5.84453 8.58418L8.82015 4.73418Z" fill="#F9F785"/>
</svg>
