<?xml version="1.0" standalone="no"?>
<!DOCTYPE svg PUBLIC "-//W3C//DTD SVG 1.1//EN" "http://www.w3.org/Graphics/SVG/1.1/DTD/svg11.dtd" >
<svg xmlns="http://www.w3.org/2000/svg" xmlns:xlink="http://www.w3.org/1999/xlink" version="1.1">
<metadata>
Created by FontForge 20190801 at Sat Nov 30 09:29:49 2019
 By www-data
Copyright 2019 The Manrope Project Authors (https://github.com/sharanda/manrope)
</metadata>
<defs>
<font id="ManropeBold" horiz-adv-x="280" >
  <font-face 
    font-family="ManropeBold"
    font-weight="700"
    font-stretch="normal"
    units-per-em="1000"
    panose-1="0 0 8 0 0 0 0 0 0 0"
    ascent="800"
    descent="-200"
    x-height="540"
    cap-height="720"
    bbox="-153 -287 1252 997"
    underline-thickness="50"
    underline-position="-100"
    unicode-range="U+000D-FB02"
  />
<missing-glyph horiz-adv-x="740" 
d="M100 707v13h540v-13h-540zM100 649v16h540v-16h-540zM100 592v18h540v-18h-540zM100 533v21h540v-21h-540zM100 476v22h540v-22h-540zM100 419v24h540v-24h-540zM100 360v28h540v-28h-540zM100 303v30h540v-30h-540zM100 245v33h540v-33h-540zM100 187v35h540v-35h-540z
M100 130v37h540v-37h-540zM100 72v40h540v-40h-540zM100 0v57h540v-57h-540z" />
    <glyph glyph-name="parenleft_c_parenright.liga" unicode="&#x28;c&#x29;" horiz-adv-x="986" 
d="M493 -59q-171 0 -292 121t-121 292t121 292t292 121q172 0 292.5 -121t120.5 -292t-120.5 -292t-292.5 -121zM493 54q125 0 212.5 88t87.5 212t-87.5 212t-212.5 88t-212.5 -88t-87.5 -212t87.5 -212t212.5 -88zM501 141q-97 0 -150 66q-49 62 -49 147q0 87 49 146
q56 68 155 68q55 0 100 -27q59 -36 75 -103l-92 -25q-10 30 -33 49q-23 20 -56 20q-45 0 -76 -37q-24 -32 -24 -90q0 -56 24 -91q28 -36 78 -36q36 0 56 17q18 17 29 46l94 -20q-19 -60 -65 -96q-44 -34 -115 -34z" />
    <glyph glyph-name="space_less_three_space.liga" unicode="&#x20;&#x3c;&#x33;&#x20;" horiz-adv-x="1161" 
d="M580 -15q-40 0 -68 30l-175 185q-45 48 -54 111.5t12.5 116.5t70.5 90t112 37q52 0 102 -30q50 30 103 30q63 0 112.5 -37t70.5 -90.5t11.5 -116.5t-53.5 -111l-175 -185q-28 -30 -69 -30zM580 80l176 185q24 26 29 60.5t-6.5 64t-37.5 50.5t-58 21q-51 0 -103 -56
q-52 56 -102 56q-44 0 -74.5 -35.5t-29.5 -79.5t32 -81z" />
    <glyph glyph-name="parenleft_greater_parenright.liga" unicode="&#x28;&#x3e;&#x29;" horiz-adv-x="1150" 
d="M575 -135q101 0 192.5 39t158 105.5t105.5 158t39 192.5t-39 192.5t-105.5 158t-158 105.5t-192.5 39t-192.5 -39t-158 -105.5t-105.5 -158t-39 -192.5t39 -192.5t105.5 -158t158 -105.5t192.5 -39zM575 -22q-159 0 -270.5 111.5t-111.5 270.5t111.5 270.5t270.5 111.5
t270.5 -111.5t111.5 -270.5t-111.5 -270.5t-270.5 -111.5zM505 535l210 -175l-210 -175v350z" />
    <glyph glyph-name="f_f" unicode="ff" horiz-adv-x="715" 
d="M642 637q-34 0 -51 -16.5t-17 -45.5v-35h131v-94h-131v-446h-120v446h-216v-446h-121v446h-87v94h87v9q0 31 1 47.5t9.5 44.5t25.5 47q19 22 47.5 33t46 12.5t46.5 1.5h8h67v-98h-62q-68 0 -68 -62v-35h216v9q0 32 0.5 47.5t9 44t25.5 47.5q21 23 53 34.5t46.5 12
t48.5 0.5h68v-98h-63z" />
    <glyph glyph-name="f_f_l" unicode="ffl" horiz-adv-x="1026" 
d="M826 735h120v-735h-120v446h-252v-446h-120v446h-216v-446h-121v446h-87v94h87v9q0 31 1 47.5t9.5 44.5t25.5 47q19 22 47.5 33t46 12.5t46.5 1.5h8h67v-98h-62q-68 0 -68 -62v-35h216v9q0 32 0.5 47.5t9 44t25.5 47.5q21 23 53 34.5t46.5 12t48.5 0.5h68v-98h-63
q-34 0 -51 -16.5t-17 -45.5v-35h252v195z" />
    <glyph glyph-name="t_t.liga" unicode="tt" horiz-adv-x="806" 
d="M601 446v-219q0 -79 11 -97q29 -47 148 -29v-101q-78 -19 -153 -3.5t-105 69.5q-6 11 -10 24.5t-6.5 22t-3.5 26.5t-1 24v29.5v28.5v225h-253v-219q0 -79 11 -97q29 -47 148 -29v-101q-78 -19 -153 -3.5t-105 69.5q-6 11 -10 24.5t-6.5 22t-3.5 26.5t-1 24v29.5v28.5v225
h-98v94h98v150h120v-150h253v150h120v-150h159v-94h-159z" />
    <glyph glyph-name="fi" unicode="fi" horiz-adv-x="674" 
d="M153 688q19 22 47.5 33t46 12.5t46.5 1.5h8h67v-98h-62q-68 0 -68 -62v-35h130v-94h-130v-446h-121v446h-87v94h87v9q0 31 1 47.5t9.5 44.5t25.5 47zM473 734h120v-110h-120v110zM473 0v540h120v-540h-120z" />
    <glyph glyph-name="fl" unicode="fl" horiz-adv-x="689" 
d="M489 735h120v-735h-120v446h-251v-446h-121v446h-87v94h87v9q0 31 1 47.5t9.5 44.5t25.5 47q19 22 47.5 33t46 12.5t46.5 1.5h8h67v-98h-62q-68 0 -68 -62v-35h251v195z" />
    <glyph glyph-name="hyphen_hyphen.liga" unicode="&#x2d;&#x2d;" horiz-adv-x="540" 
d="M60 268v95h420v-95h-420z" />
    <glyph glyph-name="hyphen_greater.liga" unicode="&#x2d;&#x3e;" horiz-adv-x="1012" 
d="M140 268v95h569l-135 134l57 58l241 -240l-241 -240l-57 58l136 135h-570z" />
    <glyph glyph-name="less_hyphen.liga" unicode="&#x3c;&#x2d;" horiz-adv-x="1012" 
d="M871 268h-569l135 -135l-57 -58l-240 240l240 240l57 -58l-134 -134h568v-95z" />
    <glyph glyph-name=".notdef" horiz-adv-x="740" 
d="M100 707v13h540v-13h-540zM100 649v16h540v-16h-540zM100 592v18h540v-18h-540zM100 533v21h540v-21h-540zM100 476v22h540v-22h-540zM100 419v24h540v-24h-540zM100 360v28h540v-28h-540zM100 303v30h540v-30h-540zM100 245v33h540v-33h-540zM100 187v35h540v-35h-540z
M100 130v37h540v-37h-540zM100 72v40h540v-40h-540zM100 0v57h540v-57h-540z" />
    <glyph glyph-name=".null" horiz-adv-x="600" 
 />
    <glyph glyph-name="nonmarkingreturn" horiz-adv-x="685" 
 />
    <glyph glyph-name="CR" unicode="&#xd;" horiz-adv-x="600" 
 />
    <glyph glyph-name="space" unicode=" " horiz-adv-x="200" 
 />
    <glyph glyph-name="exclam" unicode="!" horiz-adv-x="360" 
d="M120 180v540h120v-540h-120zM120 0v111h120v-111h-120z" />
    <glyph glyph-name="quotedbl" unicode="&#x22;" horiz-adv-x="467" 
d="M60 540v180h120v-180h-120zM247 540v180h120v-180h-120z" />
    <glyph glyph-name="numbersign" unicode="#" horiz-adv-x="931" 
d="M189 1l52 195h-181l30 114h182l31 117h-182l31 113h181l49 180h117l-49 -180h123l49 180h117l-49 -180h181l-30 -113h-181l-32 -117h181l-30 -114h-181l-52 -195h-117l52 195h-123l-52 -195h-117zM389 310h122l32 117h-123z" />
    <glyph glyph-name="dollar" unicode="$" horiz-adv-x="628" 
d="M590 210q0 -87 -57.5 -147t-153.5 -74v-89h-120v90q-90 16 -148.5 74.5t-72.5 148.5l120 19q14 -61 60 -97.5t110 -36.5q62 0 102.5 29.5t40.5 74.5q0 31 -19 50.5t-61 33.5l-174 53q-152 48 -152 184q0 84 52 139t142 68v89h120v-91q80 -16 133.5 -68.5t72.5 -136.5
l-123 -22q-11 54 -51.5 86.5t-97.5 33.5q-54 2 -91 -25t-37 -67q0 -57 99 -86l130 -37q93 -28 134.5 -74t41.5 -122z" />
    <glyph glyph-name="percent" unicode="%" horiz-adv-x="900" 
d="M240 375q-74 0 -127 52.5t-53 127.5q0 73 54 126.5t126 53.5q74 0 127 -52.5t53 -127.5t-53 -127.5t-127 -52.5zM170 0l-80 80l640 640l80 -81zM240 478q32 0 54.5 23t22.5 54t-22.5 54t-54.5 23t-54.5 -23t-22.5 -54t22.5 -54t54.5 -23zM660 -15q-74 0 -127 52.5
t-53 127.5q0 73 54 126.5t126 53.5q74 0 127 -52.5t53 -127.5t-53 -127.5t-127 -52.5zM660 88q32 0 55 23t23 54t-23 54t-55 23q-31 0 -54 -23t-23 -54t23 -54t54 -23z" />
    <glyph glyph-name="ampersand" unicode="&#x26;" horiz-adv-x="668" 
d="M309 -15q-133 0 -203 74q-53 58 -56 149q0 90 50 149q16 20 45 38q-31 35 -45 66t-14 71q0 63 34 113t92 72q42 16 103 16q108 0 165 -60q38 -38 52 -89l-119 -26q-8 23 -25 39q-27 24 -76 24q-32 0 -57 -12q-48 -24 -48 -78q0 -36 33 -71q17 -18 49 -47l180 -167
q1 12 1 44v88h106v-131q0 -63 -7 -94l89 -82l-77 -83l-70 66q-50 -47 -117 -60q-39 -9 -85 -9zM313 100q36 0 57 7q33 11 54 29l-190 175q-25 -10 -42 -30q-20 -26 -20 -67q0 -40 25 -72q35 -42 116 -42z" />
    <glyph glyph-name="quotesingle" unicode="'" horiz-adv-x="260" 
d="M60 540v180h120v-180h-120z" />
    <glyph glyph-name="parenleft" unicode="(" horiz-adv-x="453" 
d="M323 -190q-87 101 -136 240.5t-47 279.5q-2 140 47 279.5t136 240.5l89 -66q-161 -194 -163 -454q2 -260 163 -454z" />
    <glyph glyph-name="parenright" unicode=")" horiz-adv-x="453" 
d="M130 -190l-89 66q161 194 163 454q-2 262 -163 454l89 66q88 -101 136.5 -240t46.5 -280q2 -140 -47 -279.5t-136 -240.5z" />
    <glyph glyph-name="asterisk" unicode="*" horiz-adv-x="465" 
d="M155 364l-87 62l75 89l-113 30l33 102l108 -45l-7 118h107l-8 -118l109 45l33 -102l-114 -30l75 -89l-86 -62l-63 97z" />
    <glyph glyph-name="plus" unicode="+" horiz-adv-x="572" 
d="M239 134v179h-179v95h179v178h95v-178h178v-95h-178v-179h-95z" />
    <glyph glyph-name="comma" unicode="," horiz-adv-x="303" 
d="M60 -127l7 51q33 -2 47.5 19t9.5 57h-64v128h123v-133q0 -67 -31.5 -99.5t-91.5 -22.5z" />
    <glyph glyph-name="hyphen" unicode="-" horiz-adv-x="420" 
d="M60 268v95h300v-95h-300z" />
    <glyph glyph-name="period" unicode="." horiz-adv-x="303" 
d="M90 0v123h123v-123h-123z" />
    <glyph glyph-name="slash" unicode="/" horiz-adv-x="433" 
d="M252 720h121l-192 -720h-121z" />
    <glyph glyph-name="zero" unicode="0" horiz-adv-x="658" 
d="M329 -15q-115 0 -187 72t-72 187v232q0 115 72 187t187 72t187 -72t72 -187v-232q0 -115 -72 -187t-187 -72zM329 100q57 0 96.5 39.5t39.5 96.5v249q0 57 -39.5 96.5t-96.5 39.5t-96.5 -39.5t-39.5 -96.5v-249q0 -57 39.5 -96.5t96.5 -39.5z" />
    <glyph glyph-name="one" unicode="1" horiz-adv-x="438" 
d="M195 0v589l-135 -83v133l135 81h123v-720h-123z" />
    <glyph glyph-name="two" unicode="2" horiz-adv-x="596" 
d="M421 278l-184 -163h309v-114h-496v105l308 275q64 56 64 115q0 54 -33.5 89.5t-87.5 35.5q-55 0 -91.5 -37t-34.5 -87h-124q0 107 70 172.5t182 65.5q105 0 174 -67.5t69 -172.5q0 -71 -27 -113t-98 -104z" />
    <glyph glyph-name="three" unicode="3" horiz-adv-x="582" 
d="M348 450q81 -17 127.5 -79t46.5 -146q0 -101 -72 -169.5t-174 -68.5q-82 0 -147.5 46.5t-88.5 124.5l117 32q12 -42 44.5 -66t74.5 -24q52 1 87.5 36.5t35.5 88.5q0 54 -35 90t-89 36q-30 0 -62 -17l-55 95l207 177h-297v114h442v-114z" />
    <glyph glyph-name="four" unicode="4" horiz-adv-x="609" 
d="M369 0v119h-319v113l231 488h137l-230 -488h181v187h122v-187h68v-113h-68v-119h-122z" />
    <glyph glyph-name="five" unicode="5" horiz-adv-x="586" 
d="M305 462q101 0 166 -66.5t65 -168.5q0 -100 -75 -171t-177 -71q-82 0 -146.5 49.5t-87.5 128.5l116 31q11 -42 45.5 -67.5t76.5 -25.5q53 0 90 37t37 89t-37.5 89t-89.5 37q-69 0 -110 -47l-103 33l22 381h391v-113h-285l-10 -177q52 32 112 32z" />
    <glyph glyph-name="six" unicode="6" horiz-adv-x="622" 
d="M337 463q101 0 166 -67t65 -169q0 -101 -73 -171.5t-176 -70.5q-107 0 -178 73.5t-71 187.5v219q0 123 72 196t191 73q115 0 190 -76l-87 -85q-42 48 -103 48t-100.5 -41.5t-39.5 -97.5v-74q61 55 144 55zM319 100q53 0 90 37t37 90t-37 90t-89 37t-89.5 -37t-37.5 -90
q0 -52 37 -89.5t89 -37.5z" />
    <glyph glyph-name="seven" unicode="7" horiz-adv-x="534" 
d="M107 0l247 606h-314v114h444v-114l-247 -606h-130z" />
    <glyph glyph-name="eight" unicode="8" horiz-adv-x="612" 
d="M471 386q81 -63 81 -173q0 -100 -69 -164t-177 -64t-177 64t-69 164q0 109 81 173q-62 60 -62 145q0 92 63 148t164 56t164 -56t63 -148q0 -85 -62 -145zM306 622q-46 0 -73 -23.5t-27 -67.5t27 -66.5t73 -22.5t72.5 22.5t26.5 66.5q0 45 -26.5 68t-72.5 23zM306 99
q54 0 86.5 29.5t32.5 84.5q0 54 -32.5 84t-86.5 30t-86.5 -30t-32.5 -84q0 -55 32 -84.5t87 -29.5z" />
    <glyph glyph-name="nine" unicode="9" horiz-adv-x="622" 
d="M303 734q107 0 178 -73.5t71 -187.5v-219q0 -122 -72 -195.5t-190 -73.5q-117 0 -191 77l87 84q42 -48 104 -48q60 0 99.5 41.5t39.5 97.5v74q-60 -54 -144 -54q-101 0 -166 66.5t-65 168.5q0 101 73.5 171.5t175.5 70.5zM302 365q52 0 89.5 37.5t37.5 89.5t-37 89.5
t-89 37.5q-53 0 -90 -37.5t-37 -89.5q0 -53 37 -90t89 -37z" />
    <glyph glyph-name="colon" unicode=":" horiz-adv-x="343" 
d="M111 352v123h123v-123h-123zM110 65v123h123v-123h-123z" />
    <glyph glyph-name="semicolon" unicode=";" horiz-adv-x="343" 
d="M110 417v123h123v-123h-123zM110 -127l7 51q33 -2 47.5 19t9.5 57h-64v128h123v-133q0 -67 -31.5 -99.5t-91.5 -22.5z" />
    <glyph glyph-name="less" unicode="&#x3c;" horiz-adv-x="637" 
d="M380 75l-240 240l240 240l75 -74l-171 -166l171 -166z" />
    <glyph glyph-name="equal" unicode="=" horiz-adv-x="750" 
d="M120 407v95h510v-95h-510zM120 218v95h510v-95h-510z" />
    <glyph glyph-name="greater" unicode="&#x3e;" horiz-adv-x="638" 
d="M257 75l-75 74l171 166l-171 166l75 74l240 -240z" />
    <glyph glyph-name="question" unicode="?" horiz-adv-x="553" 
d="M201 195q0 76 29 127q12 23 27.5 39.5t40.5 36.5t44 40q34 38 34 93q0 34 -16 56q-27 34 -83 34q-47 0 -72 -22q-30 -24 -28 -68h-127q12 109 86 161q57 42 136 42q125 0 185 -73q46 -52 46 -127q0 -91 -78 -172q-12 -12 -29.5 -28.5t-29 -29t-19.5 -24.5
q-13 -22 -16 -37t-3 -48h-127zM201 0v133h127v-133h-127z" />
    <glyph glyph-name="at" unicode="@" horiz-adv-x="914" 
d="M452 645q182 0 283 -103.5t99 -255.5q-3 -206 -161 -206q-75 0 -113 49q-42 -46 -114 -46q-80 0 -130.5 51.5t-50.5 133.5q0 83 52 133.5t131 50.5q55 0 102 -31v17h74l-2 -188q0 -74 52 -74q25 0 38 16t16 36t4 57q1 60 -16.5 107.5t-45 76.5t-64.5 48t-73 26.5t-73 7.5
q-134 0 -208.5 -79.5t-70.5 -212.5q4 -126 79.5 -197.5t199.5 -71.5q64 0 119 23l32 -89q-71 -29 -156 -29q-165 0 -270 102t-105 259q0 186 106 287.5t266 101.5zM453 179q81 0 81 89t-78 89q-45 0 -67.5 -23.5t-22.5 -65.5t22.5 -65.5t64.5 -23.5z" />
    <glyph glyph-name="A" unicode="A" horiz-adv-x="671" 
d="M527 0l-50 156h-284l-49 -156h-124l227 720h177l227 -720h-124zM229 269h212l-107 335z" />
    <glyph glyph-name="B" unicode="B" horiz-adv-x="631" 
d="M495 379q51 -21 78.5 -65t27.5 -100q0 -98 -56 -156t-160 -58h-315v720h286q102 0 157 -59t55 -139q0 -99 -73 -143zM192 607v-174h162q41 0 66 22.5t25 64.5q0 38 -24.5 62.5t-66.5 24.5h-162zM370 114q48 0 78.5 28.5t30.5 75.5q0 45 -28.5 73.5t-77.5 28.5h-181v-206
h178z" />
    <glyph glyph-name="C" unicode="C" horiz-adv-x="738" 
d="M375 -15q-160 0 -252.5 103t-92.5 272t92.5 272t252.5 103q122 0 205.5 -61t117.5 -169l-121 -33q-45 149 -202 149q-106 0 -162 -70t-56 -191q-1 -121 55.5 -191t162.5 -70q157 0 202 150l121 -34q-34 -108 -117.5 -169t-205.5 -61z" />
    <glyph glyph-name="D" unicode="D" horiz-adv-x="700" 
d="M70 0v720h229q55 0 88 -4q125 -15 195 -114.5t70 -241.5t-70 -241t-195 -115q-33 -4 -88 -4h-229zM193 114h106q56 0 80 5q72 14 109 81.5t37 159.5q0 93 -37 160t-109 81q-24 5 -80 5h-106v-492z" />
    <glyph glyph-name="E" unicode="E" horiz-adv-x="585" 
d="M70 0v720h465v-113h-345v-178h285v-112h-285v-204h345v-113h-465z" />
    <glyph glyph-name="F" unicode="F" horiz-adv-x="523" 
d="M70 0v720h433v-120h-313v-180h253v-120h-253v-300h-120z" />
    <glyph glyph-name="G" unicode="G" horiz-adv-x="732" 
d="M367 -15q-146 0 -241.5 100.5t-95.5 274.5q0 173 94.5 274t242.5 101q257 0 316 -235l-123 -19q-21 65 -68 102t-117 38q-106 1 -161.5 -69t-55.5 -192q-1 -121 55 -190.5t162 -70.5q82 -2 133 45t64 139h-127v95h255q2 -22 2 -43q0 -155 -90.5 -252.5t-244.5 -97.5z" />
    <glyph glyph-name="H" unicode="H" horiz-adv-x="722" 
d="M70 0v720h120v-303h341v303h121v-720h-121v304h-341v-304h-120z" />
    <glyph glyph-name="I" unicode="I" 
d="M80 0v720h120v-720h-120z" />
    <glyph glyph-name="J" unicode="J" horiz-adv-x="501" 
d="M214 -15q-81 0 -136.5 42.5t-77.5 116.5l119 29q5 -31 31.5 -53t58.5 -22q24 0 47 12t33 36q10 21 10 89v485h122v-485v-21v-20v-17t-1 -17t-2 -15t-3 -16t-4.5 -14.5t-6 -15.5l-7.5 -15q-57 -99 -183 -99z" />
    <glyph glyph-name="K" unicode="K" horiz-adv-x="647" 
d="M70 0v720h120v-334l288 334h148l-310 -353l331 -367h-153l-304 336v-336h-120z" />
    <glyph glyph-name="L" unicode="L" horiz-adv-x="533" 
d="M80 0v720h120v-607h318v-113h-438z" />
    <glyph glyph-name="M" unicode="M" horiz-adv-x="855" 
d="M70 0v720h108l250 -510l249 510h108v-720h-113v462l-220 -462h-48l-221 462v-462h-113z" />
    <glyph glyph-name="N" unicode="N" horiz-adv-x="718" 
d="M70 0v720h122l334 -507v507h122v-720h-122l-334 508v-508h-122z" />
    <glyph glyph-name="O" unicode="O" horiz-adv-x="749" 
d="M375 -15q-160 0 -252.5 103t-92.5 272t92.5 272t252.5 103t252 -102.5t92 -272.5t-92 -272.5t-252 -102.5zM375 99q106 -1 161.5 69.5t55.5 191.5t-55.5 190.5t-161.5 70.5t-161.5 -69t-55.5 -192q-1 -121 55 -190.5t162 -70.5z" />
    <glyph glyph-name="P" unicode="P" horiz-adv-x="639" 
d="M70 0v720h298q32 0 57 -4q91 -14 137.5 -75.5t46.5 -154.5q0 -92 -47 -154t-137 -77q-25 -4 -57 -4h-178v-251h-120zM190 364h173q27 0 45 5q41 10 60 43.5t19 73.5t-19 73t-60 43q-18 5 -45 5h-173v-243z" />
    <glyph glyph-name="Q" unicode="Q" horiz-adv-x="749" 
d="M719 360q0 -145 -68 -242l57 -57l-74 -76l-58 58q-85 -58 -201 -58q-160 0 -252.5 103t-92.5 272t92.5 272t252.5 103t252 -102.5t92 -272.5zM375 99q65 -1 116 29l-63 62l76 75l57 -57q31 61 31 152q0 121 -55.5 190.5t-161.5 70.5t-161.5 -69t-55.5 -192
q-1 -121 55 -190.5t162 -70.5z" />
    <glyph glyph-name="R" unicode="R" horiz-adv-x="660" 
d="M620 0h-136l-122 251h-172v-251h-120v720h298q32 0 57 -4q91 -14 137.5 -75.5t46.5 -154.5q0 -75 -31 -131t-91 -82zM190 607v-243h173q27 0 45 5q41 10 60 43.5t19 73.5t-19 73t-60 43q-18 5 -45 5h-173z" />
    <glyph glyph-name="S" unicode="S" horiz-adv-x="657" 
d="M337 -15q-119 0 -200.5 61.5t-98.5 166.5l126 19q15 -63 64 -98.5t116 -35.5q61 0 105 28t44 75q0 59 -80 84l-186 54q-30 9 -53 20t-50.5 31.5t-42.5 54.5t-15 79q0 101 74.5 156t189.5 54q111 -1 185 -56t99 -155l-130 -22q-12 55 -55.5 87t-100.5 33q-55 2 -95 -24
t-40 -67q0 -36 28.5 -55t75.5 -32l129 -35q30 -9 48 -15t49 -22t49 -35t32.5 -52t14.5 -74q0 -107 -82 -166t-200 -59z" />
    <glyph glyph-name="T" unicode="T" horiz-adv-x="607" 
d="M243 0v607h-233v113h587v-113h-233v-607h-121z" />
    <glyph glyph-name="U" unicode="U" horiz-adv-x="720" 
d="M360 -15q-130 0 -210 77.5t-80 205.5v451l122 1v-449q0 -79 49.5 -126t118.5 -47t118.5 47.5t49.5 125.5v449h122v-452q0 -128 -80 -205.5t-210 -77.5z" />
    <glyph glyph-name="V" unicode="V" horiz-adv-x="641" 
d="M232 0l-227 720h124l190 -603l193 603h124l-227 -720h-177z" />
    <glyph glyph-name="W" unicode="W" horiz-adv-x="976" 
d="M222 0l-210 720h126l143 -520l143 519l126 1l144 -520l144 520h126l-210 -720h-119l-148 512l-146 -512h-119z" />
    <glyph glyph-name="X" unicode="X" horiz-adv-x="656" 
d="M10 0l244 364l-237 356h147l165 -253l162 253h149l-237 -356l243 -364h-148l-169 262l-171 -262h-148z" />
    <glyph glyph-name="Y" unicode="Y" horiz-adv-x="612" 
d="M245 0v295l-245 425h141l165 -287l165 287h141l-245 -425v-295h-122z" />
    <glyph glyph-name="Z" unicode="Z" horiz-adv-x="664" 
d="M50 0v17l355 590h-330v113h539v-17l-353 -589h344v-114h-555z" />
    <glyph glyph-name="bracketleft" unicode="[" horiz-adv-x="424" 
d="M140 -212v1109h219v-107h-112v-895h112v-107h-219z" />
    <glyph glyph-name="backslash" unicode="\" horiz-adv-x="433" 
d="M181 720l192 -720h-121l-192 720h121z" />
    <glyph glyph-name="bracketright" unicode="]" horiz-adv-x="424" 
d="M284 -212h-218v107h111v895h-111v107h218v-1109z" />
    <glyph glyph-name="asciicircum" unicode="^" horiz-adv-x="680" 
d="M105 495l240 240l241 -240l-75 -74l-166 170l-165 -171z" />
    <glyph glyph-name="underscore" unicode="_" horiz-adv-x="660" 
d="M0 -122v95h660v-95h-660z" />
    <glyph glyph-name="grave" unicode="`" horiz-adv-x="539" 
d="M388 785l-268 96l30 88l269 -96z" />
    <glyph glyph-name="a" unicode="a" horiz-adv-x="576" 
d="M496 455q20 -40 20 -124v-331h-105v73q-67 -88 -190 -88q-85 0 -133 46.5t-48 116.5q0 119 123 162q61 19 235 43q-3 48 -29.5 70t-81.5 22q-40 0 -72.5 -18.5t-44.5 -57.5l-111 35q21 71 78.5 111t150.5 40q157 0 208 -100zM384 171q11 26 13 84q-135 -22 -173 -34
q-66 -25 -66 -71q0 -31 22.5 -50t64.5 -19q56 0 92.5 28t46.5 62z" />
    <glyph glyph-name="b" unicode="b" horiz-adv-x="616" 
d="M325 555q113 0 182 -80t69 -205q0 -123 -68 -204t-179 -81q-93 0 -153 54v-39h-107v720h121v-207q56 42 135 42zM311 93q68 0 103 49.5t35 127.5t-36 127.5t-106 49.5q-66 0 -98.5 -47.5t-32.5 -129.5q0 -177 135 -177z" />
    <glyph glyph-name="c" unicode="c" horiz-adv-x="576" 
d="M305 -15q-122 0 -193 79.5t-72 205.5q1 126 73 205.5t193 79.5q92 0 155.5 -46t83.5 -126l-120 -33q-13 43 -45.5 67.5t-74.5 24.5q-68 0 -102.5 -47t-34.5 -125q0 -79 35 -125.5t102 -46.5q88 0 117 85l123 -27q-25 -82 -87.5 -126.5t-152.5 -44.5z" />
    <glyph glyph-name="d" unicode="d" horiz-adv-x="617" 
d="M426 720h121v-720h-107v39q-62 -54 -153 -54q-111 0 -179 81t-68 204q0 125 69 205t182 80q79 0 135 -42v207zM305 93q135 0 135 177q0 82 -32.5 129.5t-98.5 47.5q-69 0 -105 -49.5t-36 -127.5q0 -79 35 -128t102 -49z" />
    <glyph glyph-name="e" unicode="e" horiz-adv-x="602" 
d="M170 236q7 -67 42.5 -102.5t96.5 -35.5q91 0 126 77l119 -36q-30 -73 -94.5 -113.5t-144.5 -40.5q-122 0 -198.5 78t-76.5 201q0 132 74.5 211.5t194.5 79.5q125 0 193 -86.5t58 -232.5h-390zM314 450q-120 0 -141 -122h265q-8 63 -38 92.5t-86 29.5z" />
    <glyph glyph-name="f" unicode="f" horiz-adv-x="378" 
d="M306 637q-68 0 -68 -62v-35h130v-94h-130v-446h-121v446h-87v94h87v9q0 31 1 47.5t9.5 44.5t25.5 47q19 22 47.5 33t46 12.5t46.5 1.5h8h67v-98h-62z" />
    <glyph glyph-name="g" unicode="g" horiz-adv-x="616" 
d="M440 540h106v-566q0 -42 -7 -76q-18 -76 -82.5 -114.5t-159.5 -38.5q-68 0 -125.5 31t-89.5 86l112 55q29 -57 104 -57q58 0 93.5 30t34.5 86v52q-57 -43 -139 -43q-111 0 -179 81t-68 204q0 125 69 205t182 80q90 0 149 -53v38zM305 93q135 0 135 177q0 82 -32.5 129.5
t-98.5 47.5q-69 0 -105 -49.5t-36 -127.5q0 -79 35 -128t102 -49z" />
    <glyph glyph-name="h" unicode="h" horiz-adv-x="626" 
d="M353 555q56 0 98 -21t63 -49t34 -67t15.5 -64.5t2.5 -51.5v-302h-122v260q0 182 -127 182q-54 0 -90 -37t-36 -127v-278h-122v720h108v-240q62 75 176 75z" />
    <glyph glyph-name="i" unicode="i" 
d="M80 624v110h120v-110h-120zM80 0v540h120v-540h-120z" />
    <glyph glyph-name="j" unicode="j" horiz-adv-x="288" 
d="M96 624v111h121v-111h-121zM-10 -240v113h26q43 0 61.5 20t18.5 61v586h121v-640q0 -65 -38.5 -102.5t-106.5 -37.5h-82z" />
    <glyph glyph-name="k" unicode="k" horiz-adv-x="538" 
d="M69 0l1 720h122v-440l198 260h150l-209 -270l227 -270h-159l-207 260v-260h-123z" />
    <glyph glyph-name="l" unicode="l" 
d="M80 0v735h120v-735h-120z" />
    <glyph glyph-name="m" unicode="m" horiz-adv-x="899" 
d="M654 553q88 0 136.5 -53t48.5 -142v-358h-120v328q0 55 -27.5 86.5t-74.5 31.5q-45 0 -73.5 -30.5t-28.5 -83.5v-332h-121l1 327q0 55 -28 87t-75 32q-46 0 -74 -31.5t-28 -82.5v-332h-121v540h107v-58q56 71 156 71q111 0 158 -85q25 40 68.5 62.5t95.5 22.5z" />
    <glyph glyph-name="n" unicode="n" horiz-adv-x="626" 
d="M353 555q56 0 98 -21t63 -49t34 -67t15.5 -64.5t2.5 -51.5v-302h-122v260q0 182 -127 182q-54 0 -90 -37t-36 -127v-278h-122v540h108v-60q62 75 176 75z" />
    <glyph glyph-name="o" unicode="o" horiz-adv-x="618" 
d="M309 -15q-121 0 -195 79.5t-74 205.5q0 127 74.5 206t194.5 79q121 0 195 -79.5t74 -205.5t-74.5 -205.5t-194.5 -79.5zM309 98q69 0 105.5 47t36.5 125q0 80 -36.5 126t-105.5 46q-70 0 -105.5 -46t-35.5 -126t36 -126t105 -46z" />
    <glyph glyph-name="p" unicode="p" horiz-adv-x="616" 
d="M325 555q113 0 182 -80t69 -205q0 -123 -68 -204t-179 -81q-80 0 -139 43v-268h-121v780h107v-38q59 53 149 53zM311 93q68 0 103 49.5t35 127.5t-36 127.5t-106 49.5q-66 0 -98.5 -47.5t-32.5 -129.5q0 -177 135 -177z" />
    <glyph glyph-name="q" unicode="q" horiz-adv-x="617" 
d="M440 540h107v-780h-121v268q-57 -43 -139 -43q-111 0 -179 81t-68 204q0 125 69 205t182 80q90 0 149 -53v38zM305 93q135 0 135 177q0 82 -32.5 129.5t-98.5 47.5q-69 0 -105 -49.5t-36 -127.5q0 -79 35 -128t102 -49z" />
    <glyph glyph-name="r" unicode="r" horiz-adv-x="399" 
d="M231 512q60 42 143 28v-112q-59 17 -112 -13q-71 -39 -71 -141v-274h-121v540h107v-86q22 38 54 58z" />
    <glyph glyph-name="s" unicode="s" horiz-adv-x="542" 
d="M279 -15q-100 0 -162.5 45t-76.5 127l123 19q9 -41 42 -63.5t82 -22.5q43 0 67 17t24 47q0 28 -23 41t-114 37q-102 27 -142.5 61.5t-40.5 95.5q0 76 57.5 121t154.5 45q94 0 155.5 -43t71.5 -116l-123 -22q-5 34 -31.5 54t-70.5 23q-42 2 -68 -13.5t-26 -42.5
q0 -24 26.5 -37.5t120.5 -37.5q97 -25 136.5 -61t39.5 -99q0 -82 -59 -128.5t-163 -46.5z" />
    <glyph glyph-name="t" unicode="t" horiz-adv-x="433" 
d="M228 446v-219q0 -79 11 -97q29 -47 148 -29v-101q-78 -19 -153 -3.5t-105 69.5q-6 11 -10 24.5t-6.5 22t-3.5 26.5t-1 24v29.5v28.5v225h-98v94h98v150h120v-150h159v-94h-159z" />
    <glyph glyph-name="u" unicode="u" horiz-adv-x="626" 
d="M434 540h122v-540h-107v60q-62 -75 -177 -75q-56 0 -97.5 21t-63 49t-34 67t-15 65t-2.5 52v301h122v-260q0 -182 126 -182q54 0 90 37.5t36 127.5v277z" />
    <glyph glyph-name="v" unicode="v" horiz-adv-x="553" 
d="M216 0l-196 540h121l136 -391l135 391h121l-196 -540h-121z" />
    <glyph glyph-name="w" unicode="w" horiz-adv-x="802" 
d="M185 0l-165 541l119 -1l106 -346l106 346h101l107 -346l105 346h118l-165 -540h-101l-115 372l-122 -372h-94z" />
    <glyph glyph-name="x" unicode="x" horiz-adv-x="554" 
d="M10 0l198 273l-194 267h142l122 -173l119 173h142l-193 -267l198 -273h-142l-124 179l-126 -179h-142z" />
    <glyph glyph-name="y" unicode="y" horiz-adv-x="559" 
d="M434 540h121l-301 -780h-113l89 243l-218 537h125l151 -386z" />
    <glyph glyph-name="z" unicode="z" horiz-adv-x="534" 
d="M20 0v17l286 417h-257v106h445v-17l-285 -417h272v-106h-461z" />
    <glyph glyph-name="braceleft" unicode="{" horiz-adv-x="449" 
d="M340 -212q-64 0 -102 38t-38 102v300q0 12 -6 20l-44 63q-21 31 0 64l44 62q6 9 6 20v300q0 65 38 102.5t102 37.5h68v-114h-59q-15 0 -25 -10t-10 -24v-292q0 -47 -27 -85l-22 -29l22 -30q27 -37 27 -85v-292q0 -15 10 -25t25 -10h59v-113h-68z" />
    <glyph glyph-name="bar" unicode="|" horiz-adv-x="300" 
d="M90 0v720h120v-720h-120z" />
    <glyph glyph-name="braceright" unicode="}" horiz-adv-x="449" 
d="M109 -212h-68v113h60q14 0 24 10t10 25v292q0 46 28 85l21 30l-21 29q-28 39 -28 85v292q0 14 -10 24t-24 10h-60v114h68q65 0 102.5 -37.5t37.5 -102.5v-300q0 -11 6 -20l44 -62q23 -33 0 -64l-44 -63q-6 -8 -6 -20v-300q0 -64 -37.5 -102t-102.5 -38z" />
    <glyph glyph-name="asciitilde" unicode="~" horiz-adv-x="716" 
d="M468 204q-34 0 -67.5 18t-55.5 40t-47 40t-43 18q-23 0 -31.5 -24.5t1.5 -72.5h-101q-15 88 20.5 145.5t101.5 57.5q34 0 68.5 -18t57.5 -40t47.5 -40t40.5 -18q23 0 31.5 27.5t-1.5 70.5h102q16 -85 -20.5 -144.5t-103.5 -59.5z" />
    <glyph glyph-name="uni00A0" unicode="&#xa0;" horiz-adv-x="200" 
 />
    <glyph glyph-name="exclamdown" unicode="&#xa1;" horiz-adv-x="360" 
d="M120 540h120v-111h-120v111zM120 360h120v-540h-120v540z" />
    <glyph glyph-name="cent" unicode="&#xa2;" horiz-adv-x="576" 
d="M263 -29v92q-104 14 -163 91t-60 191q1 114 60.5 191t162.5 91v93h94v-94q72 -12 122 -56t66 -112l-120 -33q-13 43 -45.5 67.5t-74.5 24.5q-68 0 -102.5 -47t-34.5 -125q0 -79 35 -125.5t102 -46.5q88 0 117 85l123 -27q-44 -142 -188 -167v-93h-94z" />
    <glyph glyph-name="sterling" unicode="&#xa3;" horiz-adv-x="571" 
d="M248 305v-192h238v-113h-448v113h14q30 0 52 22.5t22 52.5v117h-88v113h88v125q0 82 59 137t145 55q138 0 203 -182l-109 -36q-30 104 -94 104q-36 0 -58.5 -23.5t-22.5 -60.5v-119h151v-113h-152z" />
    <glyph glyph-name="currency" unicode="&#xa4;" horiz-adv-x="670" 
d="M598 361q0 -78 -42 -142l84 -84l-80 -80l-84 84q-63 -41 -141 -41q-77 0 -140 41l-85 -84l-80 80l84 84q-41 65 -41 142q0 76 41 139l-84 84l80 81l84 -84q64 42 141 42q78 0 142 -42l83 84l80 -81l-83 -83q41 -65 41 -140zM175 360q0 -65 47 -112.5t113 -47.5t113 47.5
t47 112.5q0 66 -47 113t-113 47t-113 -46.5t-47 -113.5z" />
    <glyph glyph-name="yen" unicode="&#xa5;" horiz-adv-x="612" 
d="M612 720l-210 -364h109v-94h-144v-69h144v-94h-144v-99h-122v99h-144v94h144v69h-144v94h109l-210 364h141l165 -287l165 287h141z" />
    <glyph glyph-name="brokenbar" unicode="&#xa6;" horiz-adv-x="300" 
d="M90 313v407h120v-407h-120zM90 -204v407h120v-407h-120z" />
    <glyph glyph-name="section" unicode="&#xa7;" horiz-adv-x="542" 
d="M430 150q61 -38 61 -114q0 -83 -59 -129.5t-153 -46.5q-90 0 -151.5 43t-75.5 129l123 19q9 -41 40.5 -63.5t70.5 -22.5q34 0 58 16.5t24 47.5q0 30 -26 43t-111 35q-95 24 -139 58t-44 91q0 84 90 121q-79 39 -79 120t59.5 123.5t140.5 42.5q80 0 140 -42t70 -117
l-123 -22q-13 78 -91 78q-33 0 -54.5 -14.5t-21.5 -39.5q0 -10 3 -18t11.5 -14t16 -10.5t23 -9.5t26.5 -8t33 -8.5t35 -9.5q93 -26 134.5 -59t41.5 -96q0 -89 -73 -123zM168 273q0 -8 2 -14t6.5 -11.5t9 -9.5t14 -8.5t16.5 -7t21 -6.5t22.5 -6.5t26.5 -7t29 -7.5
q3 -1 8 -2.5t6 -1.5q51 25 51 72q0 29 -26.5 42.5t-111.5 35.5q-2 0 -2 1q-72 -26 -72 -69z" />
    <glyph glyph-name="dieresis" unicode="&#xa8;" horiz-adv-x="557" 
d="M120 840v110h110v-110h-110zM327 840v110h110v-110h-110z" />
    <glyph glyph-name="copyright" unicode="&#xa9;" horiz-adv-x="886" 
d="M443 -59q-171 0 -292 121t-121 292t121 292t292 121q172 0 292.5 -121t120.5 -292t-120.5 -292t-292.5 -121zM443 54q125 0 212.5 88t87.5 212t-87.5 212t-212.5 88t-212.5 -88t-87.5 -212t87.5 -212t212.5 -88zM451 141q-97 0 -150 66q-49 62 -49 147q0 87 49 146
q56 68 155 68q55 0 100 -27q59 -36 75 -103l-92 -25q-10 30 -33 49q-23 20 -56 20q-45 0 -76 -37q-24 -32 -24 -90q0 -56 24 -91q28 -36 78 -36q36 0 56 17q18 17 29 46l94 -20q-19 -60 -65 -96q-44 -34 -115 -34z" />
    <glyph glyph-name="ordfeminine" unicode="&#xaa;" horiz-adv-x="576" 
d="M496 455q20 -40 20 -124v-331h-105v73q-67 -88 -190 -88q-85 0 -133 46.5t-48 116.5q0 119 123 162q61 19 235 43q-3 48 -29.5 70t-81.5 22q-40 0 -72.5 -18.5t-44.5 -57.5l-111 35q21 71 78.5 111t150.5 40q157 0 208 -100zM384 171q11 26 13 84q-135 -22 -173 -34
q-66 -25 -66 -71q0 -31 22.5 -50t64.5 -19q56 0 92.5 28t46.5 62z" />
    <glyph glyph-name="guillemotleft" unicode="&#xab;" horiz-adv-x="586" 
d="M256 49l-176 221l176 222l64 -51l-136 -171l136 -171zM460 49l-176 221l176 222l65 -51l-137 -171l137 -171z" />
    <glyph glyph-name="logicalnot" unicode="&#xac;" horiz-adv-x="600" 
d="M446 186v117h-386v95h480v-212h-94z" />
    <glyph glyph-name="uni00AD" unicode="&#xad;" horiz-adv-x="420" 
d="M60 268v95h300v-95h-300z" />
    <glyph glyph-name="registered" unicode="&#xae;" horiz-adv-x="655" 
d="M327 273q-106 0 -181.5 76t-75.5 182t75.5 181.5t181.5 75.5t182 -75.5t76 -181.5q0 -107 -75.5 -182.5t-182.5 -75.5zM328 353q73 0 125.5 52.5t52.5 125.5t-52.5 125t-125.5 52q-74 0 -126 -52t-52 -125t52.5 -125.5t125.5 -52.5zM245 413v237h100q36 0 57.5 -21.5
t23.5 -57.5q0 -47 -42 -69l44 -89h-49l-39 81h-52v-81h-43zM288 535h58q15 0 25 10t10 26q0 37 -35 37h-58v-73z" />
    <glyph glyph-name="macron" unicode="&#xaf;" horiz-adv-x="507" 
d="M120 840v94h267v-94h-267z" />
    <glyph glyph-name="degree" unicode="&#xb0;" horiz-adv-x="450" 
d="M210 375q-74 0 -127 52.5t-53 127.5q0 73 54 126.5t126 53.5q74 0 127 -52.5t53 -127.5t-53 -127.5t-127 -52.5zM210 478q32 0 54.5 23t22.5 54t-22.5 54t-54.5 23t-54.5 -23t-22.5 -54t22.5 -54t54.5 -23z" />
    <glyph glyph-name="plusminus" unicode="&#xb1;" horiz-adv-x="600" 
d="M253 220v113h-193v95h193v112h95v-112h192v-95h-192v-113h-95zM60 65v94h480v-94h-480z" />
    <glyph glyph-name="uni00B2" unicode="&#xb2;" horiz-adv-x="412" 
d="M283 443l-112 -100h191v-73h-312v68l192 171q40 36 40 71q0 33 -20.5 55t-53.5 22q-34 0 -56.5 -22.5t-20.5 -53.5h-80q0 68 43.5 108.5t115.5 40.5q66 0 109 -42.5t43 -108.5q0 -45 -17 -71t-62 -65z" />
    <glyph glyph-name="uni00B3" unicode="&#xb3;" horiz-adv-x="404" 
d="M237 550q50 -11 78.5 -50t28.5 -91q0 -64 -45.5 -107t-109.5 -43q-52 0 -93.5 29.5t-55.5 79.5l76 20q7 -26 27 -40.5t46 -14.5q32 1 54 22.5t22 53.5q0 33 -21.5 55t-54.5 22q-20 0 -38 -10l-36 61l127 109h-184v74h279v-74z" />
    <glyph glyph-name="acute" unicode="&#xb4;" horiz-adv-x="539" 
d="M151 785l-31 88l268 96l31 -88z" />
    <glyph glyph-name="uni00B5" unicode="&#xb5;" horiz-adv-x="635" 
d="M69 -240v780h122v-260q0 -182 126 -182q55 0 91 37.5t36 127.5v277h121v-540h-107v61q-62 -76 -176 -76q-65 0 -106 29v-254h-107z" />
    <glyph glyph-name="paragraph" unicode="&#xb6;" horiz-adv-x="715" 
d="M337 -141v392h-48q-22 0 -57 4q-89 13 -136.5 75.5t-47.5 155.5q0 92 47 154.5t137 75.5q26 4 57 4h168v-861h-120zM547 -141v861h120v-861h-120z" />
    <glyph glyph-name="periodcentered" unicode="&#xb7;" horiz-adv-x="627" 
d="M315 242q-32 0 -53.5 21t-21.5 52t21.5 52t53.5 21q30 0 51 -21t21 -52t-21 -52t-51 -21z" />
    <glyph glyph-name="cedilla" unicode="&#xb8;" horiz-adv-x="414" 
d="M189 -242q-34 0 -69 19l27 71q18 -7 32 -7t22.5 8t8.5 19q0 12 -10.5 21t-21.5 13t-33 11l35 102l73 1l-20 -58q61 -30 61 -93q0 -46 -30.5 -76.5t-74.5 -30.5z" />
    <glyph glyph-name="uni00B9" unicode="&#xb9;" horiz-adv-x="344" 
d="M144 270v365l-84 -51v85l84 51h79v-450h-79z" />
    <glyph glyph-name="ordmasculine" unicode="&#xba;" horiz-adv-x="618" 
d="M309 -15q-121 0 -195 79.5t-74 205.5q0 127 74.5 206t194.5 79q121 0 195 -79.5t74 -205.5t-74.5 -205.5t-194.5 -79.5zM309 98q69 0 105.5 47t36.5 125q0 80 -36.5 126t-105.5 46q-70 0 -105.5 -46t-35.5 -126t36 -126t105 -46z" />
    <glyph glyph-name="guillemotright" unicode="&#xbb;" horiz-adv-x="586" 
d="M126 49l-64 50l136 171l-136 171l64 51l176 -222zM330 49l-64 50l136 171l-136 171l64 51l176 -222z" />
    <glyph glyph-name="onequarter" unicode="&#xbc;" horiz-adv-x="1035" 
d="M261 0l-70 53l493 673l70 -53zM144 270v365l-84 -51v85l84 51h79v-450h-79zM795 0v73h-199v74l144 303h89l-143 -303h109v115h79v-115h41v-74h-41v-73h-79z" />
    <glyph glyph-name="onehalf" unicode="&#xbd;" horiz-adv-x="1014" 
d="M684 726l71 -53l-493 -673l-70 53zM223 270h-79v365l-84 -51v85l84 51h79v-450zM885 173l-112 -100h191v-73h-312v68l192 171q40 36 40 71q0 33 -20.5 55t-53.5 22q-34 0 -56.5 -22.5t-20.5 -53.5h-80q0 68 43.5 108.5t115.5 40.5q66 0 109 -42.5t43 -108.5
q0 -45 -17 -71t-62 -65z" />
    <glyph glyph-name="threequarters" unicode="&#xbe;" horiz-adv-x="1028" 
d="M745 726l70 -53l-493 -673l-70 53zM344 409q0 -64 -45.5 -107t-109.5 -43q-52 0 -93.5 29.5t-55.5 79.5l76 20q7 -26 27 -40.5t46 -14.5q32 1 54 22.5t22 53.5q0 33 -21.5 55t-54.5 22q-20 0 -38 -10l-36 61l127 109h-184v74h279v-74l-100 -96q50 -11 78.5 -50t28.5 -91z
M926 147h42v-74h-42v-73h-78v73h-199v74l143 303h90l-144 -303h110v115h78v-115z" />
    <glyph glyph-name="questiondown" unicode="&#xbf;" horiz-adv-x="553" 
d="M352 540v-132h-127v132h127zM353 345q0 -76 -29 -127q-12 -23 -28 -39.5t-41 -37t-44 -39.5q-33 -37 -33 -93q0 -36 16 -56q25 -34 83 -34q46 0 71 22q30 24 28 68h127q-12 -109 -86 -161q-57 -42 -136 -42q-125 0 -185 73q-46 52 -46 127q0 91 78 172q12 12 29.5 28.5
t29.5 29t19 24.5q13 22 16 37t3 48h128z" />
    <glyph glyph-name="Agrave" unicode="&#xc0;" horiz-adv-x="671" 
d="M494 873l-32 -88l-267 96l30 88zM527 0l-49 156h-283l-50 -156h-125l227 720h177l227 -720h-124zM230 269h212l-105 336z" />
    <glyph glyph-name="Aacute" unicode="&#xc1;" horiz-adv-x="671" 
d="M476 881l-267 -96l-31 88l268 96zM527 0l-50 156h-284l-49 -156h-124l227 720h177l227 -720h-124zM229 269h212l-107 336z" />
    <glyph glyph-name="Acircumflex" unicode="&#xc2;" horiz-adv-x="671" 
d="M336 855l-127 -69l-44 83l171 93l170 -93l-44 -83zM527 0l-50 156h-284l-49 -156h-124l227 720h177l227 -720h-124zM229 269h212l-107 336z" />
    <glyph glyph-name="Atilde" unicode="&#xc3;" horiz-adv-x="671" 
d="M414 825q-30 0 -59.5 20.5t-53 41t-38.5 20.5q-36 0 -21 -69h-72q-11 63 14.5 103.5t72.5 40.5q24 0 48.5 -13t40.5 -28t33.5 -28t29.5 -13q16 0 22 19.5t-1 49.5h72q11 -60 -14.5 -102t-73.5 -42zM527 0l-50 156h-284l-49 -156h-124l227 720h177l227 -720h-124zM229 269
h212l-107 335z" />
    <glyph glyph-name="Adieresis" unicode="&#xc4;" horiz-adv-x="671" 
d="M288 950v-110h-110v110h110zM494 950v-110h-110v110h110zM527 0l-50 156h-284l-49 -156h-124l227 720h177l227 -720h-124zM229 269h212l-107 336z" />
    <glyph glyph-name="Aring" unicode="&#xc5;" horiz-adv-x="671" 
d="M527 0l-50 156h-284l-49 -156h-124l213 677q-43 43 -43 103t43 103t103 43t103 -43t43 -103q0 -62 -44 -104l213 -676h-124zM336 840q-25 0 -42.5 -17.5t-17.5 -42.5t17.5 -42.5t42.5 -17.5t42.5 17.5t17.5 42.5t-17.5 42.5t-42.5 17.5zM229 269h212l-107 336z" />
    <glyph glyph-name="AE" unicode="&#xc6;" horiz-adv-x="938" 
d="M888 607h-344v-178h284v-112h-284v-204h344v-113h-465v156h-230l-49 -156h-124l227 720h641v-113zM228 269h195v338h-89z" />
    <glyph glyph-name="Ccedilla" unicode="&#xc7;" horiz-adv-x="738" 
d="M375 99q157 0 202 150l121 -34q-30 -98 -102.5 -158t-177.5 -70l-10 -29q61 -30 61 -93q0 -46 -31 -76.5t-74 -30.5q-36 0 -69 19l26 71q20 -7 32 -7q14 0 23 8.5t9 18.5q0 12 -10.5 21t-21.5 13.5t-34 10.5l26 73q-147 10 -231 111.5t-84 262.5q0 169 92.5 272
t252.5 103q122 0 205.5 -61t117.5 -169l-121 -33q-45 149 -202 149q-106 0 -162 -70t-56 -191q-1 -121 55.5 -191t162.5 -70z" />
    <glyph glyph-name="Egrave" unicode="&#xc8;" horiz-adv-x="585" 
d="M426 785l-267 96l30 88l268 -96zM70 0v720h465v-113h-345v-178h285v-112h-285v-204h345v-113h-465z" />
    <glyph glyph-name="Eacute" unicode="&#xc9;" horiz-adv-x="585" 
d="M177 785l-31 88l268 96l30 -88zM70 0v720h465v-113h-345v-178h285v-112h-285v-204h345v-113h-465z" />
    <glyph glyph-name="Ecircumflex" unicode="&#xca;" horiz-adv-x="585" 
d="M171 786l-44 83l171 93l170 -93l-44 -83l-126 69zM70 0v720h465v-113h-345v-178h285v-112h-285v-204h345v-113h-465z" />
    <glyph glyph-name="Edieresis" unicode="&#xcb;" horiz-adv-x="585" 
d="M141 840v110h110v-110h-110zM348 840v110h110v-110h-110zM70 0v720h465v-113h-345v-178h285v-112h-285v-204h345v-113h-465z" />
    <glyph glyph-name="Igrave" unicode="&#xcc;" 
d="M263 785l-268 96l31 88l268 -96zM80 0v720h120v-720h-120z" />
    <glyph glyph-name="Iacute" unicode="&#xcd;" 
d="M17 785l-32 88l269 96l30 -88zM80 0v720h120v-720h-120z" />
    <glyph glyph-name="Icircumflex" unicode="&#xce;" 
d="M13 786l-43 83l170 93l171 -93l-44 -83l-127 69zM80 0v720h120v-720h-120z" />
    <glyph glyph-name="Idieresis" unicode="&#xcf;" 
d="M-18 840v110h110v-110h-110zM189 840v110h110v-110h-110zM80 0v720h120v-720h-120z" />
    <glyph glyph-name="Eth" unicode="&#xd0;" horiz-adv-x="702" 
d="M389 716q125 -15 195 -114.5t70 -241.5t-70 -241t-195 -115q-34 -4 -88 -4h-229v313h-62v95h62v312h229q54 0 88 -4zM381 119q72 14 108.5 81.5t36.5 159.5q0 93 -37 160t-108 81q-25 5 -80 5h-107v-198h154v-95h-154v-199h107q55 0 80 5z" />
    <glyph glyph-name="Ntilde" unicode="&#xd1;" horiz-adv-x="718" 
d="M448 800q-30 0 -59.5 20.5t-52.5 41t-39 20.5q-36 0 -21 -69h-72q-11 63 14.5 103.5t72.5 40.5q24 0 48.5 -13t40.5 -28t33.5 -28t29.5 -13q16 0 22 19.5t-1 49.5h72q11 -60 -14.5 -102t-73.5 -42zM70 0v720h122l334 -507v507h122v-720h-122l-334 508v-508h-122z" />
    <glyph glyph-name="Ograve" unicode="&#xd2;" horiz-adv-x="749" 
d="M523 785l-267 96l30 88l269 -96zM375 -15q-160 0 -252.5 103t-92.5 272t92.5 272t252.5 103t252 -102.5t92 -272.5t-92 -272.5t-252 -102.5zM375 99q106 -1 161.5 69.5t55.5 191.5t-55.5 190.5t-161.5 70.5t-161.5 -69t-55.5 -192q-1 -121 55 -190.5t162 -70.5z" />
    <glyph glyph-name="Oacute" unicode="&#xd3;" horiz-adv-x="749" 
d="M277 785l-31 88l268 96l31 -88zM375 -15q-160 0 -252.5 103t-92.5 272t92.5 272t252.5 103t252 -102.5t92 -272.5t-92 -272.5t-252 -102.5zM375 99q106 -1 161.5 69.5t55.5 191.5t-55.5 190.5t-161.5 70.5t-161.5 -69t-55.5 -192q-1 -121 55 -190.5t162 -70.5z" />
    <glyph glyph-name="Ocircumflex" unicode="&#xd4;" horiz-adv-x="749" 
d="M248 786l-44 83l171 93l170 -93l-44 -83l-126 69zM375 -15q-160 0 -252.5 103t-92.5 272t92.5 272t252.5 103t252 -102.5t92 -272.5t-92 -272.5t-252 -102.5zM375 99q106 -1 161.5 69.5t55.5 191.5t-55.5 190.5t-161.5 70.5t-161.5 -69t-55.5 -192q-1 -121 55 -190.5
t162 -70.5z" />
    <glyph glyph-name="Otilde" unicode="&#xd5;" horiz-adv-x="749" 
d="M463 825q-30 0 -59.5 20.5t-53 41t-38.5 20.5q-36 0 -21 -69h-72q-11 63 14.5 103.5t72.5 40.5q24 0 48.5 -13t40.5 -28t33.5 -28t29.5 -13q16 0 22 19.5t-1 49.5h72q11 -60 -14.5 -102t-73.5 -42zM375 -15q-160 0 -252.5 103t-92.5 272t92.5 272t252.5 103t252 -102.5
t92 -272.5t-92 -272.5t-252 -102.5zM375 99q106 -1 161.5 69.5t55.5 191.5t-55.5 190.5t-161.5 70.5t-161.5 -69t-55.5 -192q-1 -121 55 -190.5t162 -70.5z" />
    <glyph glyph-name="Odieresis" unicode="&#xd6;" horiz-adv-x="749" 
d="M216 840v110h110v-110h-110zM423 840v110h110v-110h-110zM375 -15q-160 0 -252.5 103t-92.5 272t92.5 272t252.5 103t252 -102.5t92 -272.5t-92 -272.5t-252 -102.5zM375 99q106 -1 161.5 69.5t55.5 191.5t-55.5 190.5t-161.5 70.5t-161.5 -69t-55.5 -192
q-1 -121 55 -190.5t162 -70.5z" />
    <glyph glyph-name="multiply" unicode="&#xd7;" horiz-adv-x="508" 
d="M380 167l-126 127l-127 -127l-67 67l127 127l-126 126l67 66l126 -126l126 126l67 -66l-126 -126l126 -127z" />
    <glyph glyph-name="Oslash" unicode="&#xd8;" horiz-adv-x="749" 
d="M724 656l-63 -70q58 -93 58 -226q0 -170 -92 -272.5t-252 -102.5q-118 0 -201 57l-49 -55l-85 76l54 61q-64 94 -64 236q0 169 92.5 272t252.5 103q123 0 209 -64l55 61zM158 360q0 -82 25 -141l323 361q-52 41 -131 41q-106 1 -161.5 -69t-55.5 -192zM375 99
q106 -1 161.5 69.5t55.5 191.5q0 74 -21 130l-318 -357q49 -34 122 -34z" />
    <glyph glyph-name="Ugrave" unicode="&#xd9;" horiz-adv-x="720" 
d="M461 785l-268 96l30 88l269 -96zM360 -15q-130 0 -210 77.5t-80 205.5v451l122 1v-449q0 -79 49.5 -126t118.5 -47t118.5 47.5t49.5 125.5v449h122v-452q0 -128 -80 -205.5t-210 -77.5z" />
    <glyph glyph-name="Uacute" unicode="&#xda;" horiz-adv-x="720" 
d="M245 785l-31 88l268 96l30 -88zM360 -15q-130 0 -210 77.5t-80 205.5v451l122 1v-449q0 -79 49.5 -126t118.5 -47t118.5 47.5t49.5 125.5v449h122v-452q0 -128 -80 -205.5t-210 -77.5z" />
    <glyph glyph-name="Ucircumflex" unicode="&#xdb;" horiz-adv-x="720" 
d="M233 786l-43 83l170 93l171 -93l-44 -83l-127 69zM360 -15q-130 0 -210 77.5t-80 205.5v451l122 1v-449q0 -79 49.5 -126t118.5 -47t118.5 47.5t49.5 125.5v449h122v-452q0 -128 -80 -205.5t-210 -77.5z" />
    <glyph glyph-name="Udieresis" unicode="&#xdc;" horiz-adv-x="720" 
d="M202 840v110h110v-110h-110zM408 840v110h110v-110h-110zM360 -15q-130 0 -210 77.5t-80 205.5v451l122 1v-449q0 -79 49.5 -126t118.5 -47t118.5 47.5t49.5 125.5v449h122v-452q0 -128 -80 -205.5t-210 -77.5z" />
    <glyph glyph-name="Yacute" unicode="&#xdd;" horiz-adv-x="612" 
d="M198 785l-31 88l268 96l31 -88zM245 0v295l-245 425h141l165 -287l165 287h141l-245 -425v-295h-122z" />
    <glyph glyph-name="Thorn" unicode="&#xde;" horiz-adv-x="630" 
d="M70 0v720h122v-126h171q38 0 74 -11q69 -22 112 -79q49 -62 51 -144q2 -77 -49 -142q-32 -42 -82 -66.5t-106 -24.5h-171v-127h-122zM192 239h171q23 0 48 13t42 34q26 35 25 74q-2 49 -31 80q-37 41 -84 41h-171v-242z" />
    <glyph glyph-name="germandbls" unicode="&#xdf;" horiz-adv-x="634" 
d="M344 -15q-56 0 -92 15v118q36 -15 76 -15q58 0 91.5 28.5t33.5 82.5q0 57 -43 86t-117 29v105q48 4 74.5 28.5t26.5 67.5q0 42 -29.5 67t-72.5 25q-64 0 -88 -49q-13 -26 -13 -75v-498h-122v530q0 38 9 70q22 68 79.5 101.5t134.5 33.5q95 0 159.5 -57.5t64.5 -145.5
t-61 -134q52 -19 85.5 -69t33.5 -117q0 -107 -59.5 -167t-170.5 -60z" />
    <glyph glyph-name="agrave" unicode="&#xe0;" horiz-adv-x="576" 
d="M480 693l-31 -88l-267 96l30 88zM496 455q20 -40 20 -124v-331h-105v73q-67 -88 -190 -88q-85 0 -133 46.5t-48 116.5q0 119 123 162q61 19 235 43q-3 48 -29.5 70t-81.5 22q-40 0 -72.5 -18.5t-44.5 -57.5l-111 35q21 71 78.5 111t150.5 40q157 0 208 -100zM384 171
q11 26 13 84q-135 -22 -173 -34q-66 -25 -66 -71q0 -31 22.5 -50t64.5 -19q56 0 92.5 28t46.5 62z" />
    <glyph glyph-name="aacute" unicode="&#xe1;" horiz-adv-x="576" 
d="M455 701l-267 -96l-31 88l268 96zM496 455q20 -40 20 -124v-331h-105v73q-67 -88 -190 -88q-85 0 -133 46.5t-48 116.5q0 119 123 162q61 19 235 43q-3 48 -29.5 70t-81.5 22q-40 0 -72.5 -18.5t-44.5 -57.5l-111 35q21 71 78.5 111t150.5 40q157 0 208 -100zM384 171
q11 26 13 84q-135 -22 -173 -34q-66 -25 -66 -71q0 -31 22.5 -50t64.5 -19q56 0 92.5 28t46.5 62z" />
    <glyph glyph-name="acircumflex" unicode="&#xe2;" horiz-adv-x="576" 
d="M297 675l-127 -69l-44 83l171 93l170 -93l-44 -83zM496 455q20 -40 20 -124v-331h-105v73q-67 -88 -190 -88q-85 0 -133 46.5t-48 116.5q0 119 123 162q61 19 235 43q-3 48 -29.5 70t-81.5 22q-40 0 -72.5 -18.5t-44.5 -57.5l-111 35q21 71 78.5 111t150.5 40
q157 0 208 -100zM384 171q11 26 13 84q-135 -22 -173 -34q-66 -25 -66 -71q0 -31 22.5 -50t64.5 -19q56 0 92.5 28t46.5 62z" />
    <glyph glyph-name="atilde" unicode="&#xe3;" horiz-adv-x="576" 
d="M212 633h-72q-11 63 14 103.5t72 40.5q31 0 61.5 -20.5t53.5 -41t37 -20.5q16 0 22 19.5t0 49.5h71q12 -60 -13.5 -102t-73.5 -42q-30 0 -59.5 20.5t-53 41t-38.5 20.5q-37 0 -21 -69zM496 455q20 -40 20 -124v-331h-105v73q-67 -88 -190 -88q-85 0 -133 46.5t-48 116.5
q0 119 123 162q61 19 235 43q-3 48 -29.5 70t-81.5 22q-40 0 -72.5 -18.5t-44.5 -57.5l-111 35q21 71 78.5 111t150.5 40q157 0 208 -100zM384 171q11 26 13 84q-135 -22 -173 -34q-66 -25 -66 -71q0 -31 22.5 -50t64.5 -19q56 0 92.5 28t46.5 62z" />
    <glyph glyph-name="adieresis" unicode="&#xe4;" horiz-adv-x="576" 
d="M249 733v-110h-110v110h110zM456 733v-110h-110v110h110zM496 455q20 -40 20 -124v-331h-105v73q-67 -88 -190 -88q-85 0 -133 46.5t-48 116.5q0 119 123 162q61 19 235 43q-3 48 -29.5 70t-81.5 22q-40 0 -72.5 -18.5t-44.5 -57.5l-111 35q21 71 78.5 111t150.5 40
q157 0 208 -100zM384 171q11 26 13 84q-135 -22 -173 -34q-66 -25 -66 -71q0 -31 22.5 -50t64.5 -19q56 0 92.5 28t46.5 62z" />
    <glyph glyph-name="aring" unicode="&#xe5;" horiz-adv-x="576" 
d="M496 455q20 -40 20 -124v-331h-105v73q-67 -88 -190 -88q-85 0 -133 46.5t-48 116.5q0 119 123 162q61 19 235 43q-3 48 -29.5 70t-81.5 22q-40 0 -72.5 -18.5t-44.5 -57.5l-111 35q29 94 115 130q-25 38 -25 81q0 60 43 103t102 43q60 0 103 -43t43 -103q0 -44 -26 -83
q56 -25 82 -77zM294 675q-25 0 -42.5 -17.5t-17.5 -42.5t17.5 -42.5t42.5 -17.5t42.5 17.5t17.5 42.5t-17.5 42.5t-42.5 17.5zM384 171q11 26 13 84q-135 -22 -173 -34q-66 -25 -66 -71q0 -31 22.5 -50t64.5 -19q56 0 92.5 28t46.5 62z" />
    <glyph glyph-name="ae" unicode="&#xe6;" horiz-adv-x="935" 
d="M525 236q7 -65 40.5 -101.5t90.5 -36.5q85 0 120 77l112 -36q-28 -71 -90 -112.5t-135 -41.5q-143 0 -216 112q-71 -112 -219 -112q-89 0 -138.5 44t-49.5 116q0 30 10 55t24 42t37.5 30.5t43 21t48.5 13.5t45.5 8.5t42.5 5.5l106 10q1 58 -28.5 86t-80.5 28
q-91 0 -120 -75l-109 34q27 67 87.5 109t144.5 42q125 0 184 -76q70 76 182 76q121 0 183.5 -88t53.5 -231h-369zM656 450q-106 0 -128 -119h250q-7 60 -35 89.5t-87 29.5zM245 80q43 0 79.5 21t53.5 51q18 33 20 95l-83 -8q-28 -3 -48.5 -6.5t-49 -12.5t-44 -27t-15.5 -44
q0 -31 23.5 -50t63.5 -19z" />
    <glyph glyph-name="ccedilla" unicode="&#xe7;" horiz-adv-x="576" 
d="M305 98q88 0 117 85l123 -27q-22 -74 -75 -117.5t-129 -51.5l-10 -29q61 -30 61 -93q0 -46 -30.5 -76.5t-74.5 -30.5q-34 0 -69 19l27 71q18 -7 32 -7t22.5 8t8.5 19q0 12 -10.5 21t-21.5 13t-33 11l25 74q-106 13 -166.5 90.5t-61.5 192.5q1 126 73 205.5t193 79.5
q92 0 155.5 -46t83.5 -126l-120 -33q-13 43 -45.5 67.5t-74.5 24.5q-68 0 -102.5 -47t-34.5 -125q0 -79 35 -125.5t102 -46.5z" />
    <glyph glyph-name="egrave" unicode="&#xe8;" horiz-adv-x="602" 
d="M490 693l-31 -88l-268 96l31 88zM170 236q7 -67 42.5 -102.5t96.5 -35.5q91 0 126 77l119 -36q-30 -73 -94.5 -113.5t-144.5 -40.5q-122 0 -198.5 78t-76.5 201q0 132 74.5 211.5t194.5 79.5q125 0 193 -86.5t58 -232.5h-390zM314 450q-120 0 -141 -122h265
q-8 63 -38 92.5t-86 29.5z" />
    <glyph glyph-name="eacute" unicode="&#xe9;" horiz-adv-x="602" 
d="M456 701l-268 -96l-31 88l268 96zM170 236q7 -67 42.5 -102.5t96.5 -35.5q91 0 126 77l119 -36q-30 -73 -94.5 -113.5t-144.5 -40.5q-122 0 -198.5 78t-76.5 201q0 132 74.5 211.5t194.5 79.5q125 0 193 -86.5t58 -232.5h-390zM314 450q-120 0 -141 -122h265
q-8 63 -38 92.5t-86 29.5z" />
    <glyph glyph-name="ecircumflex" unicode="&#xea;" horiz-adv-x="602" 
d="M309 675l-127 -69l-44 83l171 93l170 -93l-44 -83zM170 236q7 -67 42.5 -102.5t96.5 -35.5q91 0 126 77l119 -36q-30 -73 -94.5 -113.5t-144.5 -40.5q-122 0 -198.5 78t-76.5 201q0 132 74.5 211.5t194.5 79.5q125 0 193 -86.5t58 -232.5h-390zM314 450q-120 0 -141 -122
h265q-8 63 -38 92.5t-86 29.5z" />
    <glyph glyph-name="edieresis" unicode="&#xeb;" horiz-adv-x="602" 
d="M260 733v-110h-110v110h110zM467 733v-110h-110v110h110zM170 236q7 -67 42.5 -102.5t96.5 -35.5q91 0 126 77l119 -36q-30 -73 -94.5 -113.5t-144.5 -40.5q-122 0 -198.5 78t-76.5 201q0 132 74.5 211.5t194.5 79.5q125 0 193 -86.5t58 -232.5h-390zM314 450
q-120 0 -141 -122h265q-8 63 -38 92.5t-86 29.5z" />
    <glyph glyph-name="igrave" unicode="&#xec;" 
d="M259 605l-268 96l31 88l268 -96zM80 0v540h120v-540h-120z" />
    <glyph glyph-name="iacute" unicode="&#xed;" 
d="M22 605l-32 88l269 96l30 -88zM80 0v540h120v-540h-120z" />
    <glyph glyph-name="icircumflex" unicode="&#xee;" 
d="M22 606l-44 83l171 93l170 -93l-44 -83l-126 69zM80 0v540h120v-540h-120z" />
    <glyph glyph-name="idieresis" unicode="&#xef;" 
d="M-18 623v110h110v-110h-110zM189 623v110h110v-110h-110zM80 0v540h120v-540h-120z" />
    <glyph glyph-name="eth" unicode="&#xf0;" horiz-adv-x="596" 
d="M465 639q49 -64 70 -153t21 -231q0 -124 -69.5 -197t-187.5 -73q-116 0 -187.5 73.5t-71.5 192.5t72 193.5t187 73.5q73 0 143 -45q-10 70 -74 124l-51 -60l-67 60l40 46q-40 17 -84 20l18 93q78 -3 137 -31l50 58l67 -59l-43 -50q19 -19 30 -35zM299 92q65 0 101 42.5
t36 117.5t-36.5 117.5t-100.5 41.5q-67 1 -102.5 -41t-35.5 -118q0 -77 35.5 -118.5t102.5 -41.5z" />
    <glyph glyph-name="ntilde" unicode="&#xf1;" horiz-adv-x="626" 
d="M392 620q-30 0 -59.5 20.5t-53 41t-38.5 20.5q-37 0 -21 -69h-72q-11 63 14 103.5t72 40.5q31 0 61.5 -20.5t53.5 -41t37 -20.5q16 0 22 19.5t0 49.5h71q12 -60 -13.5 -102t-73.5 -42zM353 555q56 0 98 -21t63 -49t34 -67t15.5 -64.5t2.5 -51.5v-302h-122v260
q0 182 -127 182q-54 0 -90 -37t-36 -127v-278h-122v540h108v-60q62 75 176 75z" />
    <glyph glyph-name="ograve" unicode="&#xf2;" horiz-adv-x="618" 
d="M439 605l-268 96l31 88l268 -96zM309 -15q-120 0 -194.5 79.5t-74.5 205.5t74 205.5t195 79.5q120 0 194.5 -79t74.5 -206q0 -126 -74 -205.5t-195 -79.5zM309 98q69 0 105.5 46t36.5 126q0 79 -36 125.5t-106 46.5q-69 0 -105.5 -46t-36.5 -126q0 -78 36.5 -125
t105.5 -47z" />
    <glyph glyph-name="oacute" unicode="&#xf3;" horiz-adv-x="618" 
d="M179 605l-31 88l268 96l31 -88zM309 -15q-121 0 -195 79.5t-74 205.5q0 127 74.5 206t194.5 79q121 0 195 -79.5t74 -205.5t-74.5 -205.5t-194.5 -79.5zM309 98q69 0 105.5 47t36.5 125q0 80 -36.5 126t-105.5 46q-70 0 -105.5 -46t-35.5 -126t36 -126t105 -46z" />
    <glyph glyph-name="ocircumflex" unicode="&#xf4;" horiz-adv-x="618" 
d="M183 606l-44 83l171 93l170 -93l-44 -83l-126 69zM309 -15q-121 0 -195 79.5t-74 205.5q0 127 74.5 206t194.5 79q121 0 195 -79.5t74 -205.5t-74.5 -205.5t-194.5 -79.5zM309 98q69 0 105.5 47t36.5 125q0 80 -36.5 126t-105.5 46q-70 0 -105.5 -46t-35.5 -126t36 -126
t105 -46z" />
    <glyph glyph-name="otilde" unicode="&#xf5;" horiz-adv-x="618" 
d="M388 620q-30 0 -59.5 20.5t-53 41t-38.5 20.5q-37 0 -21 -69h-72q-11 63 14 103.5t72 40.5q31 0 61.5 -20.5t53.5 -41t37 -20.5q16 0 22 19.5t0 49.5h71q12 -60 -13.5 -102t-73.5 -42zM309 -15q-121 0 -195 79.5t-74 205.5q0 127 74.5 206t194.5 79q121 0 195 -79.5
t74 -205.5t-74.5 -205.5t-194.5 -79.5zM309 98q69 0 105.5 47t36.5 125q0 80 -36.5 126t-105.5 46q-70 0 -105.5 -46t-35.5 -126t36 -126t105 -46z" />
    <glyph glyph-name="odieresis" unicode="&#xf6;" horiz-adv-x="618" 
d="M151 623v110h110v-110h-110zM358 623v110h110v-110h-110zM309 -15q-121 0 -195 79.5t-74 205.5q0 127 74.5 206t194.5 79q121 0 195 -79.5t74 -205.5t-74.5 -205.5t-194.5 -79.5zM309 98q69 0 105.5 47t36.5 125q0 80 -36.5 126t-105.5 46q-70 0 -105.5 -46t-35.5 -126
t36 -126t105 -46z" />
    <glyph glyph-name="divide" unicode="&#xf7;" horiz-adv-x="540" 
d="M214 462v114h114v-114h-114zM60 313v95h420v-95h-420zM214 147v113h114v-113h-114z" />
    <glyph glyph-name="oslash" unicode="&#xf8;" horiz-adv-x="618" 
d="M592 472l-50 -49q36 -69 36 -153q0 -126 -74.5 -205.5t-194.5 -79.5q-92 0 -158 47l-45 -45l-80 81l50 49q-36 67 -36 153q0 127 74.5 206t194.5 79q91 0 158 -47l45 45zM309 442q-70 0 -105.5 -46t-35.5 -126q0 -38 9 -70l216 217q-33 25 -84 25zM309 98q69 0 105.5 47
t36.5 125q0 39 -9 69l-216 -216q34 -25 83 -25z" />
    <glyph glyph-name="ugrave" unicode="&#xf9;" horiz-adv-x="626" 
d="M475 693l-31 -88l-268 96l31 88zM434 540h122v-540h-107v60q-62 -75 -177 -75q-56 0 -97.5 21t-63 49t-34 67t-15 65t-2.5 52v301h122v-260q0 -182 126 -182q54 0 90 37.5t36 127.5v277z" />
    <glyph glyph-name="uacute" unicode="&#xfa;" horiz-adv-x="626" 
d="M454 701l-267 -96l-31 88l268 96zM434 540h122v-540h-107v60q-62 -75 -177 -75q-56 0 -97.5 21t-63 49t-34 67t-15 65t-2.5 52v301h122v-260q0 -182 126 -182q54 0 90 37.5t36 127.5v277z" />
    <glyph glyph-name="ucircumflex" unicode="&#xfb;" horiz-adv-x="626" 
d="M308 675l-127 -69l-44 83l171 93l170 -93l-44 -83zM434 540h122v-540h-107v60q-62 -75 -177 -75q-56 0 -97.5 21t-63 49t-34 67t-15 65t-2.5 52v301h122v-260q0 -182 126 -182q54 0 90 37.5t36 127.5v277z" />
    <glyph glyph-name="udieresis" unicode="&#xfc;" horiz-adv-x="626" 
d="M259 733v-110h-110v110h110zM466 733v-110h-110v110h110zM434 540h122v-540h-107v60q-62 -75 -177 -75q-56 0 -97.5 21t-63 49t-34 67t-15 65t-2.5 52v301h122v-260q0 -182 126 -182q54 0 90 37.5t36 127.5v277z" />
    <glyph glyph-name="yacute" unicode="&#xfd;" horiz-adv-x="559" 
d="M450 701l-267 -96l-31 88l268 96zM434 540h121l-301 -780h-113l89 243l-218 537h125l151 -386z" />
    <glyph glyph-name="thorn" unicode="&#xfe;" horiz-adv-x="616" 
d="M325 555q113 0 182 -80t69 -205q0 -123 -68 -204t-179 -81q-80 0 -139 43v-268h-121v780h1v180h121v-206q57 41 134 41zM311 93q68 0 103 49.5t35 127.5t-36 127.5t-106 49.5q-66 0 -98.5 -47.5t-32.5 -129.5q0 -177 135 -177z" />
    <glyph glyph-name="ydieresis" unicode="&#xff;" horiz-adv-x="559" 
d="M238 733v-110h-110v110h110zM445 733v-110h-110v110h110zM434 540h121l-301 -780h-113l89 243l-218 537h125l151 -386z" />
    <glyph glyph-name="Amacron" unicode="&#x100;" horiz-adv-x="671" 
d="M469 934v-94h-266v94h266zM527 0l-50 156h-284l-49 -156h-124l227 720h177l227 -720h-124zM229 269h212l-107 336z" />
    <glyph glyph-name="amacron" unicode="&#x101;" horiz-adv-x="576" 
d="M442 754v-94h-267v94h267zM496 455q20 -40 20 -124v-331h-105v73q-67 -88 -190 -88q-85 0 -133 46.5t-48 116.5q0 119 123 162q61 19 235 43q-3 48 -29.5 70t-81.5 22q-40 0 -72.5 -18.5t-44.5 -57.5l-111 35q21 71 78.5 111t150.5 40q157 0 208 -100zM384 171
q11 26 13 84q-135 -22 -173 -34q-66 -25 -66 -71q0 -31 22.5 -50t64.5 -19q56 0 92.5 28t46.5 62z" />
    <glyph glyph-name="Abreve" unicode="&#x102;" horiz-adv-x="671" 
d="M336 780q-63 0 -107.5 44.5t-44.5 107.5h94q0 -24 17 -41t41 -17t40.5 17t16.5 41h94q0 -63 -44 -107.5t-107 -44.5zM527 0l-50 156h-284l-49 -156h-124l227 720h177l227 -720h-124zM229 269h212l-107 336z" />
    <glyph glyph-name="abreve" unicode="&#x103;" horiz-adv-x="576" 
d="M293 600q-62 0 -106.5 44.5t-44.5 107.5h94q0 -24 17 -41t40 -17q24 0 41 17t17 41h94q0 -63 -44.5 -107.5t-107.5 -44.5zM496 455q20 -40 20 -124v-331h-105v73q-67 -88 -190 -88q-85 0 -133 46.5t-48 116.5q0 119 123 162q61 19 235 43q-3 48 -29.5 70t-81.5 22
q-40 0 -72.5 -18.5t-44.5 -57.5l-111 35q21 71 78.5 111t150.5 40q157 0 208 -100zM384 171q11 26 13 84q-135 -22 -173 -34q-66 -25 -66 -71q0 -31 22.5 -50t64.5 -19q56 0 92.5 28t46.5 62z" />
    <glyph glyph-name="Aogonek" unicode="&#x104;" horiz-adv-x="671" 
d="M569 -150q17 0 37 17l43 -56q-36 -51 -96 -51q-46 0 -76.5 32.5t-30.5 77.5q0 72 77 142l-46 144h-284l-49 -156h-124l227 720h177l227 -720q-46 -25 -78.5 -60.5t-32.5 -60.5q0 -13 8.5 -21t20.5 -8zM229 269h212l-107 336z" />
    <glyph glyph-name="aogonek" unicode="&#x105;" horiz-adv-x="576" 
d="M516 0q-46 -25 -78.5 -60.5t-32.5 -60.5q0 -13 8.5 -21t20.5 -8q18 0 37 17l44 -56q-37 -51 -97 -51q-46 0 -76.5 32.5t-30.5 77.5q0 41 27.5 83.5t72.5 76.5v43q-67 -88 -190 -88q-85 0 -133 46.5t-48 116.5q0 119 123 162q61 19 235 43q-3 48 -29.5 70t-81.5 22
q-40 0 -72.5 -18.5t-44.5 -57.5l-111 35q21 71 78.5 111t150.5 40q157 0 208 -100q20 -40 20 -124v-331zM384 171q11 26 13 84q-135 -22 -173 -34q-66 -25 -66 -71q0 -31 22.5 -50t64.5 -19q56 0 92.5 28t46.5 62z" />
    <glyph glyph-name="Cacute" unicode="&#x106;" horiz-adv-x="738" 
d="M274 785l-31 88l268 96l31 -88zM375 -15q-160 0 -252.5 103t-92.5 272t92.5 272t252.5 103q122 0 205.5 -61t117.5 -169l-121 -33q-45 149 -202 149q-106 0 -162 -70t-56 -191q-1 -121 55.5 -191t162.5 -70q157 0 202 150l121 -34q-34 -108 -117.5 -169t-205.5 -61z" />
    <glyph glyph-name="cacute" unicode="&#x107;" horiz-adv-x="576" 
d="M159 605l-32 88l269 96l30 -88zM305 -15q-122 0 -193 79.5t-72 205.5q1 126 73 205.5t193 79.5q92 0 155.5 -46t83.5 -126l-120 -33q-13 43 -45.5 67.5t-74.5 24.5q-68 0 -102.5 -47t-34.5 -125q0 -79 35 -125.5t102 -46.5q88 0 117 85l123 -27q-25 -82 -87.5 -126.5
t-152.5 -44.5z" />
    <glyph glyph-name="Cdotaccent" unicode="&#x10a;" horiz-adv-x="738" 
d="M318 852v123h123v-123h-123zM375 -15q-160 0 -252.5 103t-92.5 272t92.5 272t252.5 103q122 0 205.5 -61t117.5 -169l-121 -33q-45 149 -202 149q-106 0 -162 -70t-56 -191q-1 -121 55.5 -191t162.5 -70q157 0 202 150l121 -34q-34 -108 -117.5 -169t-205.5 -61z" />
    <glyph glyph-name="cdotaccent" unicode="&#x10b;" horiz-adv-x="576" 
d="M259 647v123h123v-123h-123zM305 -15q-122 0 -193 79.5t-72 205.5q1 126 73 205.5t193 79.5q92 0 155.5 -46t83.5 -126l-120 -33q-13 43 -45.5 67.5t-74.5 24.5q-68 0 -102.5 -47t-34.5 -125q0 -79 35 -125.5t102 -46.5q88 0 117 85l123 -27q-25 -82 -87.5 -126.5
t-152.5 -44.5z" />
    <glyph glyph-name="Ccaron" unicode="&#x10c;" horiz-adv-x="738" 
d="M377 786l-171 94l44 82l127 -69l126 69l44 -82zM375 -15q-160 0 -252.5 103t-92.5 272t92.5 272t252.5 103q122 0 205.5 -61t117.5 -169l-121 -33q-45 149 -202 149q-106 0 -162 -70t-56 -191q-1 -121 55.5 -191t162.5 -70q157 0 202 150l121 -34q-34 -108 -117.5 -169
t-205.5 -61z" />
    <glyph glyph-name="ccaron" unicode="&#x10d;" horiz-adv-x="576" 
d="M306 606l-170 94l43 82l127 -69l127 69l44 -82zM305 -15q-122 0 -193 79.5t-72 205.5q1 126 73 205.5t193 79.5q92 0 155.5 -46t83.5 -126l-120 -33q-13 43 -45.5 67.5t-74.5 24.5q-68 0 -102.5 -47t-34.5 -125q0 -79 35 -125.5t102 -46.5q88 0 117 85l123 -27
q-25 -82 -87.5 -126.5t-152.5 -44.5z" />
    <glyph glyph-name="Dcaron" unicode="&#x10e;" horiz-adv-x="700" 
d="M312 786l-170 94l44 82l126 -69l127 69l44 -82zM70 0v720h229q55 0 88 -4q125 -15 195 -114.5t70 -241.5t-70 -241t-195 -115q-33 -4 -88 -4h-229zM193 114h106q56 0 80 5q72 14 109 81.5t37 159.5q0 93 -37 160t-109 81q-24 5 -80 5h-106v-492z" />
    <glyph glyph-name="dcaron" unicode="&#x10f;" horiz-adv-x="786" 
d="M628 722h124v-134q0 -67 -32 -99.5t-92 -22.5l7 52q33 -3 47.5 18t9.5 57h-64v129zM426 513v207h121v-720h-107v39q-62 -54 -153 -54q-111 0 -179 81t-68 204q0 125 69 205t182 80q79 0 135 -42zM305 93q135 0 135 177q0 82 -32.5 129.5t-98.5 47.5q-69 0 -105 -49.5
t-36 -127.5q0 -79 35 -128t102 -49z" />
    <glyph glyph-name="Dcroat" unicode="&#x110;" horiz-adv-x="702" 
d="M389 716q125 -15 195 -114.5t70 -241.5t-70 -241t-195 -115q-34 -4 -88 -4h-229v313h-62v95h62v312h229q54 0 88 -4zM381 119q72 14 108.5 81.5t36.5 159.5q0 93 -37 160t-108 81q-25 5 -80 5h-107v-198h154v-95h-154v-199h107q55 0 80 5z" />
    <glyph glyph-name="dcroat" unicode="&#x111;" horiz-adv-x="617" 
d="M611 677v-94h-64v-583h-107v39q-62 -54 -153 -54q-111 0 -179 81t-68 204q0 125 69 205t182 80q79 0 135 -42v70h-82v94h82v43h121v-43h64zM305 93q135 0 135 177q0 82 -32.5 129.5t-98.5 47.5q-69 0 -105 -49.5t-36 -127.5q0 -79 35 -128t102 -49z" />
    <glyph glyph-name="Emacron" unicode="&#x112;" horiz-adv-x="585" 
d="M173 840v94h267v-94h-267zM70 0v720h465v-113h-345v-178h285v-112h-285v-204h345v-113h-465z" />
    <glyph glyph-name="emacron" unicode="&#x113;" horiz-adv-x="602" 
d="M452 754v-94h-267v94h267zM170 236q7 -67 42.5 -102.5t96.5 -35.5q91 0 126 77l119 -36q-30 -73 -94.5 -113.5t-144.5 -40.5q-122 0 -198.5 78t-76.5 201q0 132 74.5 211.5t194.5 79.5q125 0 193 -86.5t58 -232.5h-390zM314 450q-120 0 -141 -122h265q-8 63 -38 92.5
t-86 29.5z" />
    <glyph glyph-name="Edotaccent" unicode="&#x116;" horiz-adv-x="585" 
d="M241 827v123h123v-123h-123zM70 0v720h465v-113h-345v-178h285v-112h-285v-204h345v-113h-465z" />
    <glyph glyph-name="edotaccent" unicode="&#x117;" horiz-adv-x="602" 
d="M371 770v-123h-123v123h123zM170 236q7 -67 42.5 -102.5t96.5 -35.5q91 0 126 77l119 -36q-30 -73 -94.5 -113.5t-144.5 -40.5q-122 0 -198.5 78t-76.5 201q0 132 74.5 211.5t194.5 79.5q125 0 193 -86.5t58 -232.5h-390zM314 450q-120 0 -141 -122h265q-8 63 -38 92.5
t-86 29.5z" />
    <glyph glyph-name="Eogonek" unicode="&#x118;" horiz-adv-x="585" 
d="M535 607h-345v-178h285v-112h-285v-204h345v-113q-46 -25 -78.5 -60.5t-32.5 -60.5q0 -13 8.5 -21t20.5 -8q18 0 37 17l44 -56q-37 -51 -97 -51q-46 0 -76.5 32.5t-30.5 77.5q0 65 65 130h-325v720h465v-113z" />
    <glyph glyph-name="eogonek" unicode="&#x119;" horiz-adv-x="602" 
d="M170 236q7 -67 42.5 -102.5t96.5 -35.5q91 0 126 77l119 -36q-10 -25 -26 -47q-14 -24 -39.5 -63.5t-33.5 -52.5q-27 -50 -36 -79q-9 -23 4 -37q13 -11 29 -8t31 15l43 -56q-16 -28 -47 -41q-35 -15 -71 -6t-59 38q-19 24 -24 57.5t9 68.5q11 28 34 62q-28 -5 -53 -5
q-122 0 -198.5 78t-76.5 201q0 132 74.5 211.5t194.5 79.5q125 0 193 -86.5t58 -232.5h-390zM314 450q-120 0 -141 -122h265q-8 63 -38 92.5t-86 29.5z" />
    <glyph glyph-name="Ecaron" unicode="&#x11a;" horiz-adv-x="585" 
d="M307 786l-170 94l43 82l127 -69l127 69l44 -82zM70 0v720h465v-113h-345v-178h285v-112h-285v-204h345v-113h-465z" />
    <glyph glyph-name="ecaron" unicode="&#x11b;" horiz-adv-x="602" 
d="M479 700l-170 -94l-171 94l44 82l127 -69l126 69zM170 236q7 -67 42.5 -102.5t96.5 -35.5q91 0 126 77l119 -36q-30 -73 -94.5 -113.5t-144.5 -40.5q-122 0 -198.5 78t-76.5 201q0 132 74.5 211.5t194.5 79.5q125 0 193 -86.5t58 -232.5h-390zM314 450q-120 0 -141 -122
h265q-8 63 -38 92.5t-86 29.5z" />
    <glyph glyph-name="Gbreve" unicode="&#x11e;" horiz-adv-x="732" 
d="M384 780q-63 0 -107.5 44.5t-44.5 107.5h94q0 -24 17 -41t41 -17t40.5 17t16.5 41h94q0 -63 -44 -107.5t-107 -44.5zM367 -15q-146 0 -241.5 100.5t-95.5 274.5q0 173 94.5 274t242.5 101q257 0 316 -235l-123 -19q-21 65 -68 102t-117 38q-106 1 -161.5 -69t-55.5 -192
q-1 -121 55 -190.5t162 -70.5q82 -2 133 45t64 139h-127v95h255q2 -22 2 -43q0 -155 -90.5 -252.5t-244.5 -97.5z" />
    <glyph glyph-name="gbreve" unicode="&#x11f;" horiz-adv-x="616" 
d="M338 600q-63 0 -107.5 44.5t-44.5 107.5h94q0 -24 17 -41t41 -17t40.5 17t16.5 41h94q0 -63 -44 -107.5t-107 -44.5zM440 540h106v-566q0 -42 -7 -76q-18 -76 -82.5 -114.5t-159.5 -38.5q-68 0 -125.5 31t-89.5 86l112 55q29 -57 104 -57q58 0 93.5 30t34.5 86v52
q-57 -43 -139 -43q-111 0 -179 81t-68 204q0 125 69 205t182 80q90 0 149 -53v38zM305 93q135 0 135 177q0 82 -32.5 129.5t-98.5 47.5q-69 0 -105 -49.5t-36 -127.5q0 -79 35 -128t102 -49z" />
    <glyph glyph-name="Gdotaccent" unicode="&#x120;" horiz-adv-x="732" 
d="M316 827v123h124v-123h-124zM367 -15q-146 0 -241.5 100.5t-95.5 274.5q0 173 94.5 274t242.5 101q257 0 316 -235l-123 -19q-21 65 -68 102t-117 38q-106 1 -161.5 -69t-55.5 -192q-1 -121 55 -190.5t162 -70.5q82 -2 133 45t64 139h-127v95h255q2 -22 2 -43
q0 -155 -90.5 -252.5t-244.5 -97.5z" />
    <glyph glyph-name="gdotaccent" unicode="&#x121;" horiz-adv-x="616" 
d="M392 770v-123h-123v123h123zM440 540h106v-566q0 -42 -7 -76q-18 -76 -82.5 -114.5t-159.5 -38.5q-68 0 -125.5 31t-89.5 86l112 55q29 -57 104 -57q58 0 93.5 30t34.5 86v52q-57 -43 -139 -43q-111 0 -179 81t-68 204q0 125 69 205t182 80q90 0 149 -53v38zM305 93
q135 0 135 177q0 82 -32.5 129.5t-98.5 47.5q-69 0 -105 -49.5t-36 -127.5q0 -79 35 -128t102 -49z" />
    <glyph glyph-name="uni0122" unicode="&#x122;" horiz-adv-x="732" 
d="M367 -15q-146 0 -241.5 100.5t-95.5 274.5q0 173 94.5 274t242.5 101q257 0 316 -235l-123 -19q-21 65 -68 102t-117 38q-106 1 -161.5 -69t-55.5 -192q-1 -121 55 -190.5t162 -70.5q82 -2 133 45t64 139h-127v95h255q2 -22 2 -43q0 -155 -90.5 -252.5t-244.5 -97.5z
M326 -287v53q11 0 24 3t26.5 15.5t13.5 33.5h-64v117h116v-117q0 -47 -32.5 -76t-83.5 -29z" />
    <glyph glyph-name="uni0123" unicode="&#x123;" horiz-adv-x="616" 
d="M376 717v-117h-116v117q0 47 32.5 76t83.5 29v-53q-11 0 -23.5 -3t-26.5 -15.5t-14 -33.5h64zM440 540h106v-566q0 -42 -7 -76q-18 -76 -82.5 -114.5t-159.5 -38.5q-68 0 -125.5 31t-89.5 86l112 55q29 -57 104 -57q58 0 93.5 30t34.5 86v52q-57 -43 -139 -43
q-111 0 -179 81t-68 204q0 125 69 205t182 80q90 0 149 -53v38zM305 93q135 0 135 177q0 82 -32.5 129.5t-98.5 47.5q-69 0 -105 -49.5t-36 -127.5q0 -79 35 -128t102 -49z" />
    <glyph glyph-name="Hbar" unicode="&#x126;" horiz-adv-x="742" 
d="M732 608v-113h-70v-495h-121v304h-341v-304h-120v495h-70v113h70v112h120v-112h341v112h121v-112h70zM541 417v78h-341v-78h341z" />
    <glyph glyph-name="hbar" unicode="&#x127;" horiz-adv-x="626" 
d="M353 555q56 0 98 -21t63 -49t34 -67t15.5 -64.5t2.5 -51.5v-302h-122v260q0 182 -127 182q-54 0 -90 -37t-36 -127v-278h-122v583h-54v94h54v43h108v-43h105v-94h-105v-103q62 75 176 75z" />
    <glyph glyph-name="Imacron" unicode="&#x12a;" 
d="M7 840v94h267v-94h-267zM80 0v720h120v-720h-120z" />
    <glyph glyph-name="imacron" unicode="&#x12b;" 
d="M7 660v94h267v-94h-267zM80 0v540h120v-540h-120z" />
    <glyph glyph-name="Iogonek" unicode="&#x12e;" 
d="M200 0q-46 -25 -78 -60t-32 -61q0 -13 8 -21t21 -8q17 0 37 17l43 -56q-37 -51 -96 -51q-46 0 -76.5 32.5t-30.5 77.5q0 76 84 147v703h120v-720z" />
    <glyph glyph-name="iogonek" unicode="&#x12f;" 
d="M80 734h120v-110h-120v110zM80 17v523h120v-540q-46 -25 -78 -60t-32 -61q0 -13 8 -21t21 -8q17 0 37 17l43 -56q-37 -51 -96 -51q-46 0 -76.5 32.5t-30.5 77.5q0 76 84 147z" />
    <glyph glyph-name="Idotaccent" unicode="&#x130;" 
d="M79 827v123h123v-123h-123zM80 0v720h120v-720h-120z" />
    <glyph glyph-name="dotlessi" unicode="&#x131;" 
d="M80 0v540h120v-540h-120z" />
    <glyph glyph-name="uni0136" unicode="&#x136;" horiz-adv-x="647" 
d="M70 0v720h120v-334l288 334h148l-310 -353l331 -367h-153l-304 336v-336h-120zM288 -287v53q11 0 24 3t26.5 15.5t13.5 33.5h-64v117h117v-117q0 -47 -33 -76t-84 -29z" />
    <glyph glyph-name="uni0137" unicode="&#x137;" horiz-adv-x="538" 
d="M69 0l1 720h122v-440l198 260h150l-209 -270l227 -270h-159l-207 260v-260h-123zM241 -287v53q11 0 24 3t26.5 15.5t13.5 33.5h-64v117h116v-117q0 -47 -32.5 -76t-83.5 -29z" />
    <glyph glyph-name="Lacute" unicode="&#x139;" horiz-adv-x="533" 
d="M115 785l-32 88l269 96l30 -88zM80 0v720h120v-607h318v-113h-438z" />
    <glyph glyph-name="lacute" unicode="&#x13a;" 
d="M12 785l-32 88l269 96l30 -88zM80 0v735h120v-735h-120z" />
    <glyph glyph-name="uni013B" unicode="&#x13b;" horiz-adv-x="533" 
d="M80 0v720h120v-607h318v-113h-438zM241 -287v53q11 0 24 3t26.5 15.5t13.5 33.5h-64v117h117v-117q0 -47 -33 -76t-84 -29z" />
    <glyph glyph-name="uni013C" unicode="&#x13c;" 
d="M80 0v735h120v-735h-120zM82 -287v53q11 0 24 3t26.5 15.5t13.5 33.5h-64v117h117v-117q0 -47 -33 -76t-84 -29z" />
    <glyph glyph-name="Lcaron" unicode="&#x13d;" horiz-adv-x="533" 
d="M326 466l7 52q33 -3 47.5 18t9.5 57h-64v129h124v-134q0 -67 -32 -99.5t-92 -22.5zM80 0v720h120v-607h318v-113h-438z" />
    <glyph glyph-name="lcaron" unicode="&#x13e;" horiz-adv-x="438" 
d="M80 0v735h120v-735h-120zM281 466l7 52q33 -3 47.5 18t9.5 57h-64v129h124v-134q0 -67 -32 -99.5t-92 -22.5z" />
    <glyph glyph-name="Lslash" unicode="&#x141;" horiz-adv-x="550" 
d="M217 113h318v-113h-438v210l-66 -38v130l66 38v380h120v-311l158 90v-130l-158 -90v-166z" />
    <glyph glyph-name="lslash" unicode="&#x142;" horiz-adv-x="399" 
d="M371 531v-130l-111 -64v-337h-121v268l-112 -64v130l112 64v337h121v-268z" />
    <glyph glyph-name="Nacute" unicode="&#x143;" horiz-adv-x="718" 
d="M265 785l-31 88l268 96l31 -88zM70 0v720h122l334 -507v507h122v-720h-122l-334 508v-508h-122z" />
    <glyph glyph-name="nacute" unicode="&#x144;" horiz-adv-x="626" 
d="M462 701l-268 -96l-31 88l268 96zM353 555q56 0 98 -21t63 -49t34 -67t15.5 -64.5t2.5 -51.5v-302h-122v260q0 182 -127 182q-54 0 -90 -37t-36 -127v-278h-122v540h108v-60q62 75 176 75z" />
    <glyph glyph-name="uni0145" unicode="&#x145;" horiz-adv-x="718" 
d="M70 0v720h122l334 -507v507h122v-720h-122l-334 508v-508h-122zM311 -287v53q11 0 24 3t26.5 15.5t13.5 33.5h-64v117h117v-117q0 -47 -33 -76t-84 -29z" />
    <glyph glyph-name="uni0146" unicode="&#x146;" horiz-adv-x="626" 
d="M353 555q56 0 98 -21t63 -49t34 -67t15.5 -64.5t2.5 -51.5v-302h-122v260q0 182 -127 182q-54 0 -90 -37t-36 -127v-278h-122v540h108v-60q62 75 176 75zM262 -182v117h117v-117q0 -47 -33 -76t-84 -29v53q11 0 24 3t26.5 15.5t13.5 33.5h-64z" />
    <glyph glyph-name="Ncaron" unicode="&#x147;" horiz-adv-x="718" 
d="M370 786l-170 94l43 82l127 -69l127 69l44 -82zM70 0v720h122l334 -507v507h122v-720h-122l-334 508v-508h-122z" />
    <glyph glyph-name="ncaron" unicode="&#x148;" horiz-adv-x="626" 
d="M484 700l-171 -94l-170 94l44 82l126 -69l127 69zM353 555q56 0 98 -21t63 -49t34 -67t15.5 -64.5t2.5 -51.5v-302h-122v260q0 182 -127 182q-54 0 -90 -37t-36 -127v-278h-122v540h108v-60q62 75 176 75z" />
    <glyph glyph-name="Eng" unicode="&#x14a;" horiz-adv-x="718" 
d="M526 720h122v-809q0 -140 -138 -140q-38 0 -73 9v90q33 -3 40 -3q71 0 71 58q0 39 -53 123l-303 460v-508h-122v720h122l334 -507v507z" />
    <glyph glyph-name="eng" unicode="&#x14b;" horiz-adv-x="626" 
d="M353 555q56 0 98 -21t63 -49t34 -67t15.5 -64.5t2.5 -51.5v-391q0 -56 -25.5 -91.5t-71.5 -44.5q-51 -10 -115 5v86q20 0 40 -1t35 16.5t15 54.5v324q0 182 -127 182q-54 0 -90 -37t-36 -127v-278h-122v540h108v-60q62 75 176 75z" />
    <glyph glyph-name="Omacron" unicode="&#x14c;" horiz-adv-x="749" 
d="M241 840v94h267v-94h-267zM375 -15q-160 0 -252.5 103t-92.5 272t92.5 272t252.5 103t252 -102.5t92 -272.5t-92 -272.5t-252 -102.5zM375 99q106 -1 161.5 69.5t55.5 191.5t-55.5 190.5t-161.5 70.5t-161.5 -69t-55.5 -192q-1 -121 55 -190.5t162 -70.5z" />
    <glyph glyph-name="omacron" unicode="&#x14d;" horiz-adv-x="618" 
d="M176 660v94h267v-94h-267zM309 -15q-121 0 -195 79.5t-74 205.5q0 127 74.5 206t194.5 79q121 0 195 -79.5t74 -205.5t-74.5 -205.5t-194.5 -79.5zM309 98q69 0 105.5 47t36.5 125q0 80 -36.5 126t-105.5 46q-70 0 -105.5 -46t-35.5 -126t36 -126t105 -46z" />
    <glyph glyph-name="Ohungarumlaut" unicode="&#x150;" horiz-adv-x="749" 
d="M280 791l-57 59l122 119l57 -58zM443 791l-57 59l122 119l57 -58zM375 -15q-160 0 -252.5 103t-92.5 272t92.5 272t252.5 103t252 -102.5t92 -272.5t-92 -272.5t-252 -102.5zM375 99q106 -1 161.5 69.5t55.5 191.5t-55.5 190.5t-161.5 70.5t-161.5 -69t-55.5 -192
q-1 -121 55 -190.5t162 -70.5z" />
    <glyph glyph-name="ohungarumlaut" unicode="&#x151;" horiz-adv-x="618" 
d="M230 611l-57 59l121 119l57 -58zM392 611l-57 59l122 119l57 -58zM309 -15q-121 0 -195 79.5t-74 205.5q0 127 74.5 206t194.5 79q121 0 195 -79.5t74 -205.5t-74.5 -205.5t-194.5 -79.5zM309 98q69 0 105.5 47t36.5 125q0 80 -36.5 126t-105.5 46q-70 0 -105.5 -46
t-35.5 -126t36 -126t105 -46z" />
    <glyph glyph-name="OE" unicode="&#x152;" horiz-adv-x="1113" 
d="M1063 607h-344v-178h284v-112h-284v-204h344v-113h-465v60q-89 -75 -223 -75q-160 0 -252.5 103t-92.5 272t92.5 272t252.5 103q134 0 223 -75v60h465v-113zM375 99q106 -1 161.5 69.5t55.5 191.5t-55.5 190.5t-161.5 70.5t-161.5 -69t-55.5 -192q-1 -121 55 -190.5
t162 -70.5z" />
    <glyph glyph-name="oe" unicode="&#x153;" horiz-adv-x="1013" 
d="M580 236q7 -67 42.5 -102.5t97.5 -35.5q91 0 126 77l119 -36q-30 -72 -95 -113t-144 -41q-135 0 -211 92q-76 -92 -206 -92q-121 0 -195 79.5t-74 205.5q0 127 74.5 206t194.5 79q131 0 206 -92q73 92 205 92q125 0 193 -86.5t58 -232.5h-391zM725 450q-121 0 -142 -122
h265q-7 63 -37.5 92.5t-85.5 29.5zM309 98q69 0 105.5 47t36.5 125q0 80 -36.5 126t-105.5 46q-70 0 -105.5 -46t-35.5 -126t36 -126t105 -46z" />
    <glyph glyph-name="Racute" unicode="&#x154;" horiz-adv-x="660" 
d="M473 881l-267 -96l-31 88l268 96zM620 0h-136l-122 251h-172v-251h-120v720h298q32 0 57 -4q91 -14 137.5 -75.5t46.5 -154.5q0 -75 -31 -131t-91 -82zM190 607v-243h173q27 0 45 5q41 10 60 43.5t19 73.5t-19 73t-60 43q-18 5 -45 5h-173z" />
    <glyph glyph-name="racute" unicode="&#x155;" horiz-adv-x="399" 
d="M369 701l-268 -96l-31 88l268 96zM231 512q60 42 143 28v-112q-59 17 -112 -13q-71 -39 -71 -141v-274h-121v540h107v-86q22 38 54 58z" />
    <glyph glyph-name="uni0156" unicode="&#x156;" horiz-adv-x="660" 
d="M487 273l133 -273h-136l-122 251h-172v-251h-120v720h298q32 0 57 -4q91 -14 137.5 -75.5t46.5 -154.5q0 -75 -31 -131t-91 -82zM190 607v-243h173q27 0 45 5q41 10 60 43.5t19 73.5t-19 73t-60 43q-18 5 -45 5h-173zM270 -182v117h117v-117q0 -47 -33 -76t-84 -29v53
q11 0 24 3t26.5 15.5t13.5 33.5h-64z" />
    <glyph glyph-name="uni0157" unicode="&#x157;" horiz-adv-x="399" 
d="M231 512q60 42 143 28v-112q-59 17 -112 -13q-71 -39 -71 -141v-274h-121v540h107v-86q22 38 54 58zM73 -182v117h116v-117q0 -47 -32.5 -76t-83.5 -29v53q11 0 24 3t26.5 15.5t13.5 33.5h-64z" />
    <glyph glyph-name="Rcaron" unicode="&#x158;" horiz-adv-x="660" 
d="M477 880l-170 -94l-171 94l44 82l127 -69l126 69zM620 0h-136l-122 251h-172v-251h-120v720h298q32 0 57 -4q91 -14 137.5 -75.5t46.5 -154.5q0 -75 -31 -131t-91 -82zM190 607v-243h173q27 0 45 5q41 10 60 43.5t19 73.5t-19 73t-60 43q-18 5 -45 5h-173z" />
    <glyph glyph-name="rcaron" unicode="&#x159;" horiz-adv-x="399" 
d="M393 700l-170 -94l-171 94l44 82l127 -69l126 69zM231 512q60 42 143 28v-112q-59 17 -112 -13q-71 -39 -71 -141v-274h-121v540h107v-86q22 38 54 58z" />
    <glyph glyph-name="Sacute" unicode="&#x15a;" horiz-adv-x="657" 
d="M200 785l-31 88l268 96l31 -88zM337 -15q-119 0 -200.5 61.5t-98.5 166.5l126 19q15 -63 64 -98.5t116 -35.5q61 0 105 28t44 75q0 59 -80 84l-186 54q-30 9 -53 20t-50.5 31.5t-42.5 54.5t-15 79q0 101 74.5 156t189.5 54q111 -1 185 -56t99 -155l-130 -22
q-12 55 -55.5 87t-100.5 33q-55 2 -95 -24t-40 -67q0 -36 28.5 -55t75.5 -32l129 -35q30 -9 48 -15t49 -22t49 -35t32.5 -52t14.5 -74q0 -107 -82 -166t-200 -59z" />
    <glyph glyph-name="sacute" unicode="&#x15b;" horiz-adv-x="542" 
d="M161 605l-31 88l268 96l30 -88zM279 -15q-100 0 -162.5 45t-76.5 127l123 19q9 -41 42 -63.5t82 -22.5q43 0 67 17t24 47q0 28 -23 41t-114 37q-102 27 -142.5 61.5t-40.5 95.5q0 76 57.5 121t154.5 45q94 0 155.5 -43t71.5 -116l-123 -22q-5 34 -31.5 54t-70.5 23
q-42 2 -68 -13.5t-26 -42.5q0 -24 26.5 -37.5t120.5 -37.5q97 -25 136.5 -61t39.5 -99q0 -82 -59 -128.5t-163 -46.5z" />
    <glyph glyph-name="Scedilla" unicode="&#x15e;" horiz-adv-x="657" 
d="M619 210q0 -94 -64.5 -151t-163.5 -71l-10 -30q60 -30 60 -93q0 -46 -30.5 -76.5t-73.5 -30.5q-36 0 -69 19l26 71q18 -7 32 -7t22.5 8t8.5 19q0 12 -10 21t-21.5 13.5t-33.5 10.5l26 72q-112 5 -188 66t-92 162l126 19q15 -63 64 -98.5t116 -35.5q61 0 105 28t44 75
q0 59 -80 84l-186 54q-30 9 -53 20t-50.5 31.5t-42.5 54.5t-15 79q0 101 74.5 156t189.5 54q111 -1 185 -56t99 -155l-130 -22q-12 55 -55.5 87t-100.5 33q-55 2 -95 -24t-40 -67q0 -36 28.5 -55t75.5 -32l129 -35q30 -9 48 -15t49 -22t49 -35t32.5 -52t14.5 -74z" />
    <glyph glyph-name="scedilla" unicode="&#x15f;" horiz-adv-x="542" 
d="M501 160q0 -74 -48.5 -119.5t-135.5 -53.5l-10 -29q61 -30 61 -93q0 -46 -30.5 -76.5t-73.5 -30.5q-35 0 -70 19l27 71q18 -7 32 -7t22.5 8t8.5 19q0 12 -10 21t-21.5 13.5t-33.5 10.5l25 73q-86 8 -139 52.5t-65 118.5l123 19q9 -41 42 -63.5t82 -22.5q43 0 67 17t24 47
q0 28 -23 41t-114 37q-102 27 -142.5 61.5t-40.5 95.5q0 76 57.5 121t154.5 45q94 0 155.5 -43t71.5 -116l-123 -22q-5 34 -31.5 54t-70.5 23q-42 2 -68 -13.5t-26 -42.5q0 -24 26.5 -37.5t120.5 -37.5q97 -25 136.5 -61t39.5 -99z" />
    <glyph glyph-name="Scaron" unicode="&#x160;" horiz-adv-x="657" 
d="M342 786l-170 94l43 82l127 -69l127 69l44 -82zM337 -15q-119 0 -200.5 61.5t-98.5 166.5l126 19q15 -63 64 -98.5t116 -35.5q61 0 105 28t44 75q0 59 -80 84l-186 54q-30 9 -53 20t-50.5 31.5t-42.5 54.5t-15 79q0 101 74.5 156t189.5 54q111 -1 185 -56t99 -155
l-130 -22q-12 55 -55.5 87t-100.5 33q-55 2 -95 -24t-40 -67q0 -36 28.5 -55t75.5 -32l129 -35q30 -9 48 -15t49 -22t49 -35t32.5 -52t14.5 -74q0 -107 -82 -166t-200 -59z" />
    <glyph glyph-name="scaron" unicode="&#x161;" horiz-adv-x="542" 
d="M279 606l-170 94l43 82l127 -69l127 69l44 -82zM279 -15q-100 0 -162.5 45t-76.5 127l123 19q9 -41 42 -63.5t82 -22.5q43 0 67 17t24 47q0 28 -23 41t-114 37q-102 27 -142.5 61.5t-40.5 95.5q0 76 57.5 121t154.5 45q94 0 155.5 -43t71.5 -116l-123 -22q-5 34 -31.5 54
t-70.5 23q-42 2 -68 -13.5t-26 -42.5q0 -24 26.5 -37.5t120.5 -37.5q97 -25 136.5 -61t39.5 -99q0 -82 -59 -128.5t-163 -46.5z" />
    <glyph glyph-name="uni0162" unicode="&#x162;" horiz-adv-x="607" 
d="M364 0h-26l-15 -43q61 -31 61 -93q0 -46 -31 -76.5t-74 -30.5q-33 0 -69 18l26 72q20 -7 33 -7q14 0 22.5 8t8.5 19q0 12 -10.5 21t-21.5 13.5t-34 10.5l31 88h-22v607h-233v113h587v-113h-233v-607z" />
    <glyph glyph-name="uni0163" unicode="&#x163;" horiz-adv-x="433" 
d="M228 446v-219q0 -79 11 -97q29 -47 148 -29v-101q-51 -11 -102 -9l-11 -33q61 -30 61 -93q0 -46 -30.5 -76.5t-73.5 -30.5q-35 0 -70 19l27 71q18 -7 32 -7t22.5 8t8.5 19q0 12 -10 21t-21.5 13.5t-33.5 10.5l30 88q-61 18 -87 65q-6 11 -10 24.5t-6.5 22t-3.5 26.5
t-1 24v29.5v28.5v225h-98v94h98v150h120v-150h159v-94h-159z" />
    <glyph glyph-name="Tcaron" unicode="&#x164;" horiz-adv-x="607" 
d="M303 786l-170 94l44 82l126 -69l127 69l44 -82zM243 0v607h-233v113h587v-113h-233v-607h-121z" />
    <glyph glyph-name="tcaron" unicode="&#x165;" horiz-adv-x="433" 
d="M340 859h123v-133q0 -67 -31.5 -100t-91.5 -23l7 52q33 -2 47.5 19t9.5 57h-64v128zM228 690v-150h159v-94h-159v-219q0 -79 11 -97q29 -47 148 -29v-101q-78 -19 -153 -3.5t-105 69.5q-6 11 -10 24.5t-6.5 22t-3.5 26.5t-1 24v29.5v28.5v225h-98v94h98v150h120z" />
    <glyph glyph-name="Tbar" unicode="&#x166;" horiz-adv-x="607" 
d="M597 607h-233v-187h174v-120h-174v-300h-121v300h-175v120h175v187h-233v113h587v-113z" />
    <glyph glyph-name="tbar" unicode="&#x167;" horiz-adv-x="453" 
d="M228 232v-5q0 -79 11 -97q29 -47 148 -29v-101q-78 -19 -153 -3.5t-105 69.5q-6 11 -10 24.5t-6.5 22t-3.5 26.5t-1 24v29.5v28.5v11h-98v94h98v120h-98v94h98v150h120v-150h159v-94h-159v-120h175v-94h-175z" />
    <glyph glyph-name="Umacron" unicode="&#x16a;" horiz-adv-x="720" 
d="M227 840v94h266v-94h-266zM360 -15q-130 0 -210 77.5t-80 205.5v451l122 1v-449q0 -79 49.5 -126t118.5 -47t118.5 47.5t49.5 125.5v449h122v-452q0 -128 -80 -205.5t-210 -77.5z" />
    <glyph glyph-name="umacron" unicode="&#x16b;" horiz-adv-x="626" 
d="M441 754v-94h-267v94h267zM434 540h122v-540h-107v60q-62 -75 -177 -75q-56 0 -97.5 21t-63 49t-34 67t-15 65t-2.5 52v301h122v-260q0 -182 126 -182q54 0 90 37.5t36 127.5v277z" />
    <glyph glyph-name="Uring" unicode="&#x16e;" horiz-adv-x="720" 
d="M363 705q-59 0 -102 43t-43 103t43 103t102 43q60 0 103 -43t43 -103t-43 -103t-103 -43zM363 791q25 0 42.5 17.5t17.5 42.5t-17.5 42.5t-42.5 17.5t-42.5 -17.5t-17.5 -42.5t17.5 -42.5t42.5 -17.5zM360 -15q-130 0 -210 77.5t-80 205.5v451l122 1v-449
q0 -79 49.5 -126t118.5 -47t118.5 47.5t49.5 125.5v449h122v-452q0 -128 -80 -205.5t-210 -77.5z" />
    <glyph glyph-name="uring" unicode="&#x16f;" horiz-adv-x="626" 
d="M308 566q-60 0 -103 43t-43 103t43 103t103 43t103 -43t43 -103t-43 -103t-103 -43zM308 772q-25 0 -42.5 -17.5t-17.5 -42.5t17.5 -42.5t42.5 -17.5t42.5 17.5t17.5 42.5t-17.5 42.5t-42.5 17.5zM434 540h122v-540h-107v60q-62 -75 -177 -75q-56 0 -97.5 21t-63 49
t-34 67t-15 65t-2.5 52v301h122v-260q0 -182 126 -182q54 0 90 37.5t36 127.5v277z" />
    <glyph glyph-name="Uhungarumlaut" unicode="&#x170;" horiz-adv-x="720" 
d="M281 791l-57 59l121 119l57 -58zM443 791l-57 59l122 119l57 -58zM360 -15q-130 0 -210 77.5t-80 205.5v451l122 1v-449q0 -79 49.5 -126t118.5 -47t118.5 47.5t49.5 125.5v449h122v-452q0 -128 -80 -205.5t-210 -77.5z" />
    <glyph glyph-name="uhungarumlaut" unicode="&#x171;" horiz-adv-x="626" 
d="M345 731l-122 -120l-57 59l122 119zM386 611l-57 59l121 119l57 -58zM434 540h122v-540h-107v60q-62 -75 -177 -75q-56 0 -97.5 21t-63 49t-34 67t-15 65t-2.5 52v301h122v-260q0 -182 126 -182q54 0 90 37.5t36 127.5v277z" />
    <glyph glyph-name="Uogonek" unicode="&#x172;" horiz-adv-x="720" 
d="M528 720h122v-452q0 -87 -38.5 -152.5t-107.5 -99.5q-37 -25 -61 -55t-24 -51q0 -12 8 -20.5t21 -8.5q18 0 37 18l43 -57q-38 -50 -96 -50q-46 0 -76.5 32.5t-30.5 76.5q0 41 27 84q-127 2 -204.5 79.5t-77.5 203.5v451l122 1v-449q0 -79 49.5 -126t118.5 -47t118.5 47.5
t49.5 125.5v449z" />
    <glyph glyph-name="uogonek" unicode="&#x173;" horiz-adv-x="626" 
d="M556 0q-46 -25 -78.5 -60.5t-32.5 -60.5q0 -13 8 -21t21 -8q17 0 37 17l43 -56q-37 -51 -96 -51q-46 0 -76.5 32.5t-30.5 77.5q0 40 27 82.5t71 75.5v32q-62 -75 -177 -75q-56 0 -97.5 21t-63 49t-34 67t-15 65t-2.5 52v301h122v-260q0 -182 126 -182q54 0 90 37.5
t36 127.5v277h122v-540z" />
    <glyph glyph-name="Wcircumflex" unicode="&#x174;" horiz-adv-x="976" 
d="M362 786l-44 83l170 93l171 -93l-44 -83l-127 69zM222 0l-210 720h126l143 -520l143 519l126 1l144 -520l144 520h126l-210 -720h-119l-148 512l-146 -512h-119z" />
    <glyph glyph-name="wcircumflex" unicode="&#x175;" horiz-adv-x="802" 
d="M274 606l-43 83l170 93l171 -93l-44 -83l-127 69zM185 0l-165 541l119 -1l106 -346l106 346h101l107 -346l105 346h118l-165 -540h-101l-115 372l-122 -372h-94z" />
    <glyph glyph-name="Ycircumflex" unicode="&#x176;" horiz-adv-x="612" 
d="M179 786l-44 83l171 93l170 -93l-43 -83l-127 69zM245 0v295l-245 425h141l165 -287l165 287h141l-245 -425v-295h-122z" />
    <glyph glyph-name="ycircumflex" unicode="&#x177;" horiz-adv-x="559" 
d="M288 675l-127 -69l-44 83l171 93l170 -93l-44 -83zM434 540h121l-301 -780h-113l89 243l-218 537h125l151 -386z" />
    <glyph glyph-name="Ydieresis" unicode="&#x178;" horiz-adv-x="612" 
d="M148 840v110h110v-110h-110zM354 840v110h110v-110h-110zM245 0v295l-245 425h141l165 -287l165 287h141l-245 -425v-295h-122z" />
    <glyph glyph-name="Zacute" unicode="&#x179;" horiz-adv-x="664" 
d="M232 785l-32 88l269 96l30 -88zM50 0v17l355 590h-330v113h539v-17l-353 -589h344v-114h-555z" />
    <glyph glyph-name="zacute" unicode="&#x17a;" horiz-adv-x="534" 
d="M173 605l-31 88l268 96l31 -88zM20 0v17l286 417h-257v106h445v-17l-285 -417h272v-106h-461z" />
    <glyph glyph-name="Zdotaccent" unicode="&#x17b;" horiz-adv-x="664" 
d="M287 827v123h123v-123h-123zM50 0v17l355 590h-330v113h539v-17l-353 -589h344v-114h-555z" />
    <glyph glyph-name="zdotaccent" unicode="&#x17c;" horiz-adv-x="534" 
d="M216 647v123h123v-123h-123zM20 0v17l286 417h-257v106h445v-17l-285 -417h272v-106h-461z" />
    <glyph glyph-name="Zcaron" unicode="&#x17d;" horiz-adv-x="664" 
d="M340 786l-170 94l43 82l127 -69l127 69l44 -82zM50 0v17l355 590h-330v113h539v-17l-353 -589h344v-114h-555z" />
    <glyph glyph-name="zcaron" unicode="&#x17e;" horiz-adv-x="534" 
d="M277 606l-171 94l44 82l127 -69l126 69l44 -82zM20 0v17l286 417h-257v106h445v-17l-285 -417h272v-106h-461z" />
    <glyph glyph-name="florin" unicode="&#x192;" horiz-adv-x="709" 
d="M532 735q75 0 139 -32l-55 -99q-1 1 -10 5t-27 8t-35 4q-38 0 -68.5 -20t-37.5 -62l-22 -131h183v-95h-198l-19 -113q-18 -104 -72.5 -159.5t-136.5 -55.5q-67 0 -135 31l51 101q34 -18 74 -18q78 0 97 118l15 96h-144v95h159l17 106q5 28 12.5 54t24.5 57.5t40.5 54.5
t62 39t85.5 16z" />
    <glyph glyph-name="uni0218" unicode="&#x218;" horiz-adv-x="657" 
d="M337 -15q-119 0 -200.5 61.5t-98.5 166.5l126 19q15 -63 64 -98.5t116 -35.5q61 0 105 28t44 75q0 59 -80 84l-186 54q-30 9 -53 20t-50.5 31.5t-42.5 54.5t-15 79q0 101 74.5 156t189.5 54q111 -1 185 -56t99 -155l-130 -22q-12 55 -55.5 87t-100.5 33q-55 2 -95 -24
t-40 -67q0 -36 28.5 -55t75.5 -32l129 -35q30 -9 48 -15t49 -22t49 -35t32.5 -52t14.5 -74q0 -107 -82 -166t-200 -59zM293 -287v53q11 0 24 3t26.5 15.5t13.5 33.5h-64v117h116v-117q0 -47 -32.5 -76t-83.5 -29z" />
    <glyph glyph-name="uni0219" unicode="&#x219;" horiz-adv-x="542" 
d="M279 -15q-100 0 -162.5 45t-76.5 127l123 19q9 -41 42 -63.5t82 -22.5q43 0 67 17t24 47q0 28 -23 41t-114 37q-102 27 -142.5 61.5t-40.5 95.5q0 76 57.5 121t154.5 45q94 0 155.5 -43t71.5 -116l-123 -22q-5 34 -31.5 54t-70.5 23q-42 2 -68 -13.5t-26 -42.5
q0 -24 26.5 -37.5t120.5 -37.5q97 -25 136.5 -61t39.5 -99q0 -82 -59 -128.5t-163 -46.5zM219 -287v53q11 0 24 3t27 15.5t14 33.5h-65v117h117v-117q0 -47 -33 -76t-84 -29z" />
    <glyph glyph-name="uni021A" unicode="&#x21a;" horiz-adv-x="607" 
d="M243 0v607h-233v113h587v-113h-233v-607h-121zM245 -287v53q11 0 24 3t26.5 15.5t13.5 33.5h-64v117h117v-117q0 -47 -33 -76t-84 -29z" />
    <glyph glyph-name="uni021B" unicode="&#x21b;" horiz-adv-x="433" 
d="M228 446v-219q0 -79 11 -97q29 -47 148 -29v-101q-78 -19 -153 -3.5t-105 69.5q-6 11 -10 24.5t-6.5 22t-3.5 26.5t-1 24v29.5v28.5v225h-98v94h98v150h120v-150h159v-94h-159zM181 -182v117h117v-117q0 -47 -33 -76t-84 -29v53q11 0 24 3t27 15.5t14 33.5h-65z" />
    <glyph glyph-name="circumflex" unicode="&#x2c6;" horiz-adv-x="581" 
d="M164 786l-44 83l171 93l170 -93l-44 -83l-126 69z" />
    <glyph glyph-name="caron" unicode="&#x2c7;" horiz-adv-x="579" 
d="M291 786l-171 94l44 82l127 -69l126 69l44 -82z" />
    <glyph glyph-name="breve" unicode="&#x2d8;" horiz-adv-x="543" 
d="M272 780q-63 0 -107.5 44.5t-44.5 107.5h94q0 -24 17 -41t41 -17t40.5 17t16.5 41h94q0 -63 -44.5 -107.5t-106.5 -44.5z" />
    <glyph glyph-name="dotaccent" unicode="&#x2d9;" horiz-adv-x="363" 
d="M120 827v123h123v-123h-123z" />
    <glyph glyph-name="ring" unicode="&#x2da;" horiz-adv-x="548" 
d="M274 634q-60 0 -103 43t-43 103t43 103t103 43t103 -43t43 -103t-43 -103t-103 -43zM274 720q25 0 42.5 17.5t17.5 42.5t-17.5 42.5t-42.5 17.5t-42.5 -17.5t-17.5 -42.5t17.5 -42.5t42.5 -17.5z" />
    <glyph glyph-name="ogonek" unicode="&#x2db;" horiz-adv-x="444" 
d="M226 -240q-46 0 -76.5 32.5t-30.5 77.5q0 52 43.5 106t108.5 85l53 -61q-46 -25 -78.5 -60.5t-32.5 -60.5q0 -13 8.5 -21t20.5 -8q18 0 37 17l44 -56q-37 -51 -97 -51z" />
    <glyph glyph-name="tilde" unicode="&#x2dc;" horiz-adv-x="578" 
d="M367 800q-30 0 -59.5 20.5t-53 41t-38.5 20.5q-36 0 -21 -69h-72q-11 63 14.5 103.5t72.5 40.5q24 0 48.5 -13t40.5 -28t33.5 -28t29.5 -13q16 0 22 19.5t-1 49.5h72q11 -60 -14.5 -102t-73.5 -42z" />
    <glyph glyph-name="hungarumlaut" unicode="&#x2dd;" horiz-adv-x="581" 
d="M177 791l-57 59l122 119l57 -58zM340 791l-57 59l121 119l57 -58z" />
    <glyph glyph-name="uni0374" unicode="&#x374;" horiz-adv-x="297" 
d="M60 645l38 120h119l-38 -120h-119z" />
    <glyph glyph-name="uni0375" unicode="&#x375;" horiz-adv-x="297" 
d="M60 -126l38 120h119l-38 -120h-119z" />
    <glyph glyph-name="uni037E" unicode="&#x37e;" horiz-adv-x="343" 
d="M110 417v123h123v-123h-123zM110 -127l7 51q33 -2 47.5 19t9.5 57h-64v128h123v-133q0 -67 -31.5 -99.5t-91.5 -22.5z" />
    <glyph glyph-name="Alphatonos" unicode="&#x386;" horiz-adv-x="671" 
d="M527 0l-50 156h-284l-49 -156h-124l227 720h177l227 -720h-124zM30 600l38 120h119l-38 -120h-119zM229 269h212l-107 335z" />
    <glyph glyph-name="anoteleia" unicode="&#x387;" horiz-adv-x="600" 
d="M315 242q-32 0 -53.5 21t-21.5 52t21.5 52t53.5 21q30 0 51 -21t21 -52t-21 -52t-51 -21z" />
    <glyph glyph-name="Epsilontonos" unicode="&#x388;" horiz-adv-x="750" 
d="M28 600l38 120h119l-38 -120h-119zM235 0v720h465v-113h-345v-178h285v-112h-285v-204h345v-113h-465z" />
    <glyph glyph-name="Etatonos" unicode="&#x389;" horiz-adv-x="875" 
d="M28 600l38 120h119l-38 -120h-119zM224 0v720h120v-303h341v303h120v-720h-120v304h-341v-304h-120z" />
    <glyph glyph-name="Iotatonos" unicode="&#x38a;" 
d="M-18 840v110h110v-110h-110zM189 840v110h110v-110h-110zM80 0v720h120v-720h-120z" />
    <glyph glyph-name="Omicrontonos" unicode="&#x38c;" horiz-adv-x="859" 
d="M485 -15q-160 0 -252.5 103t-92.5 272t92.5 272t252.5 103q159 0 251.5 -103t92.5 -272t-92.5 -272t-251.5 -103zM31 600l38 120h119l-38 -120h-119zM485 99q106 -1 161.5 69.5t55.5 191.5t-55.5 190.5t-161.5 70.5t-161.5 -69t-56.5 -192q0 -121 56 -190.5t162 -70.5z
" />
    <glyph glyph-name="Upsilontonos" unicode="&#x38e;" horiz-adv-x="834" 
d="M32 600l38 120h119l-38 -120h-119zM467 0v295l-244 425h140l165 -287l166 287h140l-245 -425v-295h-122z" />
    <glyph glyph-name="Omegatonos" unicode="&#x38f;" horiz-adv-x="876" 
d="M162 0v113h103q-112 99 -112 268q0 152 95.5 253t249.5 101t249.5 -101t95.5 -253q0 -169 -112 -268h103v-113h-251v113q53 27 92 93.5t40 156.5q1 110 -58.5 184t-158.5 74t-158 -73.5t-59 -183.5q0 -92 40.5 -157.5t94.5 -93.5v-113h-254zM31 600l38 120h119l-38 -120
h-119z" />
    <glyph glyph-name="iotadieresistonos" unicode="&#x390;" horiz-adv-x="488" 
d="M160 615l38 120h119l-38 -120h-119zM31 615v110h97v-110h-97zM348 615v110h97v-110h-97zM294 -4q-75 13 -109 68q-8 13 -13 25.5t-7 31t-2.5 27t0 36.5t0.5 37v319h120v-313v-17.5v-17.5v-14.5t1 -14.5t2 -11.5t3 -11.5t5 -10q17 -29 59 -33q40 -3 88 4v-101
q-29 -8 -74.5 -9t-72.5 5z" />
    <glyph glyph-name="Alpha" unicode="&#x391;" horiz-adv-x="671" 
d="M527 0l-50 156h-284l-49 -156h-124l227 720h177l227 -720h-124zM229 269h212l-107 335z" />
    <glyph glyph-name="Beta" unicode="&#x392;" horiz-adv-x="631" 
d="M495 379q51 -21 78.5 -65t27.5 -100q0 -98 -56 -156t-160 -58h-315v720h286q102 0 157 -59t55 -139q0 -99 -73 -143zM192 607v-174h162q41 0 66 22.5t25 64.5q0 38 -24.5 62.5t-66.5 24.5h-162zM370 114q48 0 78.5 28.5t30.5 75.5q0 45 -28.5 73.5t-77.5 28.5h-181v-206
h178z" />
    <glyph glyph-name="Gamma" unicode="&#x393;" horiz-adv-x="545" 
d="M70 0v720h465v-113h-345v-607h-120z" />
    <glyph glyph-name="uni0394" unicode="&#x394;" horiz-adv-x="671" 
d="M424 720l227 -720h-631l227 720h177zM180 113h311l-157 490z" />
    <glyph glyph-name="Epsilon" unicode="&#x395;" horiz-adv-x="585" 
d="M70 0v720h465v-113h-345v-178h285v-112h-285v-204h345v-113h-465z" />
    <glyph glyph-name="Zeta" unicode="&#x396;" horiz-adv-x="664" 
d="M50 0v17l355 590h-330v113h539v-17l-353 -589h344v-114h-555z" />
    <glyph glyph-name="Eta" unicode="&#x397;" horiz-adv-x="722" 
d="M70 0v720h120v-303h341v303h121v-720h-121v304h-341v-304h-120z" />
    <glyph glyph-name="Theta" unicode="&#x398;" horiz-adv-x="749" 
d="M375 -15q-160 0 -252.5 103t-92.5 272t92.5 272t252.5 103t252 -102.5t92 -272.5t-92 -272.5t-252 -102.5zM375 99q106 -1 161.5 69.5t55.5 191.5t-55.5 190.5t-161.5 70.5t-161.5 -69t-55.5 -192q-1 -121 55 -190.5t162 -70.5zM241 313v94h267v-94h-267z" />
    <glyph glyph-name="Iota" unicode="&#x399;" 
d="M80 0v720h120v-720h-120z" />
    <glyph glyph-name="Kappa" unicode="&#x39a;" horiz-adv-x="647" 
d="M70 0v720h120v-334l288 334h148l-310 -353l331 -367h-153l-304 336v-336h-120z" />
    <glyph glyph-name="Lambda" unicode="&#x39b;" horiz-adv-x="641" 
d="M232 720h177l227 -720h-124l-193 603l-190 -603h-124z" />
    <glyph glyph-name="Mu" unicode="&#x39c;" horiz-adv-x="855" 
d="M70 0v720h108l250 -510l249 510h108v-720h-113v462l-220 -462h-48l-221 462v-462h-113z" />
    <glyph glyph-name="Nu" unicode="&#x39d;" horiz-adv-x="718" 
d="M70 0v720h122l334 -507v507h122v-720h-122l-334 508v-508h-122z" />
    <glyph glyph-name="Xi" unicode="&#x39e;" horiz-adv-x="723" 
d="M70 607v113h583v-113h-583zM120 304v113h483v-113h-483zM70 0v113h583v-113h-583z" />
    <glyph glyph-name="Omicron" unicode="&#x39f;" horiz-adv-x="749" 
d="M375 -15q-160 0 -252.5 103t-92.5 272t92.5 272t252.5 103t252 -102.5t92 -272.5t-92 -272.5t-252 -102.5zM375 99q106 -1 161.5 69.5t55.5 191.5t-55.5 190.5t-161.5 70.5t-161.5 -69t-55.5 -192q-1 -121 55 -190.5t162 -70.5z" />
    <glyph glyph-name="Pi" unicode="&#x3a0;" horiz-adv-x="723" 
d="M70 0v720h583v-720h-120v607h-343v-607h-120z" />
    <glyph glyph-name="Rho" unicode="&#x3a1;" horiz-adv-x="639" 
d="M70 0v720h298q32 0 57 -4q91 -14 137.5 -75.5t46.5 -154.5q0 -92 -47 -154t-137 -77q-25 -4 -57 -4h-178v-251h-120zM190 364h173q27 0 45 5q41 10 60 43.5t19 73.5t-19 73t-60 43q-18 5 -45 5h-173v-243z" />
    <glyph glyph-name="Sigma" unicode="&#x3a3;" horiz-adv-x="635" 
d="M70 0v108l248 252l-248 251v109h495v-113h-343l234 -238v-18l-234 -238h340v-113h-492z" />
    <glyph glyph-name="Tau" unicode="&#x3a4;" horiz-adv-x="607" 
d="M243 0v607h-233v113h587v-113h-233v-607h-121z" />
    <glyph glyph-name="Upsilon" unicode="&#x3a5;" horiz-adv-x="612" 
d="M245 0v295l-245 425h141l165 -287l165 287h141l-245 -425v-295h-122z" />
    <glyph glyph-name="Phi" unicode="&#x3a6;" horiz-adv-x="739" 
d="M309 0v103q-116 -20 -197.5 56t-81.5 222t82 223.5t197 58.5v57h120v-57q115 19 197.5 -58.5t82.5 -223.5t-82 -222t-198 -56v-103h-120zM309 213v341q-81 12 -118.5 -39.5t-37.5 -133.5q0 -81 37.5 -130.5t118.5 -37.5zM429 213q80 -12 118.5 37t38.5 127
q0 80 -38.5 134.5t-118.5 42.5v-341z" />
    <glyph glyph-name="Chi" unicode="&#x3a7;" horiz-adv-x="656" 
d="M10 0l244 364l-237 356h147l165 -253l162 253h149l-237 -356l243 -364h-148l-169 262l-171 -262h-148z" />
    <glyph glyph-name="Psi" unicode="&#x3a8;" horiz-adv-x="753" 
d="M317 0v157q-200 9 -238 170q-9 36 -9 78v315h113v-295q0 -37 7 -63q23 -91 127 -93v451h120v-451q108 2 129 99q5 24 5 57v295h112v-315q0 -46 -9 -76q-40 -163 -237 -172v-157h-120z" />
    <glyph glyph-name="uni03A9" unicode="&#x3a9;" horiz-adv-x="749" 
d="M38 0v113h104q-112 99 -112 268q0 153 95.5 253.5t249.5 100.5t249 -100.5t95 -253.5q0 -169 -112 -268h104v-113h-251v113q53 27 92 93.5t40 156.5q1 110 -58.5 184t-158.5 74t-158 -73.5t-59 -183.5q0 -92 40.5 -157.5t94.5 -93.5v-113h-255z" />
    <glyph glyph-name="Iotadieresis" unicode="&#x3aa;" 
d="M-18 840v110h110v-110h-110zM189 840v110h110v-110h-110zM80 0v720h120v-720h-120z" />
    <glyph glyph-name="Upsilondieresis" unicode="&#x3ab;" horiz-adv-x="612" 
d="M148 840v110h110v-110h-110zM354 840v110h110v-110h-110zM245 0v295l-245 425h141l165 -287l165 287h141l-245 -425v-295h-122z" />
    <glyph glyph-name="alphatonos" unicode="&#x3ac;" horiz-adv-x="611" 
d="M416 735l-38 -120h-119l38 120h119zM452 540h107v-540h-107v55q-60 -70 -163 -70q-113 0 -181 80.5t-68 204.5q0 125 69 205t184 80q101 0 159 -69v54zM308 93q67 0 99.5 47t32.5 130q0 82 -32.5 129.5t-98.5 47.5q-67 0 -104 -47.5t-37 -130.5q0 -78 35 -127t105 -49z
" />
    <glyph glyph-name="epsilontonos" unicode="&#x3ad;" horiz-adv-x="520" 
d="M361 735l-38 -120h-119l38 120h119zM404 170l95 -63q-37 -57 -100.5 -89.5t-140.5 -32.5q-93 0 -155.5 46.5t-62.5 127.5q0 82 60 124q-43 49 -43 111q0 76 57.5 118.5t140.5 42.5q122 0 219 -86l-68 -83q-71 57 -145 57q-35 0 -57.5 -15t-22.5 -45q0 -33 27.5 -45
t79.5 -12h39v-95h-40q-31 0 -48 -1t-37.5 -6.5t-29.5 -18t-9 -33.5q0 -34 26 -54t71 -20q83 0 144 72z" />
    <glyph glyph-name="etatonos" unicode="&#x3ae;" horiz-adv-x="626" 
d="M264 615l38 120h119l-38 -120h-119zM353 555q56 0 98 -21t63 -49t34 -67t15.5 -64.5t2.5 -51.5v-302h-122v260q0 182 -127 182q-54 0 -90 -37t-36 -127v-278h-122v540h108v-60q62 75 176 75z" />
    <glyph glyph-name="iotatonos" unicode="&#x3af;" horiz-adv-x="405" 
d="M81 615l38 120h119l-38 -120h-119zM211 -4q-74 13 -108 68q-7 11 -11.5 23.5t-7 21t-3.5 25.5t-1 24.5v31v31.5v319h120v-313v-17.5v-17.5v-14.5t1 -14.5t2 -11.5t3 -11.5t5 -10q19 -29 59 -33q39 -3 89 4v-101q-29 -8 -75 -9t-73 5z" />
    <glyph glyph-name="upsilondieresistonos" unicode="&#x3b0;" horiz-adv-x="616" 
d="M230 615l38 120h119l-38 -120h-119zM101 615v110h97v-110h-97zM418 615v110h98v-110h-98zM60 247v293h122v-260q0 -182 126 -182t126 182v260h122v-293q0 -38 -3 -67t-17.5 -68t-39.5 -64.5t-73.5 -44t-114.5 -18.5t-114.5 18.5t-73.5 44t-39.5 64.5t-17.5 68t-3 67z" />
    <glyph glyph-name="alpha" unicode="&#x3b1;" horiz-adv-x="629" 
d="M452 540h107v-540h-107v55q-60 -70 -163 -70q-113 0 -181 80.5t-68 204.5q0 125 69 205t184 80q101 0 159 -69v54zM308 93q67 0 99.5 47t32.5 130q0 82 -32.5 129.5t-98.5 47.5q-67 0 -104 -47.5t-37 -130.5q0 -78 35 -127t105 -49z" />
    <glyph glyph-name="beta" unicode="&#x3b2;" horiz-adv-x="604" 
d="M69 -240v780q0 27 9 60q20 66 78 100.5t132 34.5q99 0 163.5 -57.5t64.5 -147.5q0 -86 -61 -132q54 -19 86.5 -69t32.5 -120q0 -104 -70.5 -164t-189.5 -60q-70 0 -124 26v-251h-121zM320 97q60 0 96.5 32t36.5 85q0 57 -43 85.5t-118 29.5v105q48 4 75 28.5t27 65.5
q0 44 -29.5 69t-73.5 25q-64 0 -88 -49q-12 -26 -12 -75v-276q0 -42 7 -61q11 -31 46 -47.5t76 -16.5z" />
    <glyph glyph-name="gamma" unicode="&#x3b3;" horiz-adv-x="553" 
d="M216 -180v180l-196 540h121l136 -391l135 391h121l-196 -540v-180h-121z" />
    <glyph glyph-name="delta" unicode="&#x3b4;" horiz-adv-x="618" 
d="M427 483q71 -29 111 -91.5t40 -145.5q0 -116 -74.5 -188.5t-197.5 -72.5q-119 0 -192.5 69t-73.5 182q0 88 45 150t125 76q-91 49 -91 134q0 49 29 88t94 48q17 3 63 3h164v-98h-136q-40 0 -54 -4q-39 -10 -39 -43q0 -15 10 -27.5t30.5 -23t40.5 -18t52.5 -19t53.5 -19.5
zM310 98q63 0 97 39.5t34 108.5t-34 108t-97 39q-64 0 -98 -39t-34 -108q0 -71 34 -109.5t98 -38.5z" />
    <glyph glyph-name="epsilon" unicode="&#x3b5;" horiz-adv-x="521" 
d="M404 170l95 -63q-37 -57 -100.5 -89.5t-140.5 -32.5q-93 0 -155.5 46.5t-62.5 127.5q0 82 60 124q-43 49 -43 111q0 76 57.5 118.5t140.5 42.5q122 0 219 -86l-68 -83q-71 57 -145 57q-35 0 -57.5 -15t-22.5 -45q0 -33 27.5 -45t79.5 -12h39v-95h-40q-31 0 -48 -1
t-37.5 -6.5t-29.5 -18t-9 -33.5q0 -34 26 -54t71 -20q83 0 144 72z" />
    <glyph glyph-name="zeta" unicode="&#x3b6;" horiz-adv-x="526" 
d="M411 -120q0 29 -4.5 50.5t-16 34.5t-21.5 20.5t-31.5 10.5t-34 3.5t-39.5 0.5q-224 0 -224 198q0 67 31 127.5t112 144.5q49 49 154 143h-267v107h453v-89q-11 -10 -67.5 -63t-158.5 -147q-71 -66 -100.5 -115.5t-29.5 -96.5q0 -60 39.5 -78t121.5 -18q59 0 98 -14
q55 -19 79.5 -76t10.5 -143h-105z" />
    <glyph glyph-name="eta" unicode="&#x3b7;" horiz-adv-x="626" 
d="M353 555q56 0 98 -21t63 -49t34 -67t15.5 -64.5t2.5 -51.5v-302h-122v260q0 182 -127 182q-54 0 -90 -37t-36 -127v-278h-122v540h108v-60q62 75 176 75z" />
    <glyph glyph-name="theta" unicode="&#x3b8;" horiz-adv-x="686" 
d="M343 735q142 0 222.5 -101.5t80.5 -273.5q0 -173 -80.5 -274t-222.5 -101t-222.5 101.5t-80.5 273.5t80.5 273.5t222.5 101.5zM343 621q-77 0 -120.5 -57.5t-52.5 -156.5h347q-9 99 -53 156.5t-121 57.5zM343 99q77 0 121 57.5t53 156.5h-347q8 -99 52 -156.5t121 -57.5z
" />
    <glyph glyph-name="iota" unicode="&#x3b9;" horiz-adv-x="405" 
d="M211 -4q-74 13 -108 68q-7 11 -11.5 23.5t-7 21t-3.5 25.5t-1 24.5v31v31.5v319h120v-313v-17.5v-17.5v-14.5t1 -14.5t2 -11.5t3 -11.5t5 -10q19 -29 59 -33q39 -3 89 4v-101q-29 -8 -75 -9t-73 5z" />
    <glyph glyph-name="kappa" unicode="&#x3ba;" horiz-adv-x="538" 
d="M69 0l1 540h122v-260l198 260h150l-209 -270l227 -270h-159l-207 260v-260h-123z" />
    <glyph glyph-name="lambda" unicode="&#x3bb;" horiz-adv-x="573" 
d="M40 0l196 540q-20 50 -44.5 70t-74.5 20h-26v105h37q51 0 81 -7q25 -6 45.5 -20t34.5 -29t27.5 -41.5t21 -45.5t19.5 -52l196 -540h-121l-135 392l-136 -392h-121z" />
    <glyph glyph-name="uni03BC" unicode="&#x3bc;" horiz-adv-x="635" 
d="M69 -240v780h122v-260q0 -182 126 -182q55 0 91 37.5t36 127.5v277h121v-540h-107v61q-62 -76 -176 -76q-65 0 -106 29v-254h-107z" />
    <glyph glyph-name="nu" unicode="&#x3bd;" horiz-adv-x="553" 
d="M216 0l-196 540h121l136 -391l135 391h121l-196 -540h-121z" />
    <glyph glyph-name="xi" unicode="&#x3be;" horiz-adv-x="573" 
d="M460 -120q3 34 -2.5 56.5t-15.5 35t-32 19t-42 8t-56 1.5q-137 0 -204.5 57t-67.5 158q0 129 100 168q-71 61 -71 156q0 67 37 112.5t91 64.5t119 19q155 0 244 -106l-85 -86q-52 79 -159 79q-54 0 -87 -22t-33 -65q0 -88 131 -95q18 -1 70 -1v-113l-81 -2
q-74 -3 -111 -25t-37 -75q0 -60 48.5 -85t136.5 -26q81 -2 115 -14q60 -20 88.5 -76t9.5 -143h-106z" />
    <glyph glyph-name="omicron" unicode="&#x3bf;" horiz-adv-x="618" 
d="M309 -15q-121 0 -195 79.5t-74 205.5q0 127 74.5 206t194.5 79q121 0 195 -79.5t74 -205.5t-74.5 -205.5t-194.5 -79.5zM309 98q69 0 105.5 47t36.5 125q0 80 -36.5 126t-105.5 46q-70 0 -105.5 -46t-35.5 -126t36 -126t105 -46z" />
    <glyph glyph-name="pi" unicode="&#x3c0;" horiz-adv-x="675" 
d="M123 0v433h-86v107h601v-107h-86v-433h-121v433h-187v-433h-121z" />
    <glyph glyph-name="rho" unicode="&#x3c1;" horiz-adv-x="635" 
d="M69 -240v472q0 71 6 104q17 100 85 159.5t174 59.5q122 0 191.5 -79t69.5 -204q0 -126 -68 -206.5t-180 -80.5q-98 0 -157 59v-284h-121zM331 93q70 0 107 48.5t37 129.5q0 82 -37 129t-107 47q-71 0 -106 -47t-35 -130q0 -82 36 -129.5t105 -47.5z" />
    <glyph glyph-name="uni03C2" unicode="&#x3c2;" horiz-adv-x="576" 
d="M427 -120q0 22 -2 39t-8.5 29t-12 20.5t-19 14t-21.5 9t-27.5 5t-29 2t-34.5 1.5q-107 4 -170 70.5t-63 188.5q0 137 71.5 216.5t194.5 79.5q92 0 155.5 -46t83.5 -126l-120 -33q-30 92 -124 92q-64 0 -94.5 -47t-30.5 -127q0 -73 30.5 -113.5t112.5 -41.5q83 0 123 -14
q56 -20 80 -77.5t11 -141.5h-106z" />
    <glyph glyph-name="sigma" unicode="&#x3c3;" horiz-adv-x="637" 
d="M608 540v-107h-83q53 -73 53 -170q0 -119 -75 -198.5t-194 -79.5t-194 79.5t-75 198.5q0 101 54.5 174t145.5 95q35 8 142 8h226zM309 98q68 0 105 46t37 119q0 72 -37 118t-105 46q-69 0 -105 -46t-36 -118q0 -75 36.5 -120t104.5 -45z" />
    <glyph glyph-name="tau" unicode="&#x3c4;" horiz-adv-x="553" 
d="M337 -4q-75 13 -109 68q-7 11 -11 23.5t-6.5 21.5t-3.5 25.5t-1 24.5v30.5v31.5v212h-181v107h482v-107h-181v-206v-17.5v-17.5v-14.5t1 -14.5t2 -11.5t3 -11.5t5 -10q17 -29 59 -33q40 -3 88 4v-101q-29 -8 -74.5 -9t-72.5 5z" />
    <glyph glyph-name="upsilon" unicode="&#x3c5;" horiz-adv-x="616" 
d="M60 247v293h122v-260q0 -182 126 -182t126 182v260h122v-293q0 -38 -3 -67t-17.5 -68t-39.5 -64.5t-73.5 -44t-114.5 -18.5t-114.5 18.5t-73.5 44t-39.5 64.5t-17.5 68t-3 67z" />
    <glyph glyph-name="phi" unicode="&#x3c6;" horiz-adv-x="756" 
d="M323 -225v216q-122 -19 -202.5 56.5t-80.5 222.5q0 146 81 222t202 57v163h107v-163q121 19 202 -57t81 -222q0 -147 -80.5 -222.5t-202.5 -56.5v-216h-107zM323 99v342q-79 13 -119.5 -33.5t-40.5 -137.5t42 -137.5t118 -33.5zM430 99q77 -13 119 33t42 138
q0 93 -41 138.5t-120 32.5v-342z" />
    <glyph glyph-name="chi" unicode="&#x3c7;" horiz-adv-x="554" 
d="M10 0l198 273l-194 267h142l122 -173l119 173h142l-193 -267l198 -273h-142l-124 179l-126 -179h-142z" />
    <glyph glyph-name="psi" unicode="&#x3c8;" horiz-adv-x="733" 
d="M309 -225v198q-202 9 -240 171q-9 35 -9 77v319h113v-299q0 -37 7 -63q23 -91 129 -93v455h115v-455q111 2 132 100q5 23 5 56v299h112v-319q0 -45 -9 -76q-40 -163 -240 -172v-198h-115z" />
    <glyph glyph-name="omega" unicode="&#x3c9;" horiz-adv-x="798" 
d="M607 555q73 -46 112 -125.5t39 -175.5q0 -117 -56.5 -193t-155.5 -76q-108 0 -147 89q-39 -89 -146 -89q-100 0 -156.5 77t-56.5 193q0 96 39.5 175.5t111.5 124.5l82 -96q-56 -43 -80.5 -88.5t-24.5 -110.5q0 -71 26.5 -116t74.5 -45q21 0 35.5 10.5t22 24.5t11.5 42
t4.5 49.5t0.5 59.5v57h112v-57q0 -48 1.5 -75t8.5 -56t22.5 -42t41.5 -13q49 0 75 45.5t26 115.5q0 66 -24.5 111t-80.5 88z" />
    <glyph glyph-name="iotadieresis" unicode="&#x3ca;" horiz-adv-x="402" 
d="M-18 615v110h110v-110h-110zM189 615v110h110v-110h-110zM211 -4q-74 13 -108 68q-7 11 -11.5 23.5t-7 21t-3.5 25.5t-1 24.5v31v31.5v319h120v-313v-17.5v-17.5v-14.5t1 -14.5t2 -11.5t3 -11.5t5 -10q19 -29 59 -33q39 -3 89 4v-101q-29 -8 -75 -9t-73 5z" />
    <glyph glyph-name="upsilondieresis" unicode="&#x3cb;" horiz-adv-x="616" 
d="M150 615v110h110v-110h-110zM357 615v110h110v-110h-110zM60 247v293h122v-260q0 -182 126 -182t126 182v260h122v-293q0 -38 -3 -67t-17.5 -68t-39.5 -64.5t-73.5 -44t-114.5 -18.5t-114.5 18.5t-73.5 44t-39.5 64.5t-17.5 68t-3 67z" />
    <glyph glyph-name="omicrontonos" unicode="&#x3cc;" horiz-adv-x="618" 
d="M247 615l38 120h119l-38 -120h-119zM309 -15q-121 0 -195 79.5t-74 205.5q0 127 74.5 206t194.5 79q121 0 195 -79.5t74 -205.5t-74.5 -205.5t-194.5 -79.5zM309 98q69 0 105.5 47t36.5 125q0 80 -36.5 126t-105.5 46q-70 0 -105.5 -46t-35.5 -126t36 -126t105 -46z" />
    <glyph glyph-name="upsilontonos" unicode="&#x3cd;" horiz-adv-x="616" 
d="M260 615l38 120h119l-38 -120h-119zM60 247v293h122v-260q0 -182 126 -182t126 182v260h122v-293q0 -38 -3 -67t-17.5 -68t-39.5 -64.5t-73.5 -44t-114.5 -18.5t-114.5 18.5t-73.5 44t-39.5 64.5t-17.5 68t-3 67z" />
    <glyph glyph-name="omegatonos" unicode="&#x3ce;" horiz-adv-x="798" 
d="M495 735l-38 -120h-119l38 120h119zM607 555q73 -46 112 -125.5t39 -175.5q0 -117 -56.5 -193t-155.5 -76q-108 0 -147 89q-39 -89 -146 -89q-100 0 -156.5 77t-56.5 193q0 96 39.5 175.5t111.5 124.5l82 -96q-56 -43 -80.5 -88.5t-24.5 -110.5q0 -71 26.5 -116t74.5 -45
q21 0 35.5 10.5t22 24.5t11.5 42t4.5 49.5t0.5 59.5v57h112v-57q0 -48 1.5 -75t8.5 -56t22.5 -42t41.5 -13q49 0 75 45.5t26 115.5q0 66 -24.5 111t-80.5 88z" />
    <glyph glyph-name="uni0400" unicode="&#x400;" horiz-adv-x="585" 
d="M426 785l-267 96l30 88l268 -96zM70 0v720h465v-113h-345v-178h285v-112h-285v-204h345v-113h-465z" />
    <glyph glyph-name="uni0401" unicode="&#x401;" horiz-adv-x="585" 
d="M141 840v110h110v-110h-110zM348 840v110h110v-110h-110zM70 0v720h465v-113h-345v-178h285v-112h-285v-204h345v-113h-465z" />
    <glyph glyph-name="uni0402" unicode="&#x402;" horiz-adv-x="676" 
d="M78 0v613h-78v107h345v-107h-160v-126q68 68 193 68q124 0 191 -70.5t67 -204.5q0 -133 -66.5 -206.5t-201.5 -73.5v122q146 0 146 158q0 159 -153 159q-61 0 -99.5 -24.5t-51.5 -66.5q-10 -32 -10 -92v-256h-122z" />
    <glyph glyph-name="uni0403" unicode="&#x403;" horiz-adv-x="545" 
d="M151 785l-31 88l268 96l31 -88zM70 0v720h465v-113h-345v-607h-120z" />
    <glyph glyph-name="uni0404" unicode="&#x404;" horiz-adv-x="723" 
d="M371 -15q-156 0 -247 106.5t-91 268.5q1 169 91.5 272t246.5 103q127 0 211 -64.5t111 -182.5l-121 -17q-18 69 -69.5 109t-124.5 41q-90 1 -146 -54.5t-69 -149.5h256v-113h-255q10 -79 48 -129q54 -74 166 -76q70 -1 120.5 38.5t71.5 104.5l118 -29
q-33 -113 -114.5 -170.5t-202.5 -57.5z" />
    <glyph glyph-name="uni0405" unicode="&#x405;" horiz-adv-x="657" 
d="M337 -15q-119 0 -200.5 61.5t-98.5 166.5l126 19q15 -63 64 -98.5t116 -35.5q61 0 105 28t44 75q0 59 -80 84l-186 54q-30 9 -53 20t-50.5 31.5t-42.5 54.5t-15 79q0 101 74.5 156t189.5 54q111 -1 185 -56t99 -155l-130 -22q-12 55 -55.5 87t-100.5 33q-55 2 -95 -24
t-40 -67q0 -36 28.5 -55t75.5 -32l129 -35q30 -9 48 -15t49 -22t49 -35t32.5 -52t14.5 -74q0 -107 -82 -166t-200 -59z" />
    <glyph glyph-name="uni0406" unicode="&#x406;" 
d="M80 0v720h120v-720h-120z" />
    <glyph glyph-name="uni0407" unicode="&#x407;" 
d="M-18 840v110h110v-110h-110zM189 840v110h110v-110h-110zM80 0v720h120v-720h-120z" />
    <glyph glyph-name="uni0408" unicode="&#x408;" horiz-adv-x="501" 
d="M214 -15q-81 0 -136.5 42.5t-77.5 116.5l119 29q5 -31 31.5 -53t58.5 -22q24 0 47 12t33 36q10 21 10 89v485h122v-485v-21v-20v-17t-1 -17t-2 -15t-3 -16t-4.5 -14.5t-6 -15.5l-7.5 -15q-57 -99 -183 -99z" />
    <glyph glyph-name="uni0409" unicode="&#x409;" horiz-adv-x="1100" 
d="M876 465q90 -15 137 -77t47 -154t-46.5 -154t-137.5 -76q-24 -4 -57 -4h-298v607h-249q-17 -261 -46 -413q-5 -28 -10.5 -49.5t-13 -43.5t-16.5 -38t-21 -30t-27 -22.5t-34 -13t-42.5 -4t-51.5 6.5v101q48 -4 68.5 24t35.5 115q33 176 47 480h481v-251h177q33 0 57 -4z
M859 118q41 10 60 43t19 73t-19 73.5t-60 43.5q-17 5 -45 5h-172v-243h172q28 0 45 5z" />
    <glyph glyph-name="uni040A" unicode="&#x40a;" horiz-adv-x="1102" 
d="M879 465q90 -15 136.5 -76.5t46.5 -154.5q0 -92 -46 -154t-137 -76q-25 -4 -58 -4h-297v355h-334v-355h-120v720h120v-252h334v252h120v-251h177q33 0 58 -4zM862 118q41 10 60 43t19 73t-19 73.5t-60 43.5q-18 5 -46 5h-172v-243h172q28 0 46 5z" />
    <glyph glyph-name="uni040B" unicode="&#x40b;" horiz-adv-x="676" 
d="M359 483q247 0 247 -278v-205h-122v168q0 35 -2 59.5t-11 53.5t-24.5 46.5t-44.5 29.5t-69 12q-89 0 -142 -45v-324h-121v613h-70v107h345v-107h-154v-169q64 39 168 39z" />
    <glyph glyph-name="uni040C" unicode="&#x40c;" horiz-adv-x="647" 
d="M227 785l-31 88l268 96l31 -88zM70 0v720h120v-334l288 334h148l-310 -353l331 -367h-153l-304 336v-336h-120z" />
    <glyph glyph-name="uni040D" unicode="&#x40d;" horiz-adv-x="718" 
d="M485 785l-268 96l30 88l269 -96zM70 0v720h122v-507l334 507h122v-720h-122v508l-334 -508h-122z" />
    <glyph glyph-name="uni040E" unicode="&#x40e;" horiz-adv-x="637" 
d="M329 780q-63 0 -107 44.5t-44 107.5h94q0 -24 16.5 -41t40.5 -17t41 17t17 41h94q0 -63 -44.5 -107.5t-107.5 -44.5zM165 0l95 194l-248 526h136l175 -399l181 399h128l-338 -720h-129z" />
    <glyph glyph-name="uni040F" unicode="&#x40f;" horiz-adv-x="768" 
d="M324 -120v120h-254v720h120v-607h388v607h120v-720h-254v-120h-120z" />
    <glyph glyph-name="uni0410" unicode="&#x410;" horiz-adv-x="671" 
d="M527 0l-50 156h-284l-49 -156h-124l227 720h177l227 -720h-124zM229 269h212l-107 335z" />
    <glyph glyph-name="uni0411" unicode="&#x411;" horiz-adv-x="639" 
d="M70 0v720h482v-113h-362v-155h178q28 0 57 -3q88 -10 136 -72t48 -151t-48 -151t-136 -72q-29 -3 -57 -3h-298zM190 113h173q26 0 45 4q42 9 60.5 39.5t18.5 69.5t-18.5 70t-60.5 39q-19 4 -45 4h-173v-226z" />
    <glyph glyph-name="uni0412" unicode="&#x412;" horiz-adv-x="631" 
d="M495 379q51 -21 78.5 -65t27.5 -100q0 -98 -56 -156t-160 -58h-315v720h286q102 0 157 -59t55 -139q0 -99 -73 -143zM192 607v-174h162q41 0 66 22.5t25 64.5q0 38 -24.5 62.5t-66.5 24.5h-162zM370 114q48 0 78.5 28.5t30.5 75.5q0 45 -28.5 73.5t-77.5 28.5h-181v-206
h178z" />
    <glyph glyph-name="uni0413" unicode="&#x413;" horiz-adv-x="545" 
d="M70 0v720h465v-113h-345v-607h-120z" />
    <glyph glyph-name="uni0414" unicode="&#x414;" horiz-adv-x="752" 
d="M32 -120v233q64 0 92 59t38 167q5 61 27 382l469 -1v-607h54v-233h-120v120h-440v-120h-120zM219 113h319v494l-239 1q-18 -266 -20 -291q-9 -88 -19.5 -128t-40.5 -76z" />
    <glyph glyph-name="uni0415" unicode="&#x415;" horiz-adv-x="585" 
d="M70 0v720h465v-113h-345v-178h285v-112h-285v-204h345v-113h-465z" />
    <glyph glyph-name="uni0416" unicode="&#x416;" horiz-adv-x="916" 
d="M10 0l271 367l-250 353h144l223 -326v326h120v-326l223 326h144l-250 -353l271 -367h-149l-239 328v-328h-120v328l-239 -328h-149z" />
    <glyph glyph-name="uni0417" unicode="&#x417;" horiz-adv-x="649" 
d="M325 -15q-106 0 -179 44t-108 110l103 70q48 -110 189 -110q76 0 115 32.5t39 81.5q0 93 -149 97l-81 2v114q52 0 70 1q59 2 95 27t36 71q0 45 -34 71t-91 26q-51 0 -91.5 -22.5t-62.5 -56.5l-85 86q39 47 102 76.5t140 29.5q103 0 176 -53t73 -153q0 -104 -71 -160
q100 -41 100 -156q0 -104 -81 -166t-205 -62z" />
    <glyph glyph-name="uni0418" unicode="&#x418;" horiz-adv-x="718" 
d="M648 0h-122v508l-334 -508h-122v720h122v-507l334 507h122v-720z" />
    <glyph glyph-name="uni0419" unicode="&#x419;" horiz-adv-x="718" 
d="M359 780q-63 0 -107.5 44.5t-44.5 107.5h94q0 -24 17 -41t41 -17t40.5 17t16.5 41h94q0 -63 -44.5 -107.5t-106.5 -44.5zM70 0v720h122v-507l334 507h122v-720h-122v508l-334 -508h-122z" />
    <glyph glyph-name="uni041A" unicode="&#x41a;" horiz-adv-x="647" 
d="M70 0v720h120v-334l288 334h148l-310 -353l331 -367h-153l-304 336v-336h-120z" />
    <glyph glyph-name="uni041B" unicode="&#x41b;" horiz-adv-x="722" 
d="M20 0v101q48 -4 68.5 24t35.5 115q33 176 47 480h481v-720h-120v607h-250q-17 -261 -46 -413q-5 -28 -10.5 -49.5t-13 -43.5t-16.5 -38t-21 -30t-27 -22.5t-34 -13t-42.5 -4t-51.5 6.5z" />
    <glyph glyph-name="uni041C" unicode="&#x41c;" horiz-adv-x="855" 
d="M70 0v720h108l250 -510l249 510h108v-720h-113v462l-220 -462h-48l-221 462v-462h-113z" />
    <glyph glyph-name="uni041D" unicode="&#x41d;" horiz-adv-x="722" 
d="M70 0v720h120v-303h341v303h121v-720h-121v304h-341v-304h-120z" />
    <glyph glyph-name="uni041E" unicode="&#x41e;" horiz-adv-x="749" 
d="M375 -15q-160 0 -252.5 103t-92.5 272t92.5 272t252.5 103t252 -102.5t92 -272.5t-92 -272.5t-252 -102.5zM375 99q106 -1 161.5 69.5t55.5 191.5t-55.5 190.5t-161.5 70.5t-161.5 -69t-55.5 -192q-1 -121 55 -190.5t162 -70.5z" />
    <glyph glyph-name="uni041F" unicode="&#x41f;" horiz-adv-x="723" 
d="M70 0v720h583v-720h-120v607h-343v-607h-120z" />
    <glyph glyph-name="uni0420" unicode="&#x420;" horiz-adv-x="639" 
d="M70 0v720h298q32 0 57 -4q91 -14 137.5 -75.5t46.5 -154.5q0 -92 -47 -154t-137 -77q-25 -4 -57 -4h-178v-251h-120zM190 364h173q27 0 45 5q41 10 60 43.5t19 73.5t-19 73t-60 43q-18 5 -45 5h-173v-243z" />
    <glyph glyph-name="uni0421" unicode="&#x421;" horiz-adv-x="738" 
d="M375 -15q-160 0 -252.5 103t-92.5 272t92.5 272t252.5 103q122 0 205.5 -61t117.5 -169l-121 -33q-45 149 -202 149q-106 0 -162 -70t-56 -191q-1 -121 55.5 -191t162.5 -70q157 0 202 150l121 -34q-34 -108 -117.5 -169t-205.5 -61z" />
    <glyph glyph-name="uni0422" unicode="&#x422;" horiz-adv-x="607" 
d="M243 0v607h-233v113h587v-113h-233v-607h-121z" />
    <glyph glyph-name="uni0423" unicode="&#x423;" horiz-adv-x="637" 
d="M165 0l95 194l-248 526h136l175 -399l181 399h128l-338 -720h-129z" />
    <glyph glyph-name="uni0424" unicode="&#x424;" horiz-adv-x="739" 
d="M309 0v103q-116 -20 -197.5 56t-81.5 222t82 223.5t197 58.5v57h120v-57q115 19 197.5 -58.5t82.5 -223.5t-82 -222t-198 -56v-103h-120zM309 213v341q-81 12 -118.5 -39.5t-37.5 -133.5q0 -81 37.5 -130.5t118.5 -37.5zM429 213q80 -12 118.5 37t38.5 127
q0 80 -38.5 134.5t-118.5 42.5v-341z" />
    <glyph glyph-name="uni0425" unicode="&#x425;" horiz-adv-x="656" 
d="M10 0l244 364l-237 356h147l165 -253l162 253h149l-237 -356l243 -364h-148l-169 262l-171 -262h-148z" />
    <glyph glyph-name="uni0426" unicode="&#x426;" horiz-adv-x="750" 
d="M620 -113v113h-550v720h120v-613h350v596h120v-596h80v-220h-120z" />
    <glyph glyph-name="uni0427" unicode="&#x427;" horiz-adv-x="676" 
d="M485 720h121v-720h-121v276q-64 -39 -168 -39q-247 0 -247 278v205h122v-168q0 -35 2 -59.5t11 -53.5t24.5 -46.5t44.5 -29.5t69 -12q89 0 142 45v324z" />
    <glyph glyph-name="uni0428" unicode="&#x428;" horiz-adv-x="947" 
d="M70 0v720h120v-607h223v607h121v-607h222v607h121v-720h-807z" />
    <glyph glyph-name="uni0429" unicode="&#x429;" horiz-adv-x="967" 
d="M877 107h80v-220h-121v113h-766v720h120v-607h223v607h121v-607h222v607h121v-613z" />
    <glyph glyph-name="uni042A" unicode="&#x42a;" horiz-adv-x="659" 
d="M97 0v626h-99v94h219v-251h177q33 0 58 -4q90 -15 136.5 -76.5t46.5 -154.5q0 -92 -46 -154t-137 -76q-25 -4 -58 -4h-297zM217 113h172q29 0 46 5q41 10 60 43t19 73t-19 73.5t-60 43.5q-17 5 -46 5h-172v-243z" />
    <glyph glyph-name="uni042B" unicode="&#x42b;" horiz-adv-x="870" 
d="M69 0v720h121v-251h177q33 0 57 -4q90 -15 137 -77t47 -154t-46.5 -154t-137.5 -76q-24 -4 -57 -4h-298zM679 0v720h121v-720h-121zM190 113h172q28 0 45 5q41 10 60 43t19 73t-19 73.5t-60 43.5q-17 5 -45 5h-172v-243z" />
    <glyph glyph-name="uni042C" unicode="&#x42c;" horiz-adv-x="648" 
d="M69 0v720h121v-251h177q33 0 57 -4q90 -15 137 -77t47 -154t-46.5 -154t-137.5 -76q-24 -4 -57 -4h-298zM190 113h172q28 0 45 5q41 10 60 43t19 73t-19 73.5t-60 43.5q-17 5 -45 5h-172v-243z" />
    <glyph glyph-name="uni042D" unicode="&#x42d;" horiz-adv-x="720" 
d="M352 -15q-121 0 -202.5 57.5t-114.5 170.5l118 29q21 -65 71.5 -104.5t120.5 -38.5q112 2 166 76q38 50 48 129h-255v113h256q-13 94 -69 149.5t-146 54.5q-73 -1 -124.5 -41t-69.5 -109l-121 17q27 118 111 182.5t211 64.5q156 0 246.5 -103t91.5 -272
q0 -162 -91 -268.5t-247 -106.5z" />
    <glyph glyph-name="uni042E" unicode="&#x42e;" horiz-adv-x="946" 
d="M613 735q142 0 222.5 -101.5t80.5 -273.5q0 -173 -80.5 -274t-222.5 -101q-129 0 -207.5 84t-92.5 231h-123v-300h-120v720h120v-300h123q14 147 92.5 231t207.5 84zM613 99q86 0 131 71t45 190t-45 190t-131 71t-130.5 -71t-44.5 -190q-1 -118 44 -189.5t131 -71.5z" />
    <glyph glyph-name="uni042F" unicode="&#x42f;" horiz-adv-x="660" 
d="M293 720h297v-720h-120v251h-171l-122 -251h-137l133 273q-121 55 -121 213q0 93 46 154.5t137 75.5q25 4 58 4zM470 364v243h-172q-28 0 -46 -5q-41 -10 -60 -43t-19 -73t19 -73.5t60 -43.5q18 -5 46 -5h172z" />
    <glyph glyph-name="uni0430" unicode="&#x430;" horiz-adv-x="576" 
d="M496 455q20 -40 20 -124v-331h-105v73q-67 -88 -190 -88q-85 0 -133 46.5t-48 116.5q0 119 123 162q61 19 235 43q-3 48 -29.5 70t-81.5 22q-40 0 -72.5 -18.5t-44.5 -57.5l-111 35q21 71 78.5 111t150.5 40q157 0 208 -100zM384 171q11 26 13 84q-135 -22 -173 -34
q-66 -25 -66 -71q0 -31 22.5 -50t64.5 -19q56 0 92.5 28t46.5 62z" />
    <glyph glyph-name="uni0431" unicode="&#x431;" horiz-adv-x="599" 
d="M295 -16q-114 1 -178.5 73t-73.5 200q-6 68 3.5 150.5t30.5 132.5q30 70 94 114q40 27 89.5 41t130 24t110.5 16l11 -107q-26 -6 -86 -12t-110.5 -15.5t-80.5 -28.5q-69 -43 -78 -150q56 84 171 84q105 0 168 -73t63 -184q0 -119 -73.5 -193t-190.5 -72zM301 97
q63 0 97 39.5t34 108.5t-34.5 108t-96.5 39q-64 0 -97.5 -39t-33.5 -108q0 -71 34 -109.5t97 -38.5z" />
    <glyph glyph-name="uni0432" unicode="&#x432;" horiz-adv-x="559" 
d="M69 0v540h246q54 0 89 -11q43 -12 70.5 -46.5t27.5 -89.5q0 -61 -39 -94q-16 -13 -36 -20q22 -4 37 -12q65 -30 65 -114q0 -54 -26.5 -91.5t-76.5 -51.5q-36 -10 -91 -10h-266zM191 317h100q36 0 55 8q32 14 32 56q0 47 -36 59q-18 6 -53 6h-98v-129zM191 93h135
q24 0 45 8q35 11 35 57t-42 59q-13 5 -40 5h-133v-129z" />
    <glyph glyph-name="uni0433" unicode="&#x433;" horiz-adv-x="480" 
d="M70 0v540h385v-113h-265v-427h-120z" />
    <glyph glyph-name="uni0434" unicode="&#x434;" horiz-adv-x="633" 
d="M30 -120v215q43 0 62 29t30 105q17 114 25 311h402v-445h54v-215h-113v120h-346v-120h-114zM192 95h237v351h-176q-10 -165 -20 -236q-6 -46 -14.5 -71.5t-26.5 -43.5z" />
    <glyph glyph-name="uni0435" unicode="&#x435;" horiz-adv-x="602" 
d="M170 236q7 -67 42.5 -102.5t96.5 -35.5q91 0 126 77l119 -36q-30 -73 -94.5 -113.5t-144.5 -40.5q-122 0 -198.5 78t-76.5 201q0 132 74.5 211.5t194.5 79.5q125 0 193 -86.5t58 -232.5h-390zM314 450q-120 0 -141 -122h265q-8 63 -38 92.5t-86 29.5z" />
    <glyph glyph-name="uni0436" unicode="&#x436;" horiz-adv-x="766" 
d="M10 0l198 270l-186 270h132l175 -262v262h107v-262l176 262h132l-186 -270l198 -270h-139l-181 262v-262h-107v262l-180 -262h-139z" />
    <glyph glyph-name="uni0437" unicode="&#x437;" horiz-adv-x="520" 
d="M421 283q59 -42 59 -124q0 -81 -62.5 -127.5t-155.5 -46.5q-77 0 -140.5 32.5t-99.5 89.5l95 63q59 -72 143 -72q45 0 71 20t26 54q0 21 -9 33.5t-29.5 18t-37.5 6.5t-48 1h-40v95h40q51 0 79 12t28 45q0 30 -23 45t-57 15q-76 0 -145 -57l-68 83q96 86 218 86
q83 0 140.5 -42.5t57.5 -118.5q0 -62 -42 -111z" />
    <glyph glyph-name="uni0438" unicode="&#x438;" horiz-adv-x="608" 
d="M538 540v-540h-115v353l-257 -353h-97v540h116v-343l257 343h96z" />
    <glyph glyph-name="uni0439" unicode="&#x439;" horiz-adv-x="608" 
d="M320 600q-63 0 -107.5 44.5t-44.5 107.5h94q0 -24 17 -41t41 -17t40.5 17t16.5 41h94q0 -63 -44.5 -107.5t-106.5 -44.5zM538 540v-540h-115v353l-257 -353h-97v540h116v-343l257 343h96z" />
    <glyph glyph-name="uni043A" unicode="&#x43a;" horiz-adv-x="538" 
d="M69 0l1 540h122v-260l198 260h150l-209 -270l227 -270h-159l-207 260v-260h-123z" />
    <glyph glyph-name="uni043B" unicode="&#x43b;" horiz-adv-x="605" 
d="M20 0v101q42 -8 58 9.5t25 68.5q21 112 34 361h398v-540h-120v427h-171q-17 -214 -33 -294q-17 -91 -59 -122t-132 -11z" />
    <glyph glyph-name="uni043C" unicode="&#x43c;" horiz-adv-x="724" 
d="M69 0v540h99l194 -373l193 373h99v-540h-115v298l-153 -298h-48l-153 298v-298h-116z" />
    <glyph glyph-name="uni043D" unicode="&#x43d;" horiz-adv-x="623" 
d="M69 0v540h121v-213h242v213h121v-540h-121v214h-242v-214h-121z" />
    <glyph glyph-name="uni043E" unicode="&#x43e;" horiz-adv-x="618" 
d="M309 -15q-121 0 -195 79.5t-74 205.5q0 127 74.5 206t194.5 79q121 0 195 -79.5t74 -205.5t-74.5 -205.5t-194.5 -79.5zM309 98q69 0 105.5 47t36.5 125q0 80 -36.5 126t-105.5 46q-70 0 -105.5 -46t-35.5 -126t36 -126t105 -46z" />
    <glyph glyph-name="uni043F" unicode="&#x43f;" horiz-adv-x="608" 
d="M69 0v540h469v-540h-120v427h-228v-427h-121z" />
    <glyph glyph-name="uni0440" unicode="&#x440;" horiz-adv-x="616" 
d="M325 555q113 0 182 -80t69 -205q0 -123 -68 -204t-179 -81q-80 0 -139 43v-268h-121v780h107v-38q59 53 149 53zM311 93q68 0 103 49.5t35 127.5t-36 127.5t-106 49.5q-66 0 -98.5 -47.5t-32.5 -129.5q0 -177 135 -177z" />
    <glyph glyph-name="uni0441" unicode="&#x441;" horiz-adv-x="576" 
d="M305 -15q-122 0 -193 79.5t-72 205.5q1 126 73 205.5t193 79.5q92 0 155.5 -46t83.5 -126l-120 -33q-13 43 -45.5 67.5t-74.5 24.5q-68 0 -102.5 -47t-34.5 -125q0 -79 35 -125.5t102 -46.5q88 0 117 85l123 -27q-25 -82 -87.5 -126.5t-152.5 -44.5z" />
    <glyph glyph-name="uni0442" unicode="&#x442;" horiz-adv-x="532" 
d="M206 0v433h-181v107h482v-107h-181v-433h-120z" />
    <glyph glyph-name="uni0443" unicode="&#x443;" horiz-adv-x="559" 
d="M434 540h121l-301 -780h-113l89 243l-218 537h125l151 -386z" />
    <glyph glyph-name="uni0444" unicode="&#x444;" horiz-adv-x="753" 
d="M323 -225v216q-122 -19 -202.5 56.5t-80.5 222.5q0 146 81 222t202 57v163h107v-163q121 19 202 -57t81 -222q0 -147 -80.5 -222.5t-202.5 -56.5v-216h-107zM323 99v342q-79 13 -119.5 -33.5t-40.5 -137.5t42 -137.5t118 -33.5zM430 99q77 -13 119 33t42 138
q0 93 -41 138.5t-120 32.5v-342z" />
    <glyph glyph-name="uni0445" unicode="&#x445;" horiz-adv-x="554" 
d="M10 0l198 273l-194 267h142l122 -173l119 173h142l-193 -267l198 -273h-142l-124 179l-126 -179h-142z" />
    <glyph glyph-name="uni0446" unicode="&#x446;" horiz-adv-x="652" 
d="M522 -113v113h-453v540h121v-427h228v427h120v-433h104v-220h-120z" />
    <glyph glyph-name="uni0447" unicode="&#x447;" horiz-adv-x="576" 
d="M384 0v182q-60 -31 -138 -31q-167 0 -198 147q-8 41 -8 111v131h122v-131q0 -47 7 -74q9 -40 34 -58.5t72 -18.5q66 0 109 33v249h122v-540h-122z" />
    <glyph glyph-name="uni0448" unicode="&#x448;" horiz-adv-x="790" 
d="M69 0v540h116v-433h152v433h116v-433h152v433h115v-540h-651z" />
    <glyph glyph-name="uni0449" unicode="&#x449;" horiz-adv-x="781" 
d="M651 -113v113h-582v540h116v-433h152v433h116v-433h152v433h115v-433h51v-220h-120z" />
    <glyph glyph-name="uni044A" unicode="&#x44a;" horiz-adv-x="598" 
d="M99 0l-1 446h-78v94h199v-180h97q67 0 98 -6q144 -30 144 -175q0 -139 -140 -172q-32 -7 -101 -7h-218zM219 95h109q33 0 50 5q24 6 40.5 28t16.5 51q0 32 -17 53.5t-43 28.5q-20 5 -47 5h-109v-171z" />
    <glyph glyph-name="uni044B" unicode="&#x44b;" horiz-adv-x="739" 
d="M69 0v540h121v-180h60q68 0 98 -6q144 -30 144 -175q0 -139 -140 -172q-32 -7 -100 -7h-183zM549 0v540h120v-540h-120zM190 95h72q34 0 50 5q24 6 41 28t17 51q0 32 -17.5 53.5t-43.5 28.5q-20 5 -47 5h-72v-171z" />
    <glyph glyph-name="uni044C" unicode="&#x44c;" horiz-adv-x="569" 
d="M69 0v540h121v-180h97q67 0 98 -6q144 -30 144 -175q0 -139 -141 -172q-30 -7 -100 -7h-219zM190 95h109q33 0 50 5q24 6 40.5 28t16.5 51q0 32 -17 53.5t-43 28.5q-20 5 -47 5h-109v-171z" />
    <glyph glyph-name="uni044D" unicode="&#x44d;" horiz-adv-x="577" 
d="M272 -15q-90 0 -152.5 44.5t-87.5 126.5l122 27q29 -85 118 -85q56 0 90 33.5t43 91.5h-180v95h180q-9 56 -42 90t-88 34q-44 0 -76.5 -24t-46.5 -68l-120 33q19 80 83 126t156 46q121 0 193.5 -79.5t72.5 -206.5q0 -125 -71.5 -204.5t-193.5 -79.5z" />
    <glyph glyph-name="uni044E" unicode="&#x44e;" horiz-adv-x="851" 
d="M542 -15q-98 0 -164.5 60t-82.5 165h-105v-210h-121v540h121v-210h105q16 106 83 165.5t166 59.5q119 0 193 -79.5t74 -204.5q0 -127 -74.5 -206.5t-194.5 -79.5zM540 98q71 0 107.5 46.5t36.5 125.5q0 81 -36.5 126.5t-106.5 45.5q-69 0 -105 -45.5t-36 -125.5
q0 -81 36.5 -127t103.5 -46z" />
    <glyph glyph-name="uni044F" unicode="&#x44f;" horiz-adv-x="584" 
d="M295 540h219v-540h-121v180h-97h-18l-111 -180h-127l122 196q-50 19 -79 60t-29 103q0 71 38 116t103 58q35 7 100 7zM393 274v172h-109q-28 0 -50 -6q-23 -7 -40 -29t-17 -51q0 -30 17.5 -51.5t42.5 -28.5q20 -6 47 -6h109z" />
    <glyph glyph-name="uni0450" unicode="&#x450;" horiz-adv-x="602" 
d="M490 693l-31 -88l-268 96l31 88zM170 236q7 -67 42.5 -102.5t96.5 -35.5q91 0 126 77l119 -36q-30 -73 -94.5 -113.5t-144.5 -40.5q-122 0 -198.5 78t-76.5 201q0 132 74.5 211.5t194.5 79.5q125 0 193 -86.5t58 -232.5h-390zM314 450q-120 0 -141 -122h265
q-8 63 -38 92.5t-86 29.5z" />
    <glyph glyph-name="uni0451" unicode="&#x451;" horiz-adv-x="602" 
d="M260 733v-110h-110v110h110zM467 733v-110h-110v110h110zM170 236q7 -67 42.5 -102.5t96.5 -35.5q91 0 126 77l119 -36q-30 -73 -94.5 -113.5t-144.5 -40.5q-122 0 -198.5 78t-76.5 201q0 132 74.5 211.5t194.5 79.5q125 0 193 -86.5t58 -232.5h-390zM314 450
q-120 0 -141 -122h265q-8 63 -38 92.5t-86 29.5z" />
    <glyph glyph-name="uni0452" unicode="&#x452;" horiz-adv-x="626" 
d="M469 -225q-54 -12 -115 5v86q20 0 40 -1t35 16.5t15 54.5v324q0 182 -127 182q-54 0 -90 -37t-36 -127v-278h-121v583h-55v94h55v43h107v-43h105v-94h-105v-104q62 76 176 76q56 0 98 -21t63 -49t34 -67t15.5 -64.5t2.5 -51.5v-391q0 -114 -97 -136z" />
    <glyph glyph-name="uni0453" unicode="&#x453;" horiz-adv-x="480" 
d="M135 605l-32 88l269 96l30 -88zM70 0v540h385v-113h-265v-427h-120z" />
    <glyph glyph-name="uni0454" unicode="&#x454;" horiz-adv-x="577" 
d="M305 -15q-122 0 -193 79.5t-71 204.5q0 127 72 206.5t193 79.5q92 0 156 -46t83 -126l-120 -33q-14 44 -46.5 68t-76.5 24q-55 0 -87.5 -34t-42.5 -90h180v-95h-180q10 -59 43.5 -92t89.5 -33q89 0 118 85l122 -27q-25 -82 -87 -126.5t-153 -44.5z" />
    <glyph glyph-name="uni0455" unicode="&#x455;" horiz-adv-x="542" 
d="M279 -15q-100 0 -162.5 45t-76.5 127l123 19q9 -41 42 -63.5t82 -22.5q43 0 67 17t24 47q0 28 -23 41t-114 37q-102 27 -142.5 61.5t-40.5 95.5q0 76 57.5 121t154.5 45q94 0 155.5 -43t71.5 -116l-123 -22q-5 34 -31.5 54t-70.5 23q-42 2 -68 -13.5t-26 -42.5
q0 -24 26.5 -37.5t120.5 -37.5q97 -25 136.5 -61t39.5 -99q0 -82 -59 -128.5t-163 -46.5z" />
    <glyph glyph-name="uni0456" unicode="&#x456;" 
d="M80 624v110h120v-110h-120zM80 0v540h120v-540h-120z" />
    <glyph glyph-name="uni0457" unicode="&#x457;" 
d="M-18 623v110h110v-110h-110zM189 623v110h110v-110h-110zM80 0v540h120v-540h-120z" />
    <glyph glyph-name="uni0458" unicode="&#x458;" horiz-adv-x="288" 
d="M96 624v111h121v-111h-121zM-10 -240v113h26q43 0 61.5 20t18.5 61v586h121v-640q0 -65 -38.5 -102.5t-106.5 -37.5h-82z" />
    <glyph glyph-name="uni0459" unicode="&#x459;" horiz-adv-x="856" 
d="M20 0v101q42 -8 58 9.5t25 68.5q21 112 34 361h377v-180h60q67 0 98 -6q66 -13 105 -56.5t39 -116.5q0 -71 -38 -116t-102 -58q-36 -7 -101 -7h-182v427h-149q-17 -214 -33 -294q-17 -91 -59 -122t-132 -11zM514 95h72q33 0 50 5q24 6 40.5 28t16.5 53t-17 52t-43 28
q-21 5 -47 5h-72v-171z" />
    <glyph glyph-name="uni045A" unicode="&#x45a;" horiz-adv-x="835" 
d="M69 0v540h121v-180h182v180h121v-180h60q67 0 98 -6q66 -13 105 -56.5t39 -116.5q0 -71 -38 -116t-102 -58q-36 -7 -101 -7h-182v266h-182v-266h-121zM493 95h72q33 0 50 5q24 6 40.5 28t16.5 53t-17 52t-43 28q-21 5 -47 5h-72v-171z" />
    <glyph glyph-name="uni045B" unicode="&#x45b;" horiz-adv-x="626" 
d="M353 555q56 0 98 -21t63 -49t34 -67t15.5 -64.5t2.5 -51.5v-302h-122v260q0 182 -127 182q-54 0 -90 -37t-36 -127v-278h-122v583h-54v94h54v43h108v-43h105v-94h-105v-103q62 75 176 75z" />
    <glyph glyph-name="uni045C" unicode="&#x45c;" horiz-adv-x="538" 
d="M153 605l-31 88l268 96l31 -88zM69 0l1 540h122v-260l198 260h150l-209 -270l227 -270h-159l-207 260v-260h-123z" />
    <glyph glyph-name="uni045D" unicode="&#x45d;" horiz-adv-x="608" 
d="M449 605l-267 96l30 88l268 -96zM538 540v-540h-115v353l-257 -353h-97v540h116v-343l257 343h96z" />
    <glyph glyph-name="uni045E" unicode="&#x45e;" horiz-adv-x="559" 
d="M291 600q-63 0 -107.5 44.5t-44.5 107.5h94q0 -24 17 -41t41 -17t40.5 17t16.5 41h94q0 -63 -44 -107.5t-107 -44.5zM434 540h121l-301 -780h-113l89 243l-218 537h125l151 -386z" />
    <glyph glyph-name="uni045F" unicode="&#x45f;" horiz-adv-x="608" 
d="M251 -120v120h-182v540h121v-427h228v427h120v-540h-167v-120h-120z" />
    <glyph glyph-name="uni0490" unicode="&#x490;" horiz-adv-x="555" 
d="M70 0v720h355v113h120v-226h-355v-607h-120z" />
    <glyph glyph-name="uni0491" unicode="&#x491;" horiz-adv-x="480" 
d="M70 0v540h265v113h120v-226h-265v-427h-120z" />
    <glyph glyph-name="uni04AE" unicode="&#x4ae;" horiz-adv-x="612" 
d="M245 0v295l-245 425h141l165 -287l165 287h141l-245 -425v-295h-122z" />
    <glyph glyph-name="uni04AF" unicode="&#x4af;" horiz-adv-x="553" 
d="M216 -180v180l-196 540h121l136 -391l135 391h121l-196 -540v-180h-121z" />
    <glyph glyph-name="uni04BA" unicode="&#x4ba;" horiz-adv-x="676" 
d="M359 483q247 0 247 -278v-205h-122v168q0 35 -2 59.5t-11 53.5t-24.5 46.5t-44.5 29.5t-69 12q-89 0 -142 -45v-324h-121v720h121v-276q64 39 168 39z" />
    <glyph glyph-name="uni04BB" unicode="&#x4bb;" horiz-adv-x="579" 
d="M195 540v-181q62 30 138 30q167 0 198 -147q8 -41 8 -111v-131h-122v131q0 47 -7 74q-17 78 -106 78q-64 0 -109 -34v-249h-122v540h122z" />
    <glyph glyph-name="uni04E8" unicode="&#x4e8;" horiz-adv-x="769" 
d="M375 735q160 0 252 -102.5t92 -272.5t-92 -272.5t-252 -102.5t-252.5 103t-92.5 272t92.5 272t252.5 103zM375 621q-92 1 -146.5 -52t-66.5 -149h426q-12 94 -66 147t-147 54zM375 99q92 -1 146 52.5t67 148.5h-426q12 -94 66 -147t147 -54z" />
    <glyph glyph-name="uni04E9" unicode="&#x4e9;" horiz-adv-x="618" 
d="M309 555q121 0 195 -79.5t74 -205.5t-74.5 -205.5t-194.5 -79.5q-121 0 -195 79.5t-74 205.5q0 127 74.5 206t194.5 79zM309 442q-117 0 -137 -124h275q-10 59 -45 91.5t-93 32.5zM309 98q58 0 93 33.5t45 91.5h-275q9 -59 44 -92t93 -33z" />
    <glyph glyph-name="Wgrave" unicode="&#x1e80;" horiz-adv-x="976" 
d="M621 785l-267 96l30 88l268 -96zM222 0l-210 720h126l143 -520l143 519l126 1l144 -520l144 520h126l-210 -720h-119l-148 512l-146 -512h-119z" />
    <glyph glyph-name="wgrave" unicode="&#x1e81;" horiz-adv-x="802" 
d="M516 605l-268 96l30 88l269 -96zM185 0l-165 541l119 -1l106 -346l106 346h101l107 -346l105 346h118l-165 -540h-101l-115 372l-122 -372h-94z" />
    <glyph glyph-name="Wacute" unicode="&#x1e82;" horiz-adv-x="976" 
d="M369 785l-31 88l268 96l30 -88zM222 0l-210 720h126l143 -520l143 519l126 1l144 -520l144 520h126l-210 -720h-119l-148 512l-146 -512h-119z" />
    <glyph glyph-name="wacute" unicode="&#x1e83;" horiz-adv-x="802" 
d="M264 605l-31 88l268 96l31 -88zM185 0l-165 541l119 -1l106 -346l106 346h101l107 -346l105 346h118l-165 -540h-101l-115 372l-122 -372h-94z" />
    <glyph glyph-name="Wdieresis" unicode="&#x1e84;" horiz-adv-x="976" 
d="M330 840v110h110v-110h-110zM537 840v110h110v-110h-110zM222 0l-210 720h126l143 -520l143 519l126 1l144 -520l144 520h126l-210 -720h-119l-148 512l-146 -512h-119z" />
    <glyph glyph-name="wdieresis" unicode="&#x1e85;" horiz-adv-x="802" 
d="M243 623v110h110v-110h-110zM450 623v110h110v-110h-110zM185 0l-165 541l119 -1l106 -346l106 346h101l107 -346l105 346h118l-165 -540h-101l-115 372l-122 -372h-94z" />
    <glyph glyph-name="uni1E9E" unicode="&#x1e9e;" horiz-adv-x="634" 
d="M345 -15q-57 0 -93 15v118q43 -15 77 -15q57 0 89.5 29.5t32.5 84.5q0 51 -40.5 82t-103.5 18l-36 94l128 142q-19 69 -100 69q-61 0 -91 -56q-17 -31 -17 -98v-468h-122v469q0 76 16 125q48 141 214 141q91 0 151 -51t75 -134l-116 -126q76 -14 120.5 -67t44.5 -144
q0 -105 -60 -166.5t-169 -61.5z" />
    <glyph glyph-name="Ygrave" unicode="&#x1ef2;" horiz-adv-x="612" 
d="M443 785l-268 96l30 88l269 -96zM245 0v295l-245 425h141l165 -287l165 287h141l-245 -425v-295h-122z" />
    <glyph glyph-name="ygrave" unicode="&#x1ef3;" horiz-adv-x="559" 
d="M440 693l-31 -88l-267 96l30 88zM434 540h121l-301 -780h-113l89 243l-218 537h125l151 -386z" />
    <glyph glyph-name="uni2011" unicode="&#x2011;" horiz-adv-x="420" 
d="M60 268v95h300v-95h-300z" />
    <glyph glyph-name="endash" unicode="&#x2013;" horiz-adv-x="540" 
d="M60 268v95h420v-95h-420z" />
    <glyph glyph-name="emdash" unicode="&#x2014;" horiz-adv-x="780" 
d="M60 268v95h660v-95h-660z" />
    <glyph glyph-name="quoteleft" unicode="&#x2018;" horiz-adv-x="284" 
d="M199 464q-60 -10 -91.5 23t-31.5 100v133h123v-128h-64q-4 -36 10 -57t47 -19z" />
    <glyph glyph-name="quoteright" unicode="&#x2019;" horiz-adv-x="284" 
d="M85 464l7 52q33 -2 47.5 19t9.5 57h-64v128h123v-133q0 -67 -31.5 -100t-91.5 -23z" />
    <glyph glyph-name="quotesinglbase" unicode="&#x201a;" horiz-adv-x="303" 
d="M60 -127l7 51q33 -2 47.5 19t9.5 57h-64v128h123v-133q0 -67 -31.5 -99.5t-91.5 -22.5z" />
    <glyph glyph-name="quotedblleft" unicode="&#x201c;" horiz-adv-x="510" 
d="M262 772l-7 -52q-33 3 -47 -18t-10 -57h64v-129h-123v134q0 67 31.5 99.5t91.5 22.5zM430 772l-7 -52q-33 3 -47.5 -18t-9.5 -57h64v-129h-124v134q0 67 32 99.5t92 22.5z" />
    <glyph glyph-name="quotedblright" unicode="&#x201d;" horiz-adv-x="510" 
d="M80 466l7 52q33 -3 47.5 18t9.5 57h-64v129h123v-134q0 -67 -31.5 -99.5t-91.5 -22.5zM248 466l7 52q33 -3 47 18t9 57h-63v129h123v-134q0 -67 -31.5 -99.5t-91.5 -22.5z" />
    <glyph glyph-name="quotedblbase" unicode="&#x201e;" horiz-adv-x="560" 
d="M80 -1l7 51q33 -2 47.5 19t9.5 57h-64v128h123v-133q0 -67 -31.5 -99.5t-91.5 -22.5zM248 -1l7 51q33 -2 47 19t9 57h-63v128h123v-133q0 -67 -31.5 -99.5t-91.5 -22.5z" />
    <glyph glyph-name="uni201F" unicode="&#x201f;" horiz-adv-x="510" 
d="M263 466q-60 -10 -92 22.5t-32 99.5v134h124v-129h-64q-5 -36 9.5 -57t46.5 -18zM430 466q-60 -10 -91.5 22.5t-31.5 99.5v134h123v-129h-64q-5 -36 9.5 -57t47.5 -18z" />
    <glyph glyph-name="dagger" unicode="&#x2020;" horiz-adv-x="540" 
d="M480 540v-94h-150v-446h-120v446h-150v94h150v180h120v-180h150z" />
    <glyph glyph-name="daggerdbl" unicode="&#x2021;" horiz-adv-x="462" 
d="M402 437h-111v-124h111v-94h-111v-219h-120v219h-110v94h110v124h-110v95h110v188h120v-188h111v-95z" />
    <glyph glyph-name="bullet" unicode="&#x2022;" horiz-adv-x="703" 
d="M355 173q-61 0 -103 41t-42 101t42 101t103 41q57 0 97.5 -41t40.5 -101t-40.5 -101t-97.5 -41z" />
    <glyph glyph-name="ellipsis" unicode="&#x2026;" horiz-adv-x="710" 
d="M80 0v123h123v-123h-123zM293 0v123h124v-123h-124zM507 0v123h123v-123h-123z" />
    <glyph glyph-name="perthousand" unicode="&#x2030;" horiz-adv-x="1312" 
d="M240 375q-74 0 -127 52.5t-53 127.5q0 73 54 126.5t126 53.5q74 0 127 -52.5t53 -127.5t-53 -127.5t-127 -52.5zM170 0l-80 80l640 640l80 -81zM240 478q32 0 54.5 23t22.5 54t-22.5 54t-54.5 23t-54.5 -23t-22.5 -54t22.5 -54t54.5 -23zM660 -15q-74 0 -127 52.5
t-53 127.5q0 73 54 126.5t126 53.5q74 0 127 -52.5t53 -127.5t-53 -127.5t-127 -52.5zM1072 -15q-74 0 -127 52.5t-53 127.5q0 73 54 126.5t126 53.5q74 0 127 -52.5t53 -127.5t-53 -127.5t-127 -52.5zM660 88q32 0 55 23t23 54t-23 54t-55 23q-31 0 -54 -23t-23 -54t23 -54
t54 -23zM1072 88q32 0 54.5 23t22.5 54t-22.5 54t-54.5 23t-54.5 -23t-22.5 -54t22.5 -54t54.5 -23z" />
    <glyph glyph-name="guilsinglleft" unicode="&#x2039;" horiz-adv-x="637" 
d="M380 75l-240 240l240 240l75 -74l-171 -166l171 -166z" />
    <glyph glyph-name="guilsinglright" unicode="&#x203a;" horiz-adv-x="638" 
d="M257 75l-75 74l171 166l-171 166l75 74l240 -240z" />
    <glyph glyph-name="fraction" unicode="&#x2044;" horiz-adv-x="258" 
d="M-82 0l-71 53l493 673l71 -53z" />
    <glyph glyph-name="uni2060" unicode="&#x2060;" horiz-adv-x="0" 
 />
    <glyph glyph-name="uni2070" unicode="&#x2070;" horiz-adv-x="468" 
d="M234 259q-75 0 -119.5 46.5t-44.5 126.5v124q0 79 45 126t119 47q75 0 119.5 -46.5t44.5 -126.5v-124q0 -81 -43.5 -127t-120.5 -46zM234 332q40 0 62.5 26.5t22.5 73.5v124q0 46 -22 73t-63 27q-39 0 -61.5 -27t-22.5 -73v-124q0 -45 22 -72.5t62 -27.5z" />
    <glyph glyph-name="uni2074" unicode="&#x2074;" horiz-adv-x="419" 
d="M249 270v73h-199v74l144 303h89l-144 -303h110v115h78v-115h42v-74h-42v-73h-78z" />
    <glyph glyph-name="uni2075" unicode="&#x2075;" horiz-adv-x="405" 
d="M210 558q64 0 104.5 -41t40.5 -106q0 -63 -47 -107t-112 -44q-51 0 -91.5 30.5t-54.5 80.5l75 20q7 -26 28 -41.5t46 -15.5q32 0 54.5 22.5t22.5 54.5t-22.5 55t-54.5 23q-42 0 -67 -29l-66 21l13 239h245v-72h-176l-6 -108q31 18 68 18z" />
    <glyph glyph-name="uni2076" unicode="&#x2076;" horiz-adv-x="439" 
d="M239 557q64 0 105 -41.5t41 -106.5q0 -64 -46 -108t-111 -44q-68 0 -113 46t-45 118v137q0 78 45.5 124.5t121.5 46.5q72 0 119 -47l-56 -55q-27 29 -63 29q-38 0 -62.5 -26t-24.5 -61v-45q38 33 89 33zM228 331q32 0 55 22.5t23 55.5q0 32 -23 55t-55 23t-55 -23
t-23 -55t22.5 -55t55.5 -23z" />
    <glyph glyph-name="uni2077" unicode="&#x2077;" horiz-adv-x="369" 
d="M81 270l155 377h-196v73h279v-73l-153 -377h-85z" />
    <glyph glyph-name="uni2078" unicode="&#x2078;" horiz-adv-x="432" 
d="M320 510q52 -41 52 -110q0 -62 -44 -102.5t-112 -40.5t-112 40.5t-44 102.5q0 68 51 110q-39 37 -39 91q0 57 40 92.5t104 35.5q63 0 103 -35.5t40 -92.5q0 -55 -39 -91zM216 656q-61 0 -61 -55t61 -55q60 0 60 55t-60 55zM216 331q33 0 53 18t20 51q0 34 -20 52.5
t-53 18.5q-34 0 -53.5 -18.5t-19.5 -52.5q0 -33 19.5 -51t53.5 -18z" />
    <glyph glyph-name="uni2079" unicode="&#x2079;" horiz-adv-x="439" 
d="M211 729q68 0 113 -46t45 -118v-137q0 -78 -45.5 -124.5t-121.5 -46.5q-72 0 -119 47l56 55q27 -29 63 -29q38 0 62.5 26t24.5 61v45q-37 -33 -89 -33q-64 0 -105 42t-41 106t46 108t111 44zM211 500q32 0 55 22.5t23 54.5t-22.5 55t-55.5 23q-32 0 -55 -22.5t-23 -55.5
q0 -32 23 -54.5t55 -22.5z" />
    <glyph glyph-name="uni2080" unicode="&#x2080;" horiz-adv-x="468" 
d="M234 -11q-75 0 -119.5 46.5t-44.5 126.5v124q0 79 45 126t119 47q75 0 119.5 -46.5t44.5 -126.5v-124q0 -81 -43.5 -127t-120.5 -46zM234 62q40 0 62.5 26.5t22.5 73.5v124q0 46 -22 73t-63 27q-39 0 -61.5 -27t-22.5 -73v-124q0 -45 22 -72.5t62 -27.5z" />
    <glyph glyph-name="uni2081" unicode="&#x2081;" horiz-adv-x="344" 
d="M144 0v365l-84 -51v85l84 51h79v-450h-79z" />
    <glyph glyph-name="uni2082" unicode="&#x2082;" horiz-adv-x="412" 
d="M283 173l-112 -100h191v-73h-312v68l192 171q40 36 40 71q0 33 -20.5 55t-53.5 22q-34 0 -56.5 -22.5t-20.5 -53.5h-80q0 68 43.5 108.5t115.5 40.5q66 0 109 -42.5t43 -108.5q0 -45 -17 -71t-62 -65z" />
    <glyph glyph-name="uni2083" unicode="&#x2083;" horiz-adv-x="404" 
d="M237 280q50 -11 78.5 -50t28.5 -91q0 -64 -45.5 -107t-109.5 -43q-52 0 -93.5 29.5t-55.5 79.5l76 20q7 -26 27 -40.5t46 -14.5q32 1 54 22.5t22 53.5q0 33 -21.5 55t-54.5 22q-20 0 -38 -10l-36 61l127 109h-184v74h279v-74z" />
    <glyph glyph-name="uni2084" unicode="&#x2084;" horiz-adv-x="419" 
d="M249 0v73h-199v74l144 303h89l-144 -303h110v115h78v-115h42v-74h-42v-73h-78z" />
    <glyph glyph-name="uni2085" unicode="&#x2085;" horiz-adv-x="405" 
d="M210 288q64 0 104.5 -41t40.5 -106q0 -63 -47 -107t-112 -44q-51 0 -91.5 30.5t-54.5 80.5l75 20q7 -26 28 -41.5t46 -15.5q32 0 54.5 22.5t22.5 54.5t-22.5 55t-54.5 23q-42 0 -67 -29l-66 21l13 239h245v-72h-176l-6 -108q32 18 68 18z" />
    <glyph glyph-name="uni2086" unicode="&#x2086;" horiz-adv-x="439" 
d="M239 287q64 0 105 -41.5t41 -106.5q0 -64 -46 -108t-111 -44q-68 0 -113 46t-45 118v137q0 78 45.5 124.5t121.5 46.5q72 0 119 -47l-56 -55q-27 29 -63 29q-38 0 -62.5 -26t-24.5 -61v-45q38 33 89 33zM228 61q32 0 55 22.5t23 55.5q0 32 -23 55t-55 23t-55 -23t-23 -55
t22.5 -55t55.5 -23z" />
    <glyph glyph-name="uni2087" unicode="&#x2087;" horiz-adv-x="369" 
d="M81 0l155 377h-196v73h279v-73l-153 -377h-85z" />
    <glyph glyph-name="uni2088" unicode="&#x2088;" horiz-adv-x="432" 
d="M320 240q52 -41 52 -110q0 -62 -44 -102.5t-112 -40.5t-112 40.5t-44 102.5q0 68 51 110q-39 37 -39 91q0 57 40 92.5t104 35.5q63 0 103 -35.5t40 -92.5q0 -55 -39 -91zM216 386q-61 0 -61 -55t61 -55q60 0 60 55t-60 55zM216 61q33 0 53 18t20 51q0 34 -20 52.5
t-53 18.5q-34 0 -53.5 -18.5t-19.5 -52.5q0 -33 19.5 -51t53.5 -18z" />
    <glyph glyph-name="uni2089" unicode="&#x2089;" horiz-adv-x="439" 
d="M211 459q68 0 113 -46t45 -118v-137q0 -78 -46 -124.5t-121 -46.5q-73 0 -120 47l57 55q26 -29 63 -29q38 0 62 26t24 61v44q-37 -32 -89 -32q-64 0 -105 42t-41 106t46.5 108t111.5 44zM211 230q32 0 54.5 22.5t22.5 54.5t-22.5 55t-54.5 23t-55 -22.5t-23 -55.5
q0 -32 23 -54.5t55 -22.5z" />
    <glyph glyph-name="Euro" unicode="&#x20ac;" horiz-adv-x="683" 
d="M455 99q72 -2 125 37l63 -99q-82 -52 -188 -52q-123 0 -208 65.5t-119 178.5h-98v95h81q-2 24 -2 36q0 13 2 35h-81v95h98q33 115 117.5 180t209.5 65q105 0 188 -51l-64 -100q-53 38 -124 38q-146 0 -196 -132h244v-95h-264q-2 -22 -2 -35q0 -12 2 -36h264v-95h-243
q50 -131 195 -130z" />
    <glyph glyph-name="uni20B4" unicode="&#x20b4;" horiz-adv-x="627" 
d="M537 480h51v-95h-549l-1 95h363l2 3q13 19 13 46q0 36 -24 60q-30 32 -74 32q-51 0 -83 -44q-16 -22 -19 -48h-127q6 69 45 117q66 89 184 89q99 0 160 -58q65 -59 65 -150q0 -23 -6 -47zM588 335v-94h-366q-21 -20 -21 -51q0 -42 33 -66t79 -24q61 0 98 54q12 15 17 37
h124q-5 -52 -37 -101q-33 -51 -86.5 -78t-115.5 -27q-82 0 -140 34q-46 26 -72.5 73t-26.5 100q0 27 7 49h-43v94h550z" />
    <glyph glyph-name="uni20BD" unicode="&#x20bd;" horiz-adv-x="685" 
d="M414 262h-152v-69h235v-95h-235v-98h-120v98h-72v95h72v69h-72v103h72v355h272q32 0 58 -4q90 -14 136.5 -76t46.5 -153q0 -92 -46.5 -150t-136.5 -71q-26 -4 -58 -4zM262 607v-242h147q27 0 46 6q79 22 79 112q0 42 -18.5 75.5t-60.5 43.5q-18 5 -46 5h-147z" />
    <glyph glyph-name="uni2116" unicode="&#x2116;" horiz-adv-x="1132" 
d="M902 375q-74 0 -127 52.5t-53 127.5q0 73 54 126.5t126 53.5q74 0 127 -52.5t53 -127.5t-53 -127.5t-127 -52.5zM70 0v720h122l334 -507v507h122v-720h-122l-334 508v-508h-122zM902 478q31 0 54 23t23 54t-23 54t-54 23q-32 0 -54.5 -23t-22.5 -54t22.5 -54t54.5 -23z
M752 237v94h300v-94h-300z" />
    <glyph glyph-name="trademark" unicode="&#x2122;" horiz-adv-x="920" 
d="M185 345v298h-125v77h335v-77h-125v-298h-85zM465 345v375h69l129 -202l129 202h68v-375h-81v216l-93 -149h-47l-92 149v-216h-82z" />
    <glyph glyph-name="arrowleft" unicode="&#x2190;" horiz-adv-x="1012" 
d="M871 268h-569l135 -135l-57 -58l-240 240l240 240l57 -58l-134 -134h568v-95z" />
    <glyph glyph-name="arrowup" unicode="&#x2191;" horiz-adv-x="720" 
d="M313 0v570l-135 -136l-58 57l240 241l240 -241l-57 -57l-135 135v-569h-95z" />
    <glyph glyph-name="arrowright" unicode="&#x2192;" horiz-adv-x="1012" 
d="M141 268v95h568l-134 134l57 58l240 -240l-240 -240l-57 58l135 135h-569z" />
    <glyph glyph-name="arrowdown" unicode="&#x2193;" horiz-adv-x="720" 
d="M313 650h95v-569l135 135l57 -57l-240 -241l-240 241l58 57l135 -136v570z" />
    <glyph glyph-name="carriagereturn" unicode="&#x21b5;" horiz-adv-x="819" 
d="M380 75l-240 240l240 240l57 -58l-134 -134h362v357h94v-453h-456l134 -134z" />
    <glyph glyph-name="partialdiff" unicode="&#x2202;" horiz-adv-x="596" 
d="M299 -15q-116 0 -187.5 74t-71.5 192q0 120 72 194t187 73q37 0 61 -5.5t36 -11.5t46 -28q-7 54 -47 96q-79 87 -189 94l18 93q159 -7 241 -117q55 -71 73 -161t18 -223q0 -123 -68.5 -196.5t-188.5 -73.5zM299 92q66 0 101.5 43t35.5 117t-36 117t-101 42
q-68 1 -103 -41.5t-35 -117.5q0 -76 35.5 -118t102.5 -42z" />
    <glyph glyph-name="emptyset" unicode="&#x2205;" horiz-adv-x="600" 
d="M560 496l-59 -59q53 -69 53 -156q0 -107 -75.5 -182.5t-182.5 -75.5q-89 0 -157 54l-60 -60l-47 47l60 60q-53 69 -53 157q0 106 75.5 181.5t181.5 75.5q89 0 157 -54l60 60zM118 281q0 -55 31 -100l247 246q-45 31 -100 31q-74 0 -126 -51.5t-52 -125.5zM473 281
q0 54 -30 98l-247 -245q45 -31 100 -31q73 0 125 52.5t52 125.5z" />
    <glyph glyph-name="product" unicode="&#x220f;" horiz-adv-x="590" 
d="M60 0v720h470v-720h-120v626h-230v-626h-120z" />
    <glyph glyph-name="summation" unicode="&#x2211;" horiz-adv-x="560" 
d="M500 646v-108h-285l285 -226v-48l-284 -225h284v-108l-440 -1v109l309 249l-309 249v109h440z" />
    <glyph glyph-name="minus" unicode="&#x2212;" horiz-adv-x="540" 
d="M60 313v95h420v-95h-420z" />
    <glyph glyph-name="uni2215" unicode="&#x2215;" horiz-adv-x="433" 
d="M252 720h121l-192 -720h-121z" />
    <glyph glyph-name="radical" unicode="&#x221a;" horiz-adv-x="591" 
d="M239 0l-94 300h-133v89h208l77 -244l215 660h104l-261 -805h-116z" />
    <glyph glyph-name="infinity" unicode="&#x221e;" horiz-adv-x="736" 
d="M522 497q77 0 128 -56t51 -149q0 -92 -50 -152.5t-129 -60.5q-108 0 -154 109q-47 -109 -157 -109q-81 0 -129.5 59t-46.5 150q2 89 51.5 149t128.5 60q111 0 154 -109q48 109 153 109zM217 188q63 0 118 100q-55 100 -118 100q-38 0 -61.5 -28t-23.5 -72t23.5 -72
t61.5 -28zM521 188q37 0 61 28t24 72t-23.5 72t-61.5 28q-64 0 -119 -100q55 -100 119 -100z" />
    <glyph glyph-name="integral" unicode="&#x222b;" horiz-adv-x="600" 
d="M60 -210l10 98h62q33 0 52.5 17t22.5 45l63 599q3 31 5.5 47.5t14 44.5t30.5 47q10 10 21 17.5t20.5 12.5t22.5 8.5t21 5t21 2.5t17.5 1h16.5h13h67l-9 -98h-63q-33 0 -52.5 -17t-22.5 -45l-62 -599q-4 -34 -6 -48t-14 -43t-31 -48q-9 -10 -20.5 -17.5t-21 -12.5
t-22.5 -8.5t-20.5 -5t-21 -2.5t-18 -1h-16.5h-13h-67z" />
    <glyph glyph-name="approxequal" unicode="&#x2248;" horiz-adv-x="715" 
d="M457 383q-39 0 -76.5 24.5t-67 49t-48.5 24.5q-21 0 -28.5 -22t2.5 -58h-90q-15 70 17.5 117t90.5 47q39 0 77.5 -24.5t68.5 -48.5t47 -24q20 0 27.5 24t-1.5 56h90q15 -68 -17.5 -116.5t-91.5 -48.5zM457 161q-39 0 -76.5 24.5t-67 49t-48.5 24.5q-21 0 -28.5 -22
t2.5 -59h-90q-15 71 17.5 118t90.5 47q39 0 77.5 -24.5t68 -49t47.5 -24.5q21 0 28 24t-2 56h90q15 -67 -17.5 -115.5t-91.5 -48.5z" />
    <glyph glyph-name="notequal" unicode="&#x2260;" horiz-adv-x="750" 
d="M630 407h-161l-69 -94h230v-95h-300l-83 -113l-77 55l43 58h-93v95h163l69 94h-232v95h302l83 113l76 -55l-43 -58h92v-95z" />
    <glyph glyph-name="lessequal" unicode="&#x2264;" horiz-adv-x="750" 
d="M630 167l-510 157v74l510 157v-95l-342 -99l342 -99v-95zM120 0v95h510v-95h-510z" />
    <glyph glyph-name="greaterequal" unicode="&#x2265;" horiz-adv-x="750" 
d="M120 167v95l342 99l-342 99v95l510 -157v-74zM630 0h-510v95h510v-95z" />
    <glyph glyph-name="lozenge" unicode="&#x25ca;" horiz-adv-x="540" 
d="M196 -8l-146 345l146 345h148l146 -345l-146 -345h-148zM270 96l101 241l-101 240l-101 -240z" />
    <glyph glyph-name="i.loclTRK" 
d="M80 624v110h120v-110h-120zM80 0v540h120v-540h-120z" />
    <glyph glyph-name="uni0414.loclBGR" horiz-adv-x="765" 
d="M658 113h61v-201h-114v88h-454v-88h-113v201h61l191 607h177zM223 113h311l-157 490z" />
    <glyph glyph-name="uni0416.loclBGR" horiz-adv-x="916" 
d="M10 0l271 367l-250 353h144l223 -326v326h120v-326l223 326h144l-250 -353l271 -367h-149l-239 328v-328h-120v328l-239 -328h-149z" />
    <glyph glyph-name="uni041A.loclBGR" horiz-adv-x="647" 
d="M70 0v720h120v-334l288 334h148l-310 -353l331 -367h-153l-304 336v-336h-120z" />
    <glyph glyph-name="uni041B.loclBGR" horiz-adv-x="641" 
d="M232 720h177l227 -720h-124l-193 603l-190 -603h-124z" />
    <glyph glyph-name="uni0432.loclBGR" horiz-adv-x="604" 
d="M456 398q53 -20 85.5 -70t32.5 -119q0 -104 -70 -164t-189 -60q-92 0 -154 37.5t-82 112.5q-10 38 -10 95v300q0 40 9 70q21 66 78.5 100.5t131.5 34.5q99 0 163.5 -57.5t64.5 -147.5q0 -85 -60 -132zM320 97q60 0 96.5 32t36.5 85q0 57 -43 85.5t-117 29.5v105
q48 4 74.5 28.5t26.5 65.5q0 44 -29.5 69t-73.5 25q-64 0 -87 -49q-13 -26 -13 -75v-276q0 -39 7 -61q11 -31 46 -47.5t76 -16.5z" />
    <glyph glyph-name="uni0433.loclBGR" horiz-adv-x="542" 
d="M263 -15q-104 0 -163 46.5t-59 128.5q0 63 39.5 98.5t136.5 61.5q95 24 121.5 37.5t26.5 37.5q0 27 -26 42.5t-69 13.5q-44 -3 -70.5 -23t-31.5 -54l-123 22q10 73 71.5 116t155.5 43q97 0 154.5 -45t57.5 -121q0 -61 -40.5 -95.5t-141.5 -61.5q-92 -24 -115 -37t-23 -41
q0 -30 24 -47t67 -17q49 0 82 22.5t42 63.5l123 -19q-14 -82 -76.5 -127t-162.5 -45z" />
    <glyph glyph-name="uni0434.loclBGR" horiz-adv-x="616" 
d="M440 540h106v-566q0 -42 -7 -76q-18 -76 -82.5 -114.5t-159.5 -38.5q-68 0 -125.5 31t-89.5 86l112 55q29 -57 104 -57q58 0 93.5 30t34.5 86v52q-57 -43 -139 -43q-111 0 -179 81t-68 204q0 125 69 205t182 80q90 0 149 -53v38zM305 93q135 0 135 177q0 82 -32.5 129.5
t-98.5 47.5q-69 0 -105 -49.5t-36 -127.5q0 -79 35 -128t102 -49z" />
    <glyph glyph-name="uni0436.loclBGR" horiz-adv-x="787" 
d="M10 0l198 270l-186 270h132l175 -261v441h107v-441l176 261h131l-185 -270l198 -270h-140l-180 262v-262h-107v262l-180 -262h-139z" />
    <glyph glyph-name="uni0437.loclBGR" horiz-adv-x="653" 
d="M327 -195q-106 0 -179 44t-108 110l103 70q48 -110 189 -110q76 0 114.5 32.5t38.5 81.5q0 93 -148 97l-81 2v114q52 0 70 1q59 2 94.5 27t35.5 71q0 45 -34 71t-91 26q-51 0 -91.5 -22.5t-62.5 -56.5l-84 86q38 47 101.5 76.5t140.5 29.5q103 0 176 -53t73 -153
q0 -104 -71 -160q100 -41 100 -156q0 -104 -81 -166t-205 -62z" />
    <glyph glyph-name="uni0438.loclBGR" horiz-adv-x="626" 
d="M434 540h122v-540h-107v60q-62 -75 -177 -75q-56 0 -97.5 21t-63 49t-34 67t-15 65t-2.5 52v301h122v-260q0 -182 126 -182q54 0 90 37.5t36 127.5v277z" />
    <glyph glyph-name="uni0439.loclBGR" horiz-adv-x="626" 
d="M308 600q-63 0 -107.5 44.5t-44.5 107.5h94q0 -24 17 -41t41 -17t40.5 17t16.5 41h94q0 -63 -44.5 -107.5t-106.5 -44.5zM434 540h122v-540h-107v60q-62 -75 -177 -75q-56 0 -97.5 21t-63 49t-34 67t-15 65t-2.5 52v301h122v-260q0 -182 126 -182q54 0 90 37.5t36 127.5
v277z" />
    <glyph glyph-name="uni045D.loclBGR" horiz-adv-x="621" 
d="M474 693l-32 -88l-267 96l30 88zM434 540h122v-540h-107v60q-62 -75 -177 -75q-56 0 -97.5 21t-63 49t-34 67t-15 65t-2.5 52v301h122v-260q0 -182 126 -182q54 0 90 37.5t36 127.5v277z" />
    <glyph glyph-name="uni043A.loclBGR" horiz-adv-x="538" 
d="M69 0l1 720h122v-440l198 260h150l-209 -270l227 -270h-159l-207 260v-260h-123z" />
    <glyph glyph-name="uni043B.loclBGR" horiz-adv-x="553" 
d="M216 540h121l196 -540h-121l-135 392l-136 -392h-121z" />
    <glyph glyph-name="uni043D.loclBGR" horiz-adv-x="623" 
d="M69 0v540h121v-213h242v213h121v-540h-121v214h-242v-214h-121z" />
    <glyph glyph-name="uni043F.loclBGR" horiz-adv-x="626" 
d="M353 555q56 0 98 -21t63 -49t34 -67t15.5 -64.5t2.5 -51.5v-302h-122v260q0 182 -127 182q-54 0 -90 -37t-36 -127v-278h-122v540h108v-60q62 75 176 75z" />
    <glyph glyph-name="uni0442.loclBGR" horiz-adv-x="899" 
d="M654 553q88 0 136.5 -53t48.5 -142v-358h-120v328q0 55 -27.5 86.5t-74.5 31.5q-45 0 -73.5 -30.5t-28.5 -83.5v-332h-121l1 327q0 55 -28 87t-75 32q-46 0 -74 -31.5t-28 -82.5v-332h-121v540h107v-58q56 71 156 71q111 0 158 -85q25 40 68.5 62.5t95.5 22.5z" />
    <glyph glyph-name="uni0447.loclBGR" horiz-adv-x="576" 
d="M384 0v182q-60 -31 -138 -31q-167 0 -198 147q-8 41 -8 111v131h122v-131q0 -47 7 -74q9 -40 34 -58.5t72 -18.5q66 0 109 33v249h122v-540h-122z" />
    <glyph glyph-name="uni0446.loclBGR" horiz-adv-x="649" 
d="M556 107h83v-195h-120v88h-70v60q-62 -75 -177 -75q-56 0 -97.5 21t-63 49t-34 67t-15 65t-2.5 52v301h122v-260q0 -182 126 -182q54 0 90 37.5t36 127.5v277h122v-433z" />
    <glyph glyph-name="uni0448.loclBGR" horiz-adv-x="899" 
d="M709 540h121v-540h-107v58q-56 -71 -156 -71q-111 0 -158 85q-25 -40 -68.5 -62.5t-95.5 -22.5q-88 0 -136.5 53t-48.5 142v358h121l-1 -328q0 -55 27.5 -86.5t74.5 -31.5q45 0 73.5 30.5t28.5 83.5l1 332h120v-327q0 -55 27.5 -87t74.5 -32q46 0 74 31.5t28 82.5v332z
" />
    <glyph glyph-name="uni0449.loclBGR" horiz-adv-x="923" 
d="M830 107h83v-220h-120v113h-70v58q-56 -71 -156 -71q-111 0 -158 85q-25 -40 -68.5 -62.5t-95.5 -22.5q-88 0 -136.5 53t-48.5 142v358h121l-1 -328q0 -55 27.5 -86.5t74.5 -31.5q45 0 73.5 30.5t28.5 83.5l1 332h120v-327q0 -55 27.5 -87t74.5 -32q46 0 74 31.5t28 82.5
v332h121v-433z" />
    <glyph glyph-name="uni044C.loclBGR" horiz-adv-x="569" 
d="M69 0v540h121v-180h97q67 0 98 -6q144 -30 144 -175q0 -139 -141 -172q-30 -7 -100 -7h-219zM190 95h109q33 0 50 5q24 6 40.5 28t16.5 51q0 32 -17 53.5t-43 28.5q-20 5 -47 5h-109v-171z" />
    <glyph glyph-name="uni044E.loclBGR" horiz-adv-x="848" 
d="M544 555q119 0 193 -79.5t74 -204.5q0 -127 -74.5 -206.5t-194.5 -79.5q-98 0 -164.5 60t-82.5 165h-105v-210h-121v540h1v180h120v-390h105q16 106 83 165.5t166 59.5zM540 98q71 0 107.5 46.5t36.5 125.5q0 81 -36.5 126.5t-106.5 45.5q-69 0 -105 -45.5t-36 -125.5
q0 -81 36.5 -127t103.5 -46z" />
    <glyph glyph-name="uni0431.loclSRB" horiz-adv-x="599" 
d="M295 -16q-114 1 -178.5 73t-73.5 200q-6 68 3.5 150.5t30.5 132.5q30 70 94 114q40 27 89.5 41t130 24t110.5 16l11 -107q-26 -6 -86 -12t-110.5 -15.5t-80.5 -28.5q-69 -43 -78 -150q56 84 171 84q105 0 168 -73t63 -184q0 -119 -73.5 -193t-190.5 -72zM301 97
q63 0 97 39.5t34 108.5t-34.5 108t-96.5 39q-64 0 -97.5 -39t-33.5 -108q0 -71 34 -109.5t97 -38.5z" />
    <glyph glyph-name="zero.tf" horiz-adv-x="620" 
d="M310 -15q-115 0 -187 72t-72 187v232q0 115 72 187t187 72t187 -72t72 -187v-232q0 -115 -72 -187t-187 -72zM310 100q58 0 97.5 39.5t39.5 96.5v249q0 57 -39.5 96.5t-97.5 39.5q-57 0 -96.5 -39.5t-39.5 -96.5v-249q0 -57 39.5 -96.5t96.5 -39.5z" />
    <glyph glyph-name="one.tf" horiz-adv-x="620" 
d="M289 0v589l-135 -83v133l135 81h123v-720h-123z" />
    <glyph glyph-name="two.tf" horiz-adv-x="620" 
d="M432 278l-184 -163h309v-114h-496l1 105l307 275q64 56 64 115q0 54 -33.5 89.5t-87.5 35.5t-90.5 -36.5t-35.5 -87.5h-123q0 107 70 172.5t182 65.5q104 0 173 -68t69 -172q0 -71 -27 -113t-98 -104z" />
    <glyph glyph-name="three.tf" horiz-adv-x="620" 
d="M367 450q81 -17 127.5 -79t46.5 -146q0 -101 -71.5 -169.5t-173.5 -68.5q-82 0 -147.5 46.5t-88.5 124.5l116 32q12 -42 45 -66t74 -24q53 1 88.5 36.5t35.5 88.5q0 54 -35 90t-89 36q-30 0 -62 -17l-55 95l207 177h-297v114h441v-114z" />
    <glyph glyph-name="four.tf" horiz-adv-x="620" 
d="M382 0v119h-319v113l230 488h138l-231 -488h182v187h122v-187h67v-113h-67v-119h-122z" />
    <glyph glyph-name="five.tf" horiz-adv-x="620" 
d="M322 462q101 0 166.5 -66.5t65.5 -168.5q0 -100 -75.5 -171t-177.5 -71q-82 0 -146.5 49.5t-87.5 128.5l116 31q11 -42 46 -67.5t76 -25.5q53 0 90 36.5t37 89.5q0 52 -37.5 89t-89.5 37q-69 0 -110 -47l-103 33l22 381h391v-113h-284l-11 -177q52 32 112 32z" />
    <glyph glyph-name="six.tf" horiz-adv-x="620" 
d="M327 463q101 0 166.5 -67t65.5 -169q0 -101 -73.5 -171.5t-175.5 -70.5q-107 0 -178 73.5t-71 187.5v219q0 122 72 195.5t190 73.5q116 0 191 -76l-87 -85q-42 48 -104 48q-60 0 -99.5 -41.5t-39.5 -97.5v-74q61 55 143 55zM310 100q52 0 89.5 37t37.5 90t-37 90t-89 37
q-53 0 -90 -37t-37 -90q0 -52 37 -89.5t89 -37.5z" />
    <glyph glyph-name="seven.tf" horiz-adv-x="620" 
d="M157 0l247 606h-314v114h443v-114l-246 -606h-130z" />
    <glyph glyph-name="eight.tf" horiz-adv-x="620" 
d="M475 386q81 -63 81 -173q0 -100 -69.5 -164t-177.5 -64q-107 0 -176 64t-69 164q0 109 81 174q-63 61 -63 144q0 92 63 148t164 56t164 -56t63 -148q0 -85 -61 -145zM309 622q-46 0 -72.5 -23t-26.5 -68q0 -44 26.5 -66.5t72.5 -22.5t73 22.5t27 66.5t-27 67.5t-73 23.5z
M309 99q55 0 87 29.5t32 84.5q0 54 -32.5 84t-86.5 30t-86 -29.5t-32 -84.5t32 -84.5t86 -29.5z" />
    <glyph glyph-name="nine.tf" horiz-adv-x="620" 
d="M310 735q107 0 178 -73.5t71 -187.5v-219q0 -122 -72 -195.5t-190 -73.5q-117 0 -191 77l87 84q42 -48 104 -48q61 0 100 41.5t39 97.5v74q-60 -54 -143 -54q-102 0 -167 66.5t-65 168.5q0 101 73.5 171.5t175.5 70.5zM309 366q53 0 90 37t37 90q0 52 -37 89.5t-89 37.5
t-89.5 -37t-37.5 -90t37 -90t89 -37z" />
    <glyph glyph-name="colon.case" horiz-adv-x="343" 
d="M111 472v123h123v-123h-123zM110 125v123h123v-123h-123z" />
    <glyph glyph-name="exclamdown.case" horiz-adv-x="360" 
d="M120 720h120v-111h-120v111zM120 540h120v-540h-120v540z" />
    <glyph glyph-name="questiondown.case" horiz-adv-x="553" 
d="M352 720v-132h-127v132h127zM353 525q0 -76 -29 -127q-12 -23 -28 -39.5t-41 -37t-44 -39.5q-33 -37 -33 -93q0 -36 16 -56q25 -33 83 -33q47 0 71 21q30 24 28 68h127q-12 -109 -86 -161q-57 -42 -136 -42q-125 0 -185 73q-46 52 -46 127q0 91 78 172q12 12 29.5 28.5
t29.5 29t19 24.5q13 22 16 37t3 48h128z" />
    <glyph glyph-name="periodcentered.case" horiz-adv-x="627" 
d="M315 287q-32 0 -53.5 21t-21.5 52t21.5 52t53.5 21q30 0 51 -21t21 -52t-21 -52t-51 -21z" />
    <glyph glyph-name="parenleft.case" horiz-adv-x="453" 
d="M323 -160q-87 101 -136 240.5t-47 279.5q-2 140 47 279.5t136 240.5l89 -66q-161 -194 -163 -454q2 -260 163 -454z" />
    <glyph glyph-name="parenright.case" horiz-adv-x="453" 
d="M130 -160l-89 66q161 194 163 454q-2 262 -163 454l89 66q88 -101 136.5 -240t46.5 -280q2 -140 -47 -279.5t-136 -240.5z" />
    <glyph glyph-name="braceleft.case" horiz-adv-x="449" 
d="M340 -195q-64 0 -102 37.5t-38 102.5v301q0 12 -6 19l-44 63q-21 33 0 64l44 63q6 9 6 19v301q0 64 38 102t102 38h68v-114h-59q-15 0 -25 -10.5t-10 -24.5v-292q0 -46 -27 -85l-22 -29l22 -29q27 -39 27 -85v-292q0 -15 10 -25.5t25 -10.5h59v-113h-68z" />
    <glyph glyph-name="braceright.case" horiz-adv-x="449" 
d="M109 -195h-68v113h60q14 0 24 10.5t10 25.5v292q0 45 28 85l21 29l-21 29q-28 40 -28 85v292q0 14 -10 24.5t-24 10.5h-60v114h68q64 0 102 -38t38 -102v-301q0 -10 6 -19l44 -63q23 -31 0 -64l-44 -63q-6 -7 -6 -19v-301q0 -65 -37.5 -102.5t-102.5 -37.5z" />
    <glyph glyph-name="bracketleft.case" horiz-adv-x="424" 
d="M140 -195v1110h219v-107h-112v-896h112v-107h-219z" />
    <glyph glyph-name="bracketright.case" horiz-adv-x="424" 
d="M284 -195h-218v107h111v896h-111v107h218v-1110z" />
    <glyph glyph-name="hyphen.case" horiz-adv-x="420" 
d="M60 313v95h300v-95h-300z" />
    <glyph glyph-name="endash.case" horiz-adv-x="540" 
d="M60 313v95h420v-95h-420z" />
    <glyph glyph-name="emdash.case" horiz-adv-x="780" 
d="M60 313v95h660v-95h-660z" />
    <glyph glyph-name="guillemotleft.case" horiz-adv-x="586" 
d="M256 139l-176 221l176 222l64 -51l-136 -171l136 -171zM460 139l-176 221l176 222l65 -51l-137 -171l137 -171z" />
    <glyph glyph-name="guillemotright.case" horiz-adv-x="586" 
d="M126 139l-64 50l136 171l-136 171l64 51l176 -222zM330 139l-64 50l136 171l-136 171l64 51l176 -222z" />
    <glyph glyph-name="guilsinglleft.case" horiz-adv-x="637" 
d="M380 120l-240 240l240 240l75 -74l-171 -166l171 -166z" />
    <glyph glyph-name="guilsinglright.case" horiz-adv-x="637" 
d="M257 120l-75 74l171 166l-171 166l75 74l240 -240z" />
    <glyph glyph-name="greater.case" horiz-adv-x="637" 
d="M257 120l-75 74l171 166l-171 166l75 74l240 -240z" />
    <glyph glyph-name="less.case" horiz-adv-x="637" 
d="M380 120l-240 240l240 240l75 -74l-171 -166l171 -166z" />
    <glyph glyph-name="arrowright.case" horiz-adv-x="1012" 
d="M141 276v94h568l-134 135l57 58l240 -241l-240 -240l-57 58l135 136h-569z" />
    <glyph glyph-name="arrowleft.case" horiz-adv-x="1012" 
d="M871 276h-569l135 -136l-57 -58l-240 240l240 241l57 -58l-134 -135h568v-94z" />
    <glyph glyph-name="at.case" horiz-adv-x="914" 
d="M452 735q182 0 283 -103.5t99 -255.5q-3 -206 -161 -206q-75 0 -113 49q-42 -46 -114 -46q-80 0 -130.5 51.5t-50.5 133.5q0 83 52 133.5t131 50.5q55 0 102 -31v17h74l-2 -188q0 -74 52 -74q25 0 38 16t16 36t4 57q1 60 -16.5 107.5t-45 76.5t-64.5 48t-73 26.5t-73 7.5
q-134 0 -208.5 -79.5t-70.5 -212.5q4 -126 79.5 -197.5t199.5 -71.5q64 0 119 23l32 -89q-71 -29 -156 -29q-165 0 -270 102t-105 259q0 186 106 287.5t266 101.5zM453 269q81 0 81 89t-78 89q-45 0 -67.5 -23.5t-22.5 -65.5t22.5 -65.5t64.5 -23.5z" />
    <glyph glyph-name="copyright.case" horiz-adv-x="886" 
d="M443 31q-171 0 -292 121t-121 292q0 172 121 292.5t292 120.5q172 0 292.5 -120.5t120.5 -292.5q0 -171 -120.5 -292t-292.5 -121zM443 144q125 0 212.5 88t87.5 212t-87.5 212t-212.5 88t-212.5 -88t-87.5 -212t87.5 -212t212.5 -88zM451 231q-97 0 -150 67
q-49 62 -49 147q0 86 49 145q56 68 155 68q58 0 100 -27q59 -36 75 -103l-92 -25q-10 31 -33 50t-56 19q-45 0 -76 -37q-24 -30 -24 -90q0 -55 24 -90q28 -37 78 -37q36 0 56 17q17 16 29 46l94 -20q-19 -60 -65 -96q-46 -34 -115 -34z" />
    </font>
</defs>
</svg>
