<svg width="43" height="43" viewBox="0 0 43 43" fill="none" xmlns="http://www.w3.org/2000/svg">
<circle cx="21.5" cy="21.5" r="21.5" fill="#7F207C"/>
<path d="M10.3327 26.803C9.16117 25.6314 9.16117 23.7319 10.3327 22.5603L16.6967 16.1964L20.2322 12.6608C20.6774 12.2157 21.3061 12.0061 21.9293 12.0951L29.2506 13.141C30.1786 13.2736 30.89 14.0329 30.9619 14.9675L31.4754 21.6432C31.5202 22.2253 31.3083 22.7979 30.8955 23.2108L27.3033 26.803L20.9393 33.1669C19.7678 34.3385 17.8683 34.3385 16.6967 33.1669L10.3327 26.803Z" fill="#F5F1F0" stroke="#F5F1F0" stroke-width="1.5" stroke-linejoin="round"/>
<circle cx="26.081" cy="17.8037" r="1.5" transform="rotate(-45 26.081 17.8037)" fill="#92278F"/>
<path d="M13.8683 23.2686L19.3231 17.8137" stroke="#92278F" stroke-width="1.2" stroke-linecap="round" stroke-linejoin="round"/>
<path d="M17.0513 23.7246L20.6878 20.0881" stroke="#92278F" stroke-width="1.2" stroke-linecap="round" stroke-linejoin="round"/>
<path d="M15.6877 21.4493C16.6919 20.4451 18.2493 20.3743 19.1661 21.2912C20.083 22.208 20.3285 24.0816 19.3243 25.0858L18.4151 25.9949L23.8699 25.9949" stroke="#92278F" stroke-width="1.2" stroke-linecap="round" stroke-linejoin="round"/>
</svg>
