<?xml version="1.0" standalone="no"?>
<!DOCTYPE svg PUBLIC "-//W3C//DTD SVG 1.1//EN" "http://www.w3.org/Graphics/SVG/1.1/DTD/svg11.dtd" >
<svg xmlns="http://www.w3.org/2000/svg">
<metadata>Generated by IcoMoon</metadata>
<defs>
<font id="icomoon" horiz-adv-x="1024">
<font-face units-per-em="1024" ascent="960" descent="-64" />
<missing-glyph horiz-adv-x="1024" />
<glyph unicode="&#x20;" horiz-adv-x="512" d="" />
<glyph unicode="&#xe900;" glyph-name="phone" d="M847.448-46.345c-3.531 0-7.062 0-10.593 0-141.241 14.124-278.952 63.559-399.007 141.241-109.462 70.621-208.331 165.959-278.952 278.952-77.683 120.055-127.117 257.766-141.241 402.538 0 17.655 0 31.779 7.062 45.903 3.531 14.124 10.593 28.248 21.186 38.841s24.717 21.186 38.841 28.248c14.124 7.062 28.248 10.593 45.903 10.593h134.179c28.248 0 52.966-10.593 74.152-28.248s35.31-42.372 38.841-70.621c7.062-42.372 14.124-81.214 31.779-123.586 7.062-21.186 10.593-42.372 3.531-63.559-3.531-21.186-14.124-38.841-31.779-56.497l-45.903-45.903c60.028-98.869 141.241-180.083 240.11-240.11l45.903 45.903c14.124 14.124 35.31 24.717 56.497 31.779 21.186 3.531 42.372 3.531 63.559-3.531 38.841-14.124 81.214-24.717 123.586-31.779 28.248-3.531 52.966-17.655 70.621-38.841s28.248-49.434 28.248-74.152v-134.179c0-14.124-3.531-31.779-10.593-45.903s-14.124-28.248-28.248-38.841c-10.593-10.593-24.717-17.655-38.841-24.717-14.124-3.531-24.717-3.531-38.841-3.531zM268.359 854.069c0 0-3.531 0 0 0h-137.71c-10.593 0-17.655-3.531-28.248-7.062-7.062-3.531-14.124-10.593-21.186-17.655s-10.593-14.124-14.124-21.186c-3.531-10.593-3.531-21.186-3.531-28.248 14.124-134.179 60.028-268.359 134.179-381.352 67.090-105.931 158.897-197.738 264.828-264.828 112.993-74.152 243.641-120.055 381.352-134.179 10.593 0 17.655 0 28.248 3.531s17.655 7.062 24.717 14.124c7.062 7.062 14.124 14.124 17.655 21.186s7.062 17.655 7.062 28.248v134.179c0 0 0 0 0 0 0 17.655-3.531 31.779-17.655 45.903s-24.717 21.186-42.372 24.717c-45.903 7.062-88.276 17.655-130.648 31.779-10.593 3.531-24.717 7.062-38.841 3.531s-24.717-10.593-31.779-17.655l-56.497-56.497c-7.062-7.062-17.655-7.062-28.248-3.531-116.524 67.090-211.862 162.428-278.952 278.952-3.531 7.062-3.531 21.186 3.531 28.248l56.497 56.497c10.593 10.593 14.124 21.186 17.655 31.779 3.531 14.124 0 24.717-3.531 38.841-21.186 42.372-31.779 84.745-35.31 130.648-3.531 17.655-10.593 31.779-24.717 42.372-10.593 10.593-28.248 17.655-42.372 17.655zM801.545 539.807c-10.593 0-21.186 7.062-21.186 17.655-7.062 38.841-28.248 77.683-56.497 105.931s-63.559 49.434-105.931 56.497c-10.593 3.531-21.186 14.124-17.655 28.248 3.531 10.593 14.124 21.186 28.248 17.655 49.434-10.593 91.807-31.779 127.117-67.090s60.028-77.683 67.090-127.117c3.531-10.593-7.062-24.717-17.655-28.248 0-3.531 0-3.531-3.531-3.531zM985.159 539.807c-10.593 0-21.186 7.062-21.186 21.186-10.593 84.745-49.434 165.959-109.462 229.517-60.028 60.028-141.241 98.869-229.517 109.462-14.124 0-21.186 14.124-21.186 24.717 0 14.124 10.593 21.186 24.717 21.186 95.338-14.124 187.145-56.497 254.234-127.117 67.090-67.090 112.993-158.897 123.586-254.234 0-14.124-7.062-24.717-21.186-24.717 0 0 0 0 0 0z" />
<glyph unicode="&#xe901;" glyph-name="profile-circle" d="M518.024 375.718c0 0-6.024 0 0 0-6.024 0-12.047 0-12.047 0-102.4 6.024-180.706 84.329-180.706 186.729s84.329 186.729 186.729 186.729c102.4 0 186.729-84.329 186.729-186.729s-78.306-186.729-180.706-186.729c0 0 0 0 0 0zM512 664.847c-60.235 0-102.4-48.188-102.4-102.4s42.165-102.4 102.4-102.4c0 0 6.024 0 12.047 0 54.212 6.024 96.376 48.188 96.376 102.4-6.024 54.212-48.188 102.4-108.424 102.4zM512-33.882c-120.471 0-234.918 42.165-325.271 126.494-12.047 6.024-12.047 18.071-12.047 36.141 6.024 54.212 42.165 102.4 96.376 144.565 132.518 90.353 349.365 90.353 481.882 0 54.212-36.141 90.353-90.353 96.376-144.565 0-12.047-6.024-24.094-12.047-36.141-90.353-84.329-204.8-126.494-325.271-126.494zM259.012 134.776c72.282-60.235 162.635-90.353 252.988-90.353s180.706 30.118 252.988 90.353c-6.024 24.094-30.118 48.188-54.212 66.259-108.424 72.282-289.129 72.282-397.553 0-30.118-18.071-48.188-42.165-54.212-66.259zM512-33.882c-265.035 0-481.882 216.847-481.882 481.882s216.847 481.882 481.882 481.882 481.882-216.847 481.882-481.882-216.847-481.882-481.882-481.882zM512 851.576c-222.871 0-403.576-180.706-403.576-403.576s180.706-403.576 403.576-403.576c222.871 0 403.576 180.706 403.576 403.576s-180.706 403.576-403.576 403.576z" />
<glyph unicode="&#xe902;" glyph-name="share" d="M750.933 567.467c-93.867 0-170.667 76.8-170.667 170.667s76.8 170.667 170.667 170.667c93.867 0 170.667-76.8 170.667-170.667s-76.8-170.667-170.667-170.667zM750.933 823.467c-42.667 0-68.267-34.133-68.267-76.8s34.133-76.8 76.8-76.8c42.667 0 76.8 34.133 76.8 76.8s-42.667 76.8-85.333 76.8zM273.067 277.333c-93.867 0-170.667 76.8-170.667 170.667s76.8 170.667 170.667 170.667c93.867 0 170.667-76.8 170.667-170.667s-76.8-170.667-170.667-170.667zM273.067 524.8c-42.667 0-76.8-34.133-76.8-76.8s34.133-76.8 76.8-76.8c42.667 0 68.267 34.133 68.267 76.8s-25.6 76.8-68.267 76.8zM750.933-21.333c-93.867 0-170.667 76.8-170.667 170.667s76.8 170.667 170.667 170.667c93.867 0 170.667-76.8 170.667-170.667s-76.8-170.667-170.667-170.667zM750.933 234.667c-42.667 0-68.267-42.667-68.267-85.333s34.133-76.8 76.8-76.8c42.667 0 76.8 34.133 76.8 76.8-8.533 42.667-42.667 85.333-85.333 85.333zM648.533 166.4c-8.533 0-17.067 0-25.6 8.533l-273.067 170.667c-25.6 8.533-25.6 42.667-17.067 59.733 17.067 25.6 42.667 25.6 68.267 17.067l273.067-170.667c25.6-8.533 25.6-34.133 17.067-59.733-8.533-17.067-25.6-25.6-42.667-25.6zM375.467 465.067c-17.067 0-34.133 8.533-42.667 25.6s-8.533 51.2 17.067 59.733l273.067 170.667c25.6 8.533 51.2 8.533 68.267-17.067s8.533-51.2-17.067-68.267l-273.067-170.667c-8.533 0-17.067 0-25.6 0z" />
<glyph unicode="&#xe903;" glyph-name="plus" horiz-adv-x="960" d="M0 480h960v-64h-960v64zM448 928h64v-960h-64v960z" />
<glyph unicode="&#xe904;" glyph-name="minus" d="M0 482.133h1024v-68.267h-1024v68.267z" />
<glyph unicode="&#xe905;" glyph-name="astric" d="M853.484 260.936l-71.24 120.822-69.878-120.822h141.117zM853.361 635.587h-141.937l70.697-118.385 71.24 118.385zM521.124 823.624l-70.298-120.156h141.169l-70.871 120.156zM190.413 635.587l70.185-119.122 69.816 119.122h-140.001zM190.362 259.942l140.175 0.881-69.919 119.767-70.257-120.648zM70.472 703.468h301.148l150.62 256.532 8.97-15.268 141.619-241.265h301.169l-8.94-15.176-141.64-239.729 150.579-256.614h-301.169l-150.589-255.949-8.94 15.237-141.65 240.701h-301.148l150.559 256.614-150.589 254.915zM411.034 633.324l-114.084-184.822 114.084-186.44h222.382l114.115 186.44-114.115 184.822h-222.382zM522.117 72.817l69.878 119.122h-141.015l71.137-119.122zM514.068 527.176c22.231 0 42.414-8.878 57.119-23.265v0.031c14.592-14.316 23.706-34.14 23.706-55.972 0-21.76-9.124-41.564-23.706-55.91v-0.061c-14.592-14.346-34.847-23.245-57.119-23.245s-42.465 8.888-57.088 23.245h0.031c-14.684 14.356-23.767 34.212-23.767 56.003 0 21.76 9.093 41.564 23.736 55.91l0.031 0.031c14.643 14.356 34.847 23.235 57.057 23.235z" />
<glyph unicode="&#xe906;" glyph-name="globe" d="M522.24 949.75c-101.253 0-200.253-30.034-284.436-86.282-84.224-56.279-149.842-136.223-188.59-229.775-38.748-93.563-48.876-196.495-29.123-295.813 19.753-99.379 68.495-190.556 140.124-262.134 71.598-71.619 162.806-120.371 262.154-140.124 99.318-19.814 202.25-9.626 295.813 29.123s173.496 104.376 229.806 188.57c56.248 84.183 86.252 183.183 86.252 284.436-0.123 135.752-54.118 265.912-150.118 361.871-96 96-226.13 149.975-361.882 150.129zM392.428 240.824h259.625c-26.429-90.327-70.748-171.694-129.812-235.756-59.064 64.061-103.373 145.428-129.812 235.756zM374.559 319.631c-13.066 78.193-13.066 158.065 0 236.278h295.373c13.056-78.223 13.056-158.085 0-236.278h-295.373zM89.016 437.75c-0.031 39.936 5.468 79.718 16.374 118.159h189.348c-11.745-78.346-11.745-157.972 0-236.278h-189.348c-10.895 38.369-16.404 78.193-16.374 118.118zM652.052 634.685h-259.625c26.44 90.286 70.748 171.663 129.812 235.756 59.064-64.092 103.383-145.469 129.812-235.756zM749.742 555.909h189.379c21.811-77.251 21.811-159.027 0-236.278h-189.379c11.745 78.305 11.745 157.932 0 236.278zM908.052 634.685h-174.428c-20.132 79.063-53.883 154.061-99.748 221.532 58.624-15.749 113.367-43.622 160.563-81.777 47.176-38.124 85.924-85.75 113.613-139.756zM410.583 856.218c-45.875-67.471-79.657-142.469-99.748-221.532h-174.408c27.72 53.996 66.406 101.622 113.623 139.745 47.217 38.164 101.908 66.038 160.532 81.787zM136.428 240.824h174.408c20.091-79.073 53.873-154.071 99.748-221.573-58.624 15.749-113.316 43.633-160.532 81.818-47.217 38.124-85.903 85.75-113.623 139.756zM633.866 19.251c45.865 67.502 79.616 142.5 99.748 221.573h174.428c-27.689-53.996-66.427-101.632-113.623-139.745-47.176-38.195-101.929-66.079-160.553-81.828z" />
<glyph unicode="&#xe907;" glyph-name="whatsapps" d="M813.998 353.116l-157.563 78.807c-6.185 3.062-13.117 4.475-19.999 4.055-6.943-0.43-13.619-2.693-19.374-6.533l-72.315-48.22c-33.188 18.248-60.539 45.527-78.787 78.746l48.251 72.315c3.84 5.755 6.093 12.442 6.533 19.374 0.451 6.922-0.963 13.834-4.055 20.019l-78.776 157.522c-3.246 6.595-8.315 12.165-14.561 16.036s-13.466 5.908-20.808 5.878c-52.255 0-102.318-20.746-139.254-57.651-36.936-36.936-57.692-87.040-57.692-139.254 0.123-114.872 45.814-224.973 127.027-306.217 81.224-81.193 191.355-126.874 306.186-126.996 25.866 0 51.497 5.069 75.366 15.002 23.88 9.882 45.629 24.381 63.877 42.629 18.248 18.309 32.809 39.997 42.68 63.928 9.943 23.88 15.002 49.5 15.002 75.315 0 7.373-2.058 14.5-5.868 20.746s-9.298 11.254-15.872 14.5zM638.822 199.741c-93.972 0.133-184.064 37.499-250.501 103.936-66.468 66.437-103.844 156.559-103.936 250.532-0.031 27.31 9.441 53.78 26.747 74.906 17.316 21.125 41.411 35.625 68.219 40.96l56.494-113.213-48.087-71.588c-3.594-5.376-5.806-11.561-6.431-18.033-0.635-6.441 0.338-12.933 2.836-18.934 28.18-66.939 81.469-120.259 148.439-148.439 6.001-2.632 12.564-3.625 19.057-3.133 6.502 0.635 12.78 2.755 18.278 6.38l71.885 48.005 113.254-56.566c-5.376-26.808-19.937-50.934-41.134-68.178-21.248-17.326-47.749-26.757-75.121-26.634zM520.704 948.050c-88.412 0.031-175.319-22.845-252.252-66.376s-141.281-106.22-186.778-181.996c-45.527-75.776-70.656-162.058-72.94-250.44-2.253-88.371 18.371-175.811 59.904-253.809l-55.88-167.69c-4.628-13.865-5.284-28.754-1.935-42.998 3.379-14.254 10.629-27.249 20.972-37.56 10.342-10.373 23.378-17.623 37.622-20.941 14.223-3.369 29.123-2.755 42.998 1.884l167.629 55.869c68.659-36.495 144.753-56.873 222.464-59.617 77.752-2.755 155.064 12.247 226.13 43.868 71.055 31.631 133.939 79.002 183.941 138.629 49.992 59.556 85.811 129.751 104.622 205.179 18.872 75.438 20.255 154.225 4.116 230.318-16.118 76.063-49.367 147.466-97.239 208.783-47.882 61.276-109.128 110.879-178.995 144.998-69.888 34.12-146.647 51.866-224.379 51.896zM520.704 2.867c-76.196-0.133-151.009 19.999-216.945 58.122-4.813 2.755-10.189 4.495-15.718 5.13-5.56 0.502-11.162-0.133-16.466-1.884l-184.125-61.368 61.409 184.064c1.751 5.315 2.376 10.936 1.812 16.435-0.563 5.56-2.284 10.926-5.069 15.749-47.749 82.616-66.939 178.616-54.559 273.183 12.37 94.556 55.624 182.405 123.034 249.897 67.41 67.471 155.187 110.848 249.754 123.341 94.556 12.503 190.618-6.564 273.254-54.221 82.616-47.657 147.18-121.211 183.747-209.336 36.495-88.095 42.926-185.784 18.248-277.944-24.627-92.119-79.002-173.558-154.634-231.619-75.694-58.051-168.376-89.549-263.741-89.549z" />
<glyph unicode="&#xe908;" glyph-name="mail" d="M884.736 50.688h-745.472c-65.536 0-118.784 53.248-118.784 118.784v561.152c0 65.536 53.248 118.784 118.784 118.784h749.568c65.536 0 118.784-53.248 118.784-118.784v-561.152c-4.096-65.536-57.344-118.784-122.88-118.784zM139.264 800.256c-36.864 0-69.632-32.768-69.632-69.632v-561.152c0-36.864 32.768-69.632 69.632-69.632h749.568c36.864 0 69.632 32.768 69.632 69.632v561.152c0 36.864-32.768 69.632-69.632 69.632h-749.568zM512 378.368c-4.096 0-8.192 0-12.288 4.096l-466.944 327.68c-12.288 8.192-16.384 20.48-8.192 32.768 8.192 8.192 20.48 12.288 32.768 4.096l454.656-319.488 454.656 319.488c12.288 8.192 24.576 4.096 32.768-4.096 8.192-12.288 4.096-24.576-4.096-32.768l-466.944-327.68c-8.192-4.096-12.288-4.096-16.384-4.096z" />
<glyph unicode="&#xe909;" glyph-name="mappin" d="M523.94 732.037c-36.178 0-71.537-10.711-101.601-30.822-30.044-20.101-53.504-48.64-67.328-82.074-13.855-33.382-17.469-70.175-10.424-105.636 7.066-35.461 24.504-68.035 50.074-93.604s58.143-42.998 93.604-50.074c35.461-7.004 72.253-3.43 105.677 10.435 33.434 13.824 62.003 37.284 82.002 67.359 20.142 30.075 30.863 65.393 30.863 101.571 0 48.497-19.292 94.996-53.565 129.28-34.304 34.314-80.804 53.565-129.3 53.565zM523.94 439.47c-21.719 0-42.926 6.431-60.969 18.504-18.033 12.032-32.102 29.174-40.387 49.213-8.325 20.070-10.496 42.107-6.246 63.386 4.25 21.289 14.674 40.858 30.034 56.177 15.319 15.36 34.888 25.784 56.177 30.034 21.299 4.25 43.325 2.079 63.396-6.246 19.999-8.284 37.14-22.354 49.213-40.387 12.083-18.033 18.504-39.25 18.504-60.969 0-29.112-11.571-56.996-32.143-77.568-20.582-20.572-48.435-32.143-77.578-32.143zM523.94 951.47c-106.65-0.102-208.896-42.537-284.324-117.965s-117.862-177.684-117.965-284.324c0-143.534 66.324-295.649 192-440.003 56.463-65.208 120.033-123.924 189.501-175.073 6.144-4.28 13.466-6.636 20.961-6.636s14.817 2.355 21.002 6.636c69.325 51.149 132.751 109.865 189.112 175.073 125.501 144.364 192 296.468 192 440.003-0.154 106.639-42.578 208.886-117.996 284.324-75.428 75.428-177.654 117.862-284.293 117.965zM523.94 9.759c-75.571 59.423-329.144 277.709-329.144 539.423 0 87.286 34.683 170.998 96.399 232.745 61.747 61.716 145.469 96.389 232.745 96.389 87.286 0 170.998-34.673 232.714-96.389 61.716-61.747 96.43-145.469 96.43-232.745 0-261.642-253.573-480-329.144-539.423z" />
<glyph unicode="&#xe90a;" glyph-name="angle-down" d="M983.040 704c-30.72 30.72-81.92 30.72-112.64 0l-358.4-348.16-348.16 358.4c-30.72 30.72-81.92 30.72-112.64 0s-30.72-81.92 0-112.64l409.6-409.6c30.72-30.72 81.92-30.72 112.64 0l409.6 409.6c30.72 30.72 30.72 71.68 0 102.4z" />
<glyph unicode="&#xe90b;" glyph-name="angle-up" d="M983.040 192c-30.72-30.72-81.92-30.72-112.64 0l-358.4 348.16-348.16-358.4c-30.72-30.72-81.92-30.72-112.64 0s-30.72 81.92 0 112.64l409.6 409.6c30.72 30.72 81.92 30.72 112.64 0l409.6-409.6c30.72-30.72 30.72-71.68 0-102.4z" />
<glyph unicode="&#xe90c;" glyph-name="angle-left" d="M778.24 908.8c30.72-30.72 30.72-81.92 0-112.64l-348.16-348.16 348.16-358.4c30.72-30.72 30.72-81.92 0-112.64s-81.92-30.72-112.64 0l-409.6 409.6c-30.72 30.72-30.72 81.92 0 112.64l409.6 409.6c40.96 30.72 81.92 30.72 112.64 0z" />
<glyph unicode="&#xe90d;" glyph-name="angle-right" d="M256 908.8c-30.72-30.72-30.72-81.92 0-112.64l348.16-348.16-348.16-358.4c-30.72-30.72-30.72-81.92 0-112.64s81.92-30.72 112.64 0l409.6 409.6c30.72 30.72 30.72 81.92 0 112.64l-409.6 409.6c-40.96 30.72-81.92 30.72-112.64 0z" />
<glyph unicode="&#xe90e;" glyph-name="circle-close" d="M522.24-74.24c-135.782 0-266.035 53.934-362.035 149.996-96.031 96-149.965 226.212-149.965 362.004 0 135.782 53.934 266.035 149.965 362.035 96.031 96.031 226.253 149.965 362.035 149.965 135.793 0 266.004-53.934 362.004-149.965 96.061-96.031 149.996-226.253 149.996-362.035-0.143-135.711-54.139-265.861-150.139-361.861s-226.15-149.996-361.861-150.139zM522.24 856.689c-111.104 0-217.641-44.145-296.212-122.716s-122.685-185.108-122.685-296.212c0-111.073 44.114-217.641 122.675-296.212 78.582-78.5 185.119-122.644 296.223-122.644 111.145 0 217.641 44.155 296.212 122.655 78.582 78.561 122.644 185.129 122.644 296.202-0.072 111.073-44.288 217.539-122.788 296.11-78.5 78.531-184.996 122.706-296.069 122.819v0zM719.667 240.261c-8.724-8.714-20.572-13.64-32.86-13.64-12.36 0-24.207 4.925-32.932 13.64l-131.635 131.635-131.604-131.635c-8.684-9.001-20.613-14.070-33.075-14.213-12.503-0.154-24.504 4.782-33.321 13.64-8.858 8.776-13.752 20.777-13.65 33.362 0.113 12.421 5.212 24.351 14.213 33.004l131.656 131.707-131.645 131.676c-9.001 8.673-14.1 20.572-14.213 33.065-0.102 12.462 4.792 24.463 13.65 33.321 8.817 8.827 20.818 13.711 33.321 13.609 12.462-0.113 24.392-5.212 33.075-14.182l131.594-131.707 131.635 131.717c8.653 8.96 20.572 14.070 33.065 14.182 12.503 0.102 24.504-4.782 33.29-13.609 8.858-8.858 13.793-20.859 13.711-33.321-0.143-12.503-5.284-24.392-14.285-33.065l-131.553-131.686 131.564-131.707c8.714-8.724 13.64-20.582 13.64-32.86 0-12.36-4.925-24.228-13.64-32.932z" />
<glyph unicode="&#xe90f;" glyph-name="left-arrow" d="M446.464 808.448c8.192 0 16.384-4.096 22.528-10.24 12.288-12.288 12.288-32.768 0-47.104l-303.104-303.104 303.104-305.152c12.288-12.288 12.288-32.768 0-47.104s-32.768-12.288-47.104 0l-327.68 327.68c-12.288 12.288-12.288 32.768 0 47.104l327.68 327.68c8.192 6.144 16.384 10.24 24.576 10.24zM151.552 480.768h753.664c18.432 0 32.768-14.336 32.768-32.768s-14.336-32.768-32.768-32.768h-753.664c-18.432 0-32.768 14.336-32.768 32.768s14.336 32.768 32.768 32.768z" />
<glyph unicode="&#xe910;" glyph-name="mic" d="M522.24 223.652c56.791 0.061 111.186 22.692 151.327 62.781 40.090 40.141 62.659 94.536 62.781 151.327v297.892c0 56.781-22.579 111.247-62.72 151.388-40.151 40.172-94.597 62.72-151.388 62.72-56.781 0-111.247-22.548-151.388-62.72-40.172-40.141-62.72-94.607-62.72-151.388v-297.892c0.092-56.791 22.661-111.186 62.812-151.327 40.11-40.090 94.546-62.72 151.296-62.781zM363.981 735.652c0 41.984 16.671 82.207 46.346 111.913 29.706 29.665 69.929 46.336 111.913 46.336 42.015 0 82.207-16.671 111.944-46.336 29.665-29.706 46.305-69.939 46.305-111.913v-297.892c0-42.015-16.64-82.207-46.305-111.944-29.727-29.665-69.929-46.305-111.944-46.305-41.984 0-82.207 16.64-111.913 46.305-29.676 29.737-46.346 69.929-46.346 111.944v297.892zM550.175 75.868v-122.184c0-7.455-2.939-14.551-8.182-19.784-5.233-5.233-12.329-8.141-19.753-8.141s-14.51 2.908-19.753 8.151c-5.233 5.233-8.172 12.329-8.172 19.784v122.173c-91.146 7.096-176.23 48.292-238.346 115.425-62.106 67.031-96.666 155.064-96.788 246.456 0 7.424 2.939 14.51 8.172 19.753s12.339 8.172 19.753 8.172c7.414 0 14.51-2.939 19.753-8.172s8.182-12.319 8.182-19.743c0-81.449 32.379-159.652 89.979-217.252s135.731-89.948 217.221-89.948c81.449 0 159.652 32.348 217.252 89.948s89.948 135.803 89.948 217.252c0 7.424 2.908 14.51 8.151 19.753 5.233 5.233 12.329 8.172 19.784 8.172 7.444 0 14.541-2.939 19.784-8.172s8.141-12.329 8.141-19.753c-0.123-91.402-34.683-179.425-96.819-246.456-62.075-67.144-147.2-108.329-238.305-115.436z" />
<glyph unicode="&#xe911;" glyph-name="menu-bar" d="M1034.209 37.96h-1024v126.249h1024v-126.249zM1034.209 374.63h-1024v126.259h1024v-126.259zM1034.209 711.311h-1024v126.249h1024v-126.249z" />
<glyph unicode="&#xe912;" glyph-name="minus-circle" d="M522.24-74.24c-282.317 0-512 229.683-512 512s229.683 512 512 512 512-229.683 512-512-229.683-512-512-512zM522.24 856.668c-230.973 0-418.908-187.935-418.908-418.908 0-231.004 187.935-418.908 418.908-418.908 231.004 0 418.908 187.914 418.908 418.908 0 230.973-187.904 418.908-418.908 418.908zM708.424 391.209h-372.367c-25.702 0-46.541 20.818-46.541 46.551 0 25.702 20.838 46.541 46.541 46.541h372.357c25.733 0 46.551-20.838 46.551-46.541 0.010-25.733-20.818-46.551-46.541-46.551z" />
<glyph unicode="&#xe913;" glyph-name="plus-circle" d="M522.24-74.24c-282.317 0-512 229.683-512 512s229.683 512 512 512 512-229.683 512-512-229.683-512-512-512zM522.24 856.668c-230.973 0-418.908-187.935-418.908-418.908 0-231.004 187.935-418.908 418.908-418.908 231.004 0 418.908 187.914 418.908 418.908 0 230.973-187.904 418.908-418.908 418.908zM522.24 205.025c-25.702 0-46.541 20.818-46.541 46.551v139.633h-139.643c-25.702 0-46.541 20.818-46.541 46.551 0 25.702 20.838 46.541 46.541 46.541h139.643v139.643c0 25.702 20.838 46.541 46.541 46.541 25.733 0 46.551-20.838 46.551-46.541v-139.643h139.633c25.733 0 46.551-20.838 46.551-46.541 0-25.733-20.818-46.551-46.551-46.551h-139.633v-139.633c0-25.723-20.818-46.551-46.551-46.551z" />
<glyph unicode="&#xe914;" glyph-name="map-pin" d="M522.24 726.344c-34.98 0-69.171-10.373-98.263-29.798-29.071-19.446-51.743-47.063-65.126-79.36-13.394-32.328-16.896-67.891-10.066-102.185 6.82-34.304 23.665-65.823 48.404-90.542 24.73-24.76 56.248-41.574 90.552-48.404 34.304-6.84 69.868-3.348 102.164 10.056 32.338 13.384 59.945 36.045 79.411 65.126 19.425 29.092 29.778 63.283 29.778 98.263 0 46.909-18.606 91.884-51.804 125.041-33.157 33.178-78.162 51.804-125.051 51.804zM522.24 428.493c-23.941 0-47.329 7.096-67.215 20.388-19.907 13.292-35.41 32.205-44.585 54.303-9.144 22.108-11.54 46.438-6.881 69.919 4.669 23.47 16.189 45.036 33.116 61.952 16.916 16.927 38.482 28.447 61.952 33.116s47.8 2.273 69.919-6.871c22.098-9.165 41.011-24.668 54.303-44.585 13.302-19.896 20.388-43.284 20.388-67.215 0-32.082-12.739-62.874-35.42-85.555-22.682-22.712-53.463-35.451-85.576-35.451zM522.24 949.74c-106.107-0.113-207.841-42.332-282.88-117.371-75.039-75.028-117.258-176.763-117.371-282.88 0-143.862 66.744-296.632 192.993-441.846 56.996-65.853 121.139-125.194 191.232-176.855 4.7-3.287 10.281-5.059 16.015-5.059s11.315 1.772 16.005 5.059c70.103 51.661 134.267 111.002 191.252 176.855 126.269 145.213 193.004 297.871 193.004 441.856-0.123 106.107-42.363 207.841-117.371 282.87-75.018 75.039-176.773 117.258-282.88 117.371zM522.24-11.366c-69.806 53.903-344.392 283.402-344.392 560.865 0 91.331 36.28 178.934 100.874 243.517s152.187 100.874 243.517 100.874c91.341 0 178.954-36.28 243.517-100.874 64.584-64.594 100.884-152.187 100.884-243.517 0-277.473-274.596-506.972-344.402-560.865z" />
<glyph unicode="&#xe915;" glyph-name="circle-tick" d="M512 929.882c-265.035 0-481.882-216.847-481.882-481.882s216.847-481.882 481.882-481.882 481.882 216.847 481.882 481.882-216.847 481.882-481.882 481.882zM427.671 303.435l-132.518 126.494 36.141 30.118 96.376-96.376 246.965 240.941 36.141-30.118-283.106-271.059z" />
<glyph unicode="&#xe916;" glyph-name="search" d="M976.51-16.37l0.009-0.005 0.317 0.34c16.058 17.417 17.171 45.582-1.671 61.938l-210.288 210.493c56.543 71.019 91.038 160.433 91.038 257.802 0 226.731-183.966 410.893-410.503 410.893-226.538 0-410.503-184.162-410.503-410.893 0-226.733 183.966-410.895 410.503-410.895 98.183 0 187.536 34.476 257.596 91.071l210.874-211.065c17.706-16.361 45.512-16.812 62.627 0.321zM446.446 835.62c177.496 0 321.098-143.725 321.098-321.422 0-176.664-144.635-321.421-321.098-321.421-177.496 0-321.097 143.723-321.097 321.421s143.601 321.422 321.097 321.422z" />
<glyph unicode="&#xe917;" glyph-name="leftback" d="M522.24 949.77c-101.263 0-200.264-30.024-284.467-86.282-84.173-56.259-149.821-136.233-188.559-229.796-38.748-93.542-48.896-196.485-29.133-295.823 19.743-99.287 68.516-190.566 140.104-262.164 71.619-71.588 162.847-120.361 262.154-140.104 99.338-19.804 202.26-9.636 295.803 29.133 93.594 38.769 173.537 104.407 229.837 188.559 56.207 84.214 86.262 183.235 86.262 284.467-0.154 135.752-54.149 265.902-150.149 361.882-95.949 96-226.109 149.975-361.851 150.129zM522.24 4.526c-85.699 0-169.441 25.436-240.691 73.032-71.24 47.585-126.771 115.282-159.57 194.406-32.799 79.176-41.359 166.287-24.648 250.307 16.722 84.050 57.979 161.229 118.569 221.819s137.769 101.847 221.829 118.569c84.029 16.722 171.172 8.151 250.307-24.637s146.821-88.31 194.406-159.57 73.032-154.993 73.032-240.691c-0.102-114.872-45.855-224.973-127.027-306.196-81.234-81.183-191.334-126.935-306.207-127.037zM758.548 437.76c0-10.435-4.157-20.46-11.54-27.843-7.393-7.383-17.388-11.54-27.853-11.54h-298.793l90.358-90.255c3.635-3.686 6.564-8.049 8.53-12.82 1.976-4.772 3-9.892 3-15.073s-1.024-10.312-3-15.084c-1.966-4.772-4.895-9.134-8.53-12.82-3.666-3.594-7.997-6.574-12.8-8.509-4.772-1.946-9.902-2.98-15.084-2.98-5.171 0-10.301 1.034-15.073 2.98-4.792 1.935-9.134 4.915-12.8 8.509l-157.522 157.542c-3.666 3.686-6.564 8.018-8.54 12.82-1.966 4.772-3 9.902-3 15.073 0 5.181 1.034 10.312 3 15.084 1.976 4.792 4.874 9.124 8.54 12.8l157.542 157.532c7.383 7.383 17.408 11.53 27.873 11.53s20.49-4.157 27.873-11.53c7.383-7.414 11.53-17.418 11.53-27.873s-4.147-20.46-11.53-27.873l-90.368-90.276h298.793c10.455 0 20.46-4.157 27.853-11.54 7.383-7.383 11.54-17.408 11.54-27.853z" />
<glyph unicode="&#xe918;" glyph-name="filter" d="M1007.718 869.376c-5.325 12.288-14.029 22.733-25.19 30.003s-24.269 11.162-37.581 11.059h-865.997c-13.312 0-26.419-3.891-37.581-11.264s-19.866-17.613-25.293-29.798c-5.427-12.186-7.066-25.702-4.915-38.81s8.090-25.395 16.998-35.328l0.307-0.307 333.21-355.738c1.741-1.843 2.662-4.198 2.662-6.758v-377.958c0-12.493 3.379-24.678 9.83-35.43 6.451-10.65 15.565-19.456 26.624-25.293 10.957-5.837 23.347-8.704 35.84-8.090s24.474 4.608 34.918 11.469l157.389 104.96c9.421 6.246 17.203 14.848 22.528 24.781 5.325 10.035 8.192 21.197 8.090 32.461v273.101c0 2.458 0.922 4.915 2.662 6.758l333.517 356.147c9.114 9.83 15.053 22.118 17.203 35.328 2.048 13.005 0.307 26.624-5.222 38.707zM952.32 835.277l-333.21-355.84c-11.981-12.698-18.637-29.594-18.637-47.104v-272.998c0-1.638-0.41-3.174-1.126-4.71-0.717-1.434-1.843-2.662-3.174-3.584l-157.491-104.858c-1.434-1.024-3.174-1.536-5.018-1.638-1.741-0.102-3.584 0.307-5.12 1.126s-2.867 2.048-3.789 3.584c-0.922 1.536-1.434 3.277-1.434 5.018v378.163c0 17.51-6.656 34.406-18.637 47.104l-332.902 355.533c-1.229 1.434-2.048 3.174-2.355 5.018s0 3.789 0.717 5.427c0.717 1.741 2.048 3.174 3.584 4.198s3.379 1.638 5.325 1.638h865.894c1.946 0.102 3.789-0.41 5.427-1.536 1.638-1.024 2.867-2.56 3.584-4.301 0.819-1.638 1.126-3.584 0.819-5.427-0.41-1.741-1.229-3.482-2.458-4.813z" />
<glyph unicode="&#xe919;" glyph-name="check2" d="M1013.76 734.618c-0.102 34.918-18.227 58.266-47.821 74.24-45.978 24.883-79.974 1.536-110.899-29.082-103.424-102.605-206.029-206.234-309.658-308.736-61.542-60.928-118.886-158.208-188.518-168.346-50.586-7.373-118.579 100.454-177.971 158.003-44.032 42.598-91.034 71.27-143.053 16.998-47.514-49.562-21.197-96.154 18.022-136.294 72.806-74.445 148.070-146.432 220.262-221.389 58.778-61.133 111.002-55.296 168.55 2.97 173.056 175.309 348.16 348.774 522.342 523.059 24.678 24.678 47.923 50.483 48.742 88.576z" />
<glyph unicode="&#xe91a;" glyph-name="popularity" d="M702.157 448c0 8.602-6.042 16.077-14.541 17.715l-228.454 46.285c-9.83 15.872-23.142 29.082-39.014 39.014l-46.285 228.454c-1.741 8.397-9.114 14.541-17.715 14.541s-16.077-6.042-17.715-14.541l-46.285-228.454c-15.872-9.83-29.082-23.142-39.014-39.014l-228.352-46.182c-8.499-1.741-14.541-9.114-14.541-17.818s6.042-16.077 14.541-17.715l228.454-46.285c9.83-15.872 23.142-29.082 39.014-39.014l46.285-228.454c1.741-8.397 9.114-14.541 17.715-14.541s16.077 6.042 17.715 14.541l46.285 228.454c15.872 9.83 29.082 23.142 39.014 39.014l228.454 46.285c8.294 1.741 14.438 9.114 14.438 17.715zM942.182 276.48l-104.755 21.197c-4.506 6.963-10.342 12.8-17.306 17.306l-21.197 104.755c-1.024 5.222-5.734 9.011-11.059 9.011s-10.035-3.789-11.059-9.011l-21.299-104.858c-6.963-4.506-12.8-10.342-17.306-17.306l-104.755-21.197c-5.222-1.024-9.011-5.734-9.011-11.059s3.789-10.035 9.011-11.059l104.755-21.197c4.506-6.963 10.342-12.8 17.306-17.306l21.197-104.755c1.024-5.222 5.734-9.011 11.059-9.011s10.035 3.789 11.059 9.011l21.197 104.755c6.963 4.506 12.8 10.342 17.306 17.306l104.755 21.197c5.222 1.024 9.011 5.734 9.011 11.059 0.102 5.427-3.686 10.035-8.909 11.162zM1004.749 659.251l-92.058 18.637c-3.891 5.939-9.011 10.957-14.848 14.848l-18.637 92.058c-1.024 5.222-5.734 9.011-11.059 9.011-5.427 0-10.035-3.789-11.059-9.011l-18.637-92.058c-5.939-3.891-10.957-9.011-14.848-14.848l-92.058-18.637c-5.222-1.024-9.011-5.734-9.011-11.059s3.789-10.035 9.011-11.059l92.058-18.637c3.891-5.939 9.011-10.957 14.848-14.848l18.637-92.058c1.024-5.222 5.734-9.011 11.059-9.011 5.427 0 10.035 3.789 11.059 9.011l18.637 92.058c5.939 3.891 10.957 9.011 14.848 14.848l92.058 18.637c5.222 1.024 9.011 5.734 9.011 11.059 0 5.427-3.789 10.035-9.011 11.059z" />
<glyph unicode="&#xe91b;" glyph-name="star" d="M988.672 491.008l-201.933-176.23 60.518-262.349c3.174-13.722 2.253-28.058-2.662-41.267s-13.619-24.678-24.986-32.973c-11.366-8.294-24.986-13.005-39.014-13.619s-28.058 2.97-40.038 10.24l-228.864 138.752-228.352-138.752c-12.083-7.27-26.010-10.854-40.038-10.24s-27.648 5.325-39.014 13.619c-11.366 8.294-20.070 19.763-24.986 32.973s-5.837 27.546-2.662 41.267l60.416 262.042-201.933 176.538c-10.65 9.216-18.432 21.402-22.221 34.918-3.789 13.619-3.482 27.955 0.819 41.37 4.403 13.414 12.595 25.293 23.654 33.997 11.059 8.806 24.474 14.029 38.502 15.258l266.24 23.040 103.936 247.808c5.427 13.005 14.541 24.064 26.317 31.949 11.776 7.782 25.498 11.981 39.629 11.981s27.853-4.198 39.629-11.981c11.776-7.782 20.89-18.944 26.317-31.949l104.243-247.808 266.138-23.040c14.029-1.229 27.443-6.451 38.502-15.258s19.251-20.582 23.654-33.997c4.403-13.414 4.71-27.853 0.819-41.37-3.789-13.619-11.469-25.702-22.221-34.918h-0.41z" />
<glyph unicode="&#xe91c;" glyph-name="popular" d="M583.475 941.158c-4.608 3.789-10.035 6.451-15.872 7.782-5.837 1.229-11.878 1.126-17.613-0.41s-11.059-4.506-15.462-8.499c-4.403-3.994-7.782-9.011-9.83-14.643l-102.195-280.678-112.23 108.749c-3.789 3.686-8.294 6.451-13.21 8.294-4.915 1.741-10.24 2.56-15.462 2.15s-10.342-1.843-14.95-4.403c-4.608-2.458-8.602-5.939-11.878-10.138-100.659-131.891-151.757-264.499-151.757-394.24 0-108.442 43.11-212.378 119.706-289.075 76.902-76.698 180.838-119.808 289.28-119.808s212.378 43.11 289.075 119.706c76.698 76.698 119.706 180.634 119.706 289.075 0.102 276.275-235.93 501.862-337.306 586.138z" />
<glyph unicode="&#xe91d;" glyph-name="whatsapp2" d="M1003.725 532.48c-44.954 276.787-313.344 464.998-579.584 406.733-281.19-61.645-463.155-342.835-372.122-608.768 38.912-113.766 30.618-206.131-12.698-307.098-9.216-21.606-14.746-44.749-25.19-77.107 79.462 13.312 147.763 42.701 217.702 65.229 32.461 10.445 59.597 11.571 92.365-3.277 81.818-37.171 168.141-48.742 258.56-37.581 270.746 33.382 464.896 291.123 420.966 561.869zM867.635 244.531c-108.134-171.315-312.218-244.531-494.592-164.25-66.355 29.184-120.525 29.594-181.555 2.56-13.722-6.042-28.262-11.162-45.158 0.41 2.355 9.318 3.277 20.070 7.578 29.286 28.16 61.338 28.467 114.483-4.71 181.043-86.938 174.49-22.118 387.072 138.342 498.483 161.382 112.026 371.814 96.256 511.488-38.298 140.8-135.578 169.574-349.286 68.608-509.235zM734.106 354.816c-45.158 26.829-81.408 50.176-132.198-5.734-39.629-43.622-83.149 12.288-113.050 38.81-37.171 32.87-106.291 70.861-71.475 126.259 33.075 52.531 17.51 87.45 0.717 130.15-8.909 22.63-11.162 51.712-47.002 53.453-32.973 1.638-52.224-16.691-68.915-40.038-18.022-25.19-28.467-53.146-26.010-84.992 0.819-10.752 0.614-21.709 2.765-32.154 27.648-136.806 221.389-312.218 362.189-327.066 43.11-4.506 81.613 9.523 110.592 41.882 32.563 36.352 24.678 74.24-17.613 99.43z" />
<glyph unicode="&#xe91e;" glyph-name="chat" d="M997.683 749.568c-2.56 111.104-90.214 198.042-199.066 198.963-191.283 1.536-382.566 1.741-573.85-0.102-106.803-1.126-196.71-89.293-198.656-194.458-2.355-126.464-2.355-252.928 0.205-379.392 2.048-102.502 79.462-186.061 180.838-195.584 122.778-11.469 246.17-2.97 369.357-4.198 30.413-0.307 43.418-3.891 34.714-40.243-14.438-60.416-22.221-122.368-32.87-183.706 2.867-1.536 5.632-3.072 8.499-4.71 68.403 65.946 137.114 131.584 205.005 198.042 19.866 19.456 40.96 34.406 67.994 43.725 81.51 28.058 136.806 101.99 138.035 186.982 1.843 124.928 2.765 249.856-0.205 374.682zM308.429 421.888c-69.53 2.15-126.157 60.826-125.030 129.536 1.126 72.806 63.386 129.946 137.933 126.464 69.427-3.277 124.416-62.669 122.163-131.994-2.355-71.373-62.259-126.259-135.066-124.006zM705.741 421.786c-69.837 1.843-125.85 59.29-125.44 128.717 0.41 71.373 59.187 128.307 131.686 127.386 71.782-0.922 130.662-61.030 128.41-131.174-2.253-71.066-62.259-126.771-134.656-124.928z" />
<glyph unicode="&#xe91f;" glyph-name="download2" d="M364.442 718.95v-93.901h-295.219c-32.461 0-58.982-26.522-58.982-58.982v-236.134c0-32.461 26.522-58.982 58.982-58.982h295.117v-93.901c0-52.531 63.795-79.053 100.966-41.882l270.95 270.95c23.040 23.040 23.040 60.211 0 83.251l-270.848 270.95c-37.274 37.171-100.966 11.162-100.966-41.37zM954.778 34.816c32.461 0 58.982 26.522 58.982 58.982v708.403c0 32.461-26.522 58.982-58.982 58.982s-59.085-26.522-59.085-58.982v-708.403c0-32.461 26.522-58.982 59.085-58.982z" />
<glyph unicode="&#xe920;" glyph-name="circle-check" d="M417.792 249.344v0c-8.192 0-16.384 3.072-22.528 9.216l-136.192 141.312c-12.288 12.288-11.264 32.768 1.024 44.032 12.288 12.288 32.768 11.264 44.032-1.024l113.664-117.76 301.056 311.296c12.288 12.288 31.744 12.288 44.032 1.024 12.288-12.288 12.288-31.744 1.024-44.032l-323.584-334.848c-5.12-6.144-13.312-9.216-22.528-9.216zM512-53.76c-276.48 0-501.76 225.28-501.76 501.76s225.28 501.76 501.76 501.76 501.76-225.28 501.76-501.76-225.28-501.76-501.76-501.76zM512 887.296c-241.664 0-439.296-197.632-439.296-439.296s196.608-439.296 439.296-439.296c241.664 0 439.296 196.608 439.296 439.296 0 241.664-197.632 439.296-439.296 439.296z" />
<glyph unicode="&#xe921;" glyph-name="copy" d="M618.035 950.426h-428.616c-34.714-0.041-68.004-13.834-92.59-38.38-24.535-24.586-38.339-57.876-38.38-92.59v-517.12c0.041-34.673 13.834-68.004 38.41-92.59 24.545-24.576 57.836-38.328 92.549-38.41h101.458v-114.002c0.041-34.673 13.834-68.004 38.42-92.498 24.535-24.586 57.825-38.42 92.58-38.42h434.34c34.755 0 68.004 13.834 92.58 38.42 24.586 24.504 38.42 57.825 38.42 92.498v523.971c0 34.755-13.834 68.045-38.42 92.59-24.576 24.576-57.825 38.38-92.58 38.41h-107.172v107.162c0 34.714-13.834 68.004-38.328 92.59-24.576 24.535-57.825 38.339-92.672 38.369zM129.915 302.346v517.12c0 15.749 6.287 30.874 17.459 42.045 11.172 11.162 26.296 17.459 42.045 17.459h428.616c15.841 0 30.996-6.287 42.168-17.459s17.326-26.296 17.418-42.045v-517.12c-0.092-15.749-6.246-30.925-17.418-42.004-11.172-11.172-26.327-17.5-42.168-17.5h-428.616c-15.749 0-30.874 6.328-42.045 17.5-11.162 11.090-17.459 26.255-17.459 42.004zM856.207 640.85c15.831 0 30.925-6.287 42.076-17.459 11.172-11.172 17.418-26.296 17.418-42.086v-523.95c0-15.667-6.246-30.843-17.418-42.004-11.162-11.172-26.245-17.5-42.076-17.5h-434.33c-15.79 0-30.915 6.328-42.076 17.5-11.172 11.162-17.459 26.245-17.459 42.004v113.992h255.703c34.755 0.082 68.086 13.834 92.672 38.41 24.504 24.586 38.328 57.917 38.328 92.59v338.493h107.162z" />
<glyph unicode="&#xe922;" glyph-name="play" d="M981.023 448l-886.845-512v1024l886.845-512z" />
<glyph unicode="&#xe923;" glyph-name="file" d="M945.142 659.845l-281.098 281.088c-5.642 5.652-13.332 8.827-21.33 8.827h-481.884c-18.627 0-36.506-7.414-49.695-20.593-13.179-13.179-20.582-31.058-20.582-49.684v-883.456c0-18.657 7.414-36.536 20.582-49.715 13.189-13.179 31.068-20.552 49.695-20.552h722.821c18.668 0 36.547 7.373 49.725 20.552 13.169 13.179 20.552 31.058 20.552 49.715v642.519c0 7.997-3.133 15.647-8.786 21.299zM672.829 846.93l178.35-178.278h-178.35v178.278zM883.651-13.998h-722.821c-2.673 0-5.222 1.085-7.096 2.98-1.884 1.884-2.939 4.393-2.939 7.045v883.456c0 2.662 1.065 5.212 2.939 7.096 1.884 1.884 4.434 2.939 7.096 2.939h451.758v-250.982c0-7.997 3.144-15.647 8.786-21.299 5.642-5.642 13.332-8.827 21.33-8.827h250.982v-612.393c0-2.662-1.096-5.171-2.98-7.045-1.874-1.884-4.383-2.97-7.055-2.97zM712.98 397.599c0-7.997-3.133-15.677-8.776-21.33s-13.332-8.776-21.33-8.776h-321.27c-7.997 0-15.647 3.133-21.289 8.776-5.652 5.652-8.827 13.332-8.827 21.33s3.174 15.647 8.827 21.299c5.642 5.642 13.292 8.817 21.289 8.817h321.26c7.997 0 15.677-3.185 21.33-8.817 5.652-5.652 8.786-13.302 8.786-21.299zM712.98 236.984c0-7.997-3.133-15.688-8.776-21.34-5.652-5.642-13.332-8.776-21.33-8.776h-321.27c-7.997 0-15.647 3.144-21.289 8.776-5.652 5.652-8.827 13.343-8.827 21.34s3.174 15.677 8.827 21.33c5.642 5.652 13.292 8.776 21.289 8.776h321.26c7.997 0 15.677-3.133 21.33-8.776s8.786-13.332 8.786-21.33z" />
<glyph unicode="&#xe924;" glyph-name="infos" d="M522.24 949.76c-101.274 0-200.253-30.024-284.457-86.292-84.183-56.248-149.821-136.212-188.559-229.775-38.758-93.553-48.886-196.495-29.143-295.823 19.763-99.328 68.516-190.556 140.124-262.154 71.608-71.588 162.836-120.34 262.154-140.114 99.328-19.763 202.291-9.626 295.844 29.112 93.563 38.779 173.486 104.407 229.775 188.58 56.238 84.214 86.262 183.194 86.262 284.467-0.164 135.752-54.149 265.882-150.149 361.861-95.969 95.99-226.099 149.975-361.851 150.139zM522.24-13.998c-89.354 0-176.691 26.47-250.982 76.145-74.301 49.633-132.209 120.177-166.4 202.762-34.191 82.514-43.131 173.363-25.713 260.997 17.449 87.624 60.467 168.12 123.638 231.311 63.181 63.171 143.688 106.199 231.311 123.638 87.644 17.428 178.493 8.489 260.997-25.713 82.575-34.191 153.129-92.109 202.762-166.4 49.674-74.291 76.145-161.628 76.145-250.982-0.123-119.777-47.739-234.598-132.454-319.314s-199.526-132.321-319.304-132.444zM492.124 397.599v281.098c0 7.987 3.164 15.657 8.817 21.299 5.642 5.652 13.312 8.817 21.299 8.817 7.977 0 15.657-3.174 21.299-8.817 5.652-5.642 8.817-13.312 8.817-21.299v-281.098c0-7.967-3.174-15.647-8.817-21.299s-13.322-8.817-21.299-8.817c-7.987 0-15.657 3.174-21.299 8.817-5.652 5.652-8.817 13.332-8.817 21.299zM572.436 216.904c0-9.923-2.949-19.64-8.468-27.894-5.53-8.253-13.373-14.694-22.528-18.483-9.165-3.83-19.241-4.803-28.989-2.857-9.738 1.925-18.678 6.717-25.713 13.711-7.014 7.035-11.796 16.005-13.742 25.733-1.925 9.718-0.942 19.835 2.867 28.989 3.799 9.165 10.23 16.998 18.483 22.518s17.961 8.468 27.894 8.468c13.322 0 26.102-5.274 35.512-14.684 9.421-9.411 14.684-22.211 14.684-35.502z" />
<glyph unicode="&#xe925;" glyph-name="arrow-rect" d="M1034.24 897.987v-739.553c0-15.124-5.96-29.522-16.62-40.182-10.67-10.67-25.16-16.712-40.274-16.712s-29.512 6.042-40.182 16.712c-10.66 10.66-16.712 25.057-16.712 40.182v602.225l-813.066-813.158c-10.66-10.66-25.149-16.62-40.212-16.62-15.114 0-29.604 5.96-40.274 16.62-10.66 10.762-16.66 25.16-16.66 40.274s6.001 29.512 16.66 40.274l813.21 813.056h-602.266c-15.114 0-29.553 6.001-40.223 16.671s-16.671 25.108-16.671 40.223 6.001 29.553 16.671 40.223c10.66 10.66 25.108 16.66 40.223 16.66h739.512c15.114 0 29.604-6.001 40.274-16.66 10.65-10.67 16.609-25.119 16.609-40.233z" />
<glyph unicode="&#xe926;" glyph-name="check" d="M898.355 777.134l-554.271-519.352-219.034 204.677-73.851-69.161 292.884-274.432 628.716 589.046-74.445 69.222z" />
<glyph unicode="&#xe927;" glyph-name="phone2" d="M992.922 250.665l-246.876 110.623c-11.1 4.823-23.347 6.687-35.43 5.632-12.165-1.137-23.839-5.222-33.956-12.001-0.983-0.645-1.956-1.393-2.939-2.202l-128.942-109.722c-1.352-0.737-2.816-1.137-4.372-1.229-1.505 0-3.021 0.328-4.413 0.983-82.893 40.008-168.817 125.399-208.978 207.114-0.655 1.341-1.024 2.857-1.024 4.362 0 1.546 0.369 3.062 1.024 4.413l110.090 130.611c0.768 0.983 1.505 1.966 2.202 3.021 6.646 10.168 10.65 21.842 11.674 33.925 1.024 12.124-0.983 24.289-5.837 35.43l-109.844 246.374c-6.205 14.531-17.019 26.696-30.73 34.57-13.711 7.885-29.594 11.141-45.312 9.226-68.28-8.98-130.949-42.486-176.292-94.331-45.394-51.794-70.287-118.374-70.164-187.228 0-409.119 332.82-741.949 741.898-741.949 68.905-0.082 135.444 24.822 187.279 70.205 51.753 45.394 85.299 108.001 94.28 176.333 1.884 15.596-1.219 31.427-9.062 45.066-7.823 13.711-19.917 24.494-34.273 30.771zM754.698-9.011c-374.497 0-679.209 304.753-679.209 679.25-0.164 53.596 19.19 105.431 54.446 145.838 35.226 40.366 84.009 66.54 137.155 73.595h1.178c2.13-0.041 4.168-0.737 5.878-1.915 1.71-1.229 3.021-2.939 3.758-4.936l110.254-246.139c0.614-1.341 0.942-2.857 0.942-4.362s-0.328-2.98-0.942-4.372l-110.326-130.898c-0.819-0.942-1.556-1.956-2.243-2.98-6.902-10.527-10.936-22.692-11.796-35.267-0.819-12.534 1.597-25.108 7.066-36.495 46.326-94.822 141.967-189.757 237.885-236.052 11.428-5.468 24.044-7.844 36.659-6.943 12.575 0.901 24.822 5.151 35.267 12.165 0.983 0.645 1.956 1.382 2.929 2.12l128.993 109.722c1.219 0.727 2.611 1.137 4.076 1.219s2.939-0.164 4.25-0.645l246.856-110.623c1.956-0.809 3.758-2.284 4.905-4.239 1.065-1.802 1.628-4.076 1.475-6.205-7.025-53.217-33.229-101.96-73.636-137.308-40.335-35.256-92.18-54.692-145.818-54.528z" />
<glyph unicode="&#xe928;" glyph-name="envelop" d="M1020.826 588.452l-481.874 321.26c-4.946 3.297-10.752 5.059-16.712 5.059s-11.766-1.761-16.701-5.059l-481.884-321.26c-4.157-2.744-7.526-6.513-9.841-10.865-2.355-4.383-3.574-9.257-3.574-14.234v-522.076c0-18.586 7.414-36.475 20.593-49.654s31.058-20.634 49.684-20.634h883.456c18.657 0 36.536 7.455 49.715 20.634s20.552 31.068 20.552 49.654v522.076c0 4.977-1.26 9.841-3.615 14.234-2.263 4.362-5.642 8.12-9.8 10.865zM522.24 848.415l428.861-286.116-350.904-249.958h-155.914l-350.863 250.153 428.82 285.921zM963.973 31.242h-883.456c-2.662 0-5.212 1.096-7.096 2.98s-2.939 4.393-2.939 7.055v463.606l346.665-247.132c5.1-3.615 11.223-5.652 17.49-5.652h175.217c6.267 0 12.39 2.038 17.49 5.652l346.655 247.132v-463.606c0-2.673-1.085-5.181-2.98-7.055-1.874-1.884-4.393-2.98-7.045-2.98z" />
<glyph unicode="&#xe929;" glyph-name="dashboard" d="M864.256 474.624c0 0-2.048 0-2.048 0h-182.272c-94.208 0-141.312 43.008-141.312 129.024v204.8c0 86.016 47.104 129.024 141.312 129.024h182.272c94.208 2.048 141.312-40.96 141.312-126.976v-204.8c0-40.96-10.24-73.728-32.768-94.208-24.576-24.576-57.344-36.864-106.496-36.864zM679.936 857.6c-57.344 0-59.392-14.336-59.392-49.152v-204.8c0-32.768 2.048-49.152 59.392-49.152h182.272c26.624 0 43.008 4.096 51.2 10.24 8.192 10.24 8.192 26.624 8.192 40.96v204.8c0 32.768-2.048 47.104-59.392 47.104h-182.272zM862.208-43.52h-182.272c-94.208 0-141.312 47.104-141.312 141.312v182.272c0 94.208 47.104 141.312 141.312 141.312h182.272c94.208 0 141.312-47.104 141.312-141.312v-182.272c0-94.208-47.104-141.312-141.312-141.312zM679.936 339.456c-49.152 0-59.392-10.24-59.392-59.392v-182.272c0-49.152 10.24-59.392 59.392-59.392h182.272c49.152 0 59.392 10.24 59.392 59.392v182.272c0 49.152-10.24 59.392-59.392 59.392h-182.272zM346.112 474.624c0 0-2.048 0-2.048 0h-182.272c-94.208 0-141.312 43.008-141.312 129.024v204.8c0 88.064 47.104 131.072 141.312 131.072h182.272c94.208 0 141.312-43.008 141.312-129.024v-204.8c0-40.96-10.24-73.728-32.768-94.208-24.576-24.576-57.344-36.864-106.496-36.864zM161.792 857.6c-57.344 0-59.392-14.336-59.392-47.104v-204.8c0-32.768 2.048-49.152 59.392-49.152h182.272c26.624 0 43.008 4.096 51.2 10.24 8.192 8.192 8.192 24.576 8.192 36.864v204.8c0 32.768-2.048 49.152-59.392 49.152h-182.272zM344.064-43.52h-182.272c-94.208 0-141.312 47.104-141.312 141.312v182.272c0 94.208 47.104 141.312 141.312 141.312h182.272c94.208 0 141.312-47.104 141.312-141.312v-182.272c0-94.208-47.104-141.312-141.312-141.312zM161.792 339.456c-49.152 0-59.392-10.24-59.392-59.392v-182.272c0-49.152 10.24-59.392 59.392-59.392h182.272c49.152 0 59.392 10.24 59.392 59.392v182.272c0 49.152-10.24 59.392-59.392 59.392h-182.272z" />
<glyph unicode="&#xe92a;" glyph-name="dollar-circle" d="M595.968 169.472c-6.144 0-12.288 2.048-18.432 6.144l-221.184 188.416c-14.336 12.288-20.48 32.768-12.288 49.152 6.144 18.432 22.528 28.672 43.008 28.672h69.632c36.864 0 71.68 12.288 98.304 34.816 16.384 14.336 28.672 32.768 34.816 51.2h-249.856c-16.384 0-28.672 12.288-28.672 28.672s12.288 28.672 28.672 28.672h249.856c-6.144 18.432-18.432 36.864-34.816 51.2-26.624 22.528-61.44 34.816-98.304 34.816h-116.736c-16.384 0-28.672 12.288-28.672 28.672s12.288 28.672 28.672 28.672h116.736c2.048 0 4.096 0 8.192 0h219.136c16.384 0 28.672-12.288 28.672-28.672s-12.288-28.672-28.672-28.672h-83.968c24.576-24.576 40.96-53.248 47.104-86.016h36.864c16.384 0 28.672-12.288 28.672-28.672s-12.288-28.672-28.672-28.672h-36.864c-6.144-34.816-26.624-67.584-55.296-92.16-36.864-30.72-83.968-47.104-135.168-47.104h-40.96l198.656-169.984c12.288-10.24 12.288-26.624 4.096-38.912-6.144-6.144-14.336-10.24-22.528-10.24zM512-43.52c-270.336 0-491.52 221.184-491.52 491.52s221.184 491.52 491.52 491.52 491.52-221.184 491.52-491.52c0-270.336-221.184-491.52-491.52-491.52zM512 884.224c-239.616 0-436.224-196.608-436.224-436.224s196.608-436.224 436.224-436.224c239.616 0 436.224 194.56 436.224 436.224s-196.608 436.224-436.224 436.224z" />
<glyph unicode="&#xe92b;" glyph-name="file-search" d="M945.080 659.835l-281.098 281.098c-5.652 5.642-13.302 8.827-21.268 8.827h-481.884c-18.637 0-36.516-7.404-49.695-20.582s-20.582-31.058-20.582-49.695v-883.456c0-18.627 7.404-36.506 20.582-49.695s31.058-20.572 49.695-20.572h722.821c18.637 0 36.516 7.404 49.705 20.582 13.169 13.179 20.582 31.058 20.582 49.695v642.509c-0.010 7.987-3.205 15.636-8.858 21.289zM672.829 846.95l178.289-178.289h-178.289v178.289zM883.651-13.998h-722.821c-2.673 0-5.222 1.065-7.107 2.939-1.884 1.894-2.929 4.434-2.929 7.086v883.456c0 2.662 1.055 5.212 2.929 7.086 1.884 1.905 4.444 2.949 7.107 2.949h451.758v-250.982c0-7.987 3.174-15.657 8.817-21.309 5.652-5.642 13.332-8.817 21.299-8.817h250.982v-612.393c0-2.662-1.065-5.202-2.949-7.086-1.874-1.874-4.413-2.929-7.086-2.929zM642.15 239.923c24.402 35.082 34.816 77.998 29.174 120.351-5.642 42.322-26.982 81.009-59.73 108.421-32.748 27.423-74.568 41.564-117.238 39.68-42.68-1.905-83.087-19.702-113.295-49.9-30.198-30.208-48.005-70.605-49.9-113.295-1.884-42.67 12.268-84.49 39.68-117.238s66.109-54.088 108.442-59.73c42.332-5.652 85.258 4.772 120.32 29.174l62.003-61.993c5.714-5.335 13.24-8.223 21.053-8.090 7.813 0.123 15.237 3.287 20.767 8.806 5.519 5.519 8.694 12.964 8.806 20.767 0.133 7.813-2.765 15.34-8.090 21.053l-61.993 61.993zM391.731 337.367c0 21.832 6.482 43.203 18.606 61.358 12.145 18.135 29.399 32.297 49.572 40.663 20.173 8.356 42.383 10.537 63.795 6.287 21.443-4.26 41.083-14.787 56.545-30.228 15.462-15.462 25.938-35.103 30.208-56.556 4.27-21.402 2.068-43.612-6.267-63.785-8.346-20.173-22.528-37.427-40.663-49.572-18.166-12.145-39.526-18.596-61.368-18.596-29.286 0-57.385 11.643-78.080 32.338-20.705 20.716-32.348 48.794-32.348 78.090z" />
<glyph unicode="&#xe92c;" glyph-name="bank" d="M916.541 452.721h-788.685c-40.724 0-73.841 33.116-73.841 73.841v145.469c0 28.559 19.999 58.051 46.5 68.649l394.291 157.716c19.763 7.895 34.939 7.864 54.712 0.031l394.363-157.757c26.511-10.588 46.469-40.090 46.469-68.649v-145.459c0-40.714-33.126-73.841-73.81-73.841zM527.247 842.629l-10.332-0.102-394.097-157.635c-3.758-1.505-8.735-8.827-8.735-12.872v-145.459c0-7.444 6.318-13.763 13.763-13.763h788.685c7.444 0 13.732 6.318 13.732 13.763v145.469c0 4.045-4.936 11.356-8.735 12.872l-394.281 157.727zM960.307-29.174h-876.257c-16.589 0-30.034 13.414-30.034 30.034v131.451c0 40.694 33.116 73.8 73.841 73.8h788.685c40.694 0 73.81-33.106 73.81-73.8v-131.451c0-16.62-13.425-30.034-30.044-30.034zM114.094 30.904h816.179v101.407c0 7.444-6.287 13.732-13.732 13.732h-788.685c-7.444 0-13.763-6.287-13.763-13.732v-101.407zM171.725 146.043c-16.599 0-30.044 13.414-30.044 30.044v306.708c0 16.589 13.445 30.034 30.044 30.034 16.589 0 30.034-13.445 30.034-30.034v-306.719c0-16.63-13.445-30.034-30.034-30.034zM346.931 146.043c-16.589 0-30.034 13.414-30.034 30.044v306.708c0 16.589 13.445 30.034 30.034 30.034s30.034-13.445 30.034-30.034v-306.719c0-16.63-13.445-30.034-30.034-30.034zM522.22 146.043c-16.599 0-30.044 13.414-30.044 30.044v306.708c0 16.589 13.445 30.034 30.044 30.034 16.579 0 30.034-13.445 30.034-30.034v-306.719c0-16.63-13.455-30.034-30.034-30.034zM697.487 146.043c-16.62 0-30.044 13.414-30.044 30.044v306.708c0 16.589 13.425 30.034 30.044 30.034s30.044-13.445 30.044-30.034v-306.719c0-16.63-13.425-30.034-30.044-30.034zM872.704 146.043c-16.62 0-30.034 13.414-30.034 30.044v306.708c0 16.589 13.414 30.034 30.034 30.034 16.63 0 30.044-13.445 30.044-30.034v-306.719c-0.010-16.63-13.414-30.034-30.044-30.034zM1004.206-29.235h-963.932c-16.589 0-30.034 13.425-30.034 30.044s13.445 30.044 30.034 30.044h963.932c16.62 0 30.034-13.425 30.034-30.044s-13.414-30.044-30.034-30.044zM522.22 562.248c-52.828 0-95.764 42.936-95.764 95.764s42.936 95.754 95.764 95.754c52.808 0 95.754-42.936 95.754-95.754s-42.947-95.764-95.754-95.764zM522.22 693.699c-19.681 0-35.686-16.015-35.686-35.686s16.005-35.686 35.686-35.686c19.661 0 35.676 16.005 35.676 35.686 0 19.671-16.015 35.686-35.676 35.686z" />
<glyph unicode="&#xe92d;" glyph-name="whatsapp" d="M816.916 344.238l-160.625 80.323c-4.741 2.355-10.035 3.43-15.309 3.103-5.274-0.338-10.424-2.068-14.807-4.997l-78.684-52.47c-39.864 20.388-72.284 52.828-92.672 92.672l52.5 78.653c2.939 4.413 4.659 9.523 5.007 14.807 0.328 5.284-0.737 10.568-3.092 15.309l-80.302 160.614c-2.509 5.038-6.359 9.257-11.141 12.216-4.772 2.949-10.26 4.495-15.872 4.495-50.586 0-99.103-20.091-134.881-55.88-35.768-35.758-55.859-84.275-55.859-134.861 0.123-114.442 45.64-224.174 126.577-305.080 80.927-80.906 190.648-126.464 305.111-126.587 50.565 0 99.072 20.081 134.84 55.88 35.789 35.758 55.9 84.285 55.9 134.861 0 5.591-1.567 11.11-4.506 15.852-2.949 4.762-7.158 8.612-12.186 11.090zM642.867 186.788c-98.509 0.123-192.901 39.27-262.543 108.923-69.622 69.652-108.79 164.045-108.913 262.523 0 31.498 11.387 61.921 32.072 85.688 20.695 23.747 49.254 39.229 80.456 43.561l63.549-127.078-52.142-78.213c-2.744-4.127-4.424-8.858-4.895-13.783s0.266-9.902 2.181-14.479c27.689-65.853 80.077-118.211 145.9-145.91 4.577-1.925 9.533-2.642 14.49-2.202 4.925 0.502 9.656 2.171 13.804 4.905l78.182 52.173 127.119-63.56c-4.362-31.191-19.825-59.771-43.571-80.466-23.757-20.664-54.19-32.082-85.688-32.082zM522.383 949.76c-88.75 0.010-175.995-23.030-253.153-66.908-77.158-43.868-141.578-107.039-186.962-183.316-45.384-76.268-70.154-163.041-71.895-251.781-1.72-88.74 19.64-176.384 62.003-254.382l-58.337-175.053c-4.127-12.36-4.721-25.661-1.72-38.369s9.472-24.31 18.719-33.536c9.216-9.216 20.849-15.718 33.536-18.698 12.708-3.011 25.999-2.406 38.39 1.731l175.022 58.317c68.516-37.181 144.609-58.235 222.505-61.553 77.875-3.256 155.494 11.233 226.898 42.476 71.434 31.242 134.769 78.397 185.221 137.851 50.412 59.423 86.62 129.587 105.789 205.169 19.2 75.54 20.89 154.47 4.946 230.789-15.923 76.298-49.080 147.958-96.932 209.51-47.872 61.532-109.107 111.36-179.128 145.613-70.031 34.273-146.954 52.111-224.901 52.142zM522.383-13.998c-79.411 0-157.42 20.9-226.171 60.652-4.598 2.621-9.779 4.035-15.063 4.035-3.246 0-6.461-0.532-9.544-1.526l-187.679-62.556c-1.772-0.604-3.676-0.655-5.499-0.215-1.802 0.41-3.461 1.321-4.782 2.642-1.321 1.311-2.243 3.011-2.683 4.803-0.43 1.823-0.328 3.727 0.246 5.489l62.536 187.484c1.362 4.045 1.843 8.335 1.403 12.605-0.43 4.229-1.761 8.335-3.912 12.042-49.818 86.088-69.847 186.204-56.965 284.815 12.882 98.621 57.948 190.259 128.205 260.649 70.267 70.4 161.802 115.651 260.403 128.696 98.601 13.066 198.738-6.758 284.948-56.433 86.149-49.664 153.539-126.382 191.652-218.255 38.124-91.853 44.872-193.72 19.169-289.843-25.692-96.061-82.381-181.023-161.249-241.572-78.858-60.631-175.544-93.471-275.016-93.512z" />
<glyph unicode="&#xe92e;" glyph-name="download" d="M512 163.328c-10.24 0-18.432 4.096-26.624 10.24l-251.904 253.952c-14.336 14.336-14.336 38.912 0 53.248s38.912 14.336 53.248 0l225.28-225.28 225.28 225.28c14.336 14.336 38.912 14.336 53.248 0s14.336-38.912 0-53.248l-251.904-251.904c-6.144-8.192-16.384-12.288-26.624-12.288zM512 220.672c-20.48 0-36.864 16.384-36.864 36.864v636.928c0 20.48 16.384 36.864 36.864 36.864s36.864-16.384 36.864-36.864v-636.928c2.048-18.432-16.384-36.864-36.864-36.864zM512-37.376c-454.656 0-491.52 0-491.52 311.296 0 20.48 16.384 36.864 36.864 36.864s36.864-16.384 36.864-36.864c0-131.072 2.048-186.368 38.912-206.848 49.152-28.672 165.888-28.672 378.88-28.672s329.728 0 376.832 28.672c36.864 22.528 38.912 75.776 38.912 206.848 0 20.48 16.384 36.864 36.864 36.864s36.864-16.384 36.864-36.864c2.048-311.296-34.816-311.296-489.472-311.296z" />
<glyph unicode="&#xe92f;" glyph-name="eye" d="M995.164 437.76c-57.221 67.871-127.652 121.825-205.896 159.263-82.237 39.352-173.343 60.529-267.028 60.529s-184.771-21.176-267.018-60.529c-78.244-37.437-148.675-91.392-205.885-159.263 57.211-67.86 127.642-121.815 205.885-159.252 82.248-39.363 173.332-60.549 267.018-60.549s184.791 21.187 267.028 60.549c78.244 37.437 148.675 91.392 205.896 159.252zM185.108 76.462c-6.656-6.636-17.49-6.636-24.136 0-6.656 6.666-6.656 17.49 0 24.156l82.043 82.043c6.656 6.666 17.49 6.666 24.125 0 6.656-6.636 6.656-17.49 0-24.125l-82.033-82.074zM801.495 692.859c-6.666-6.656-17.49-6.656-24.156 0-6.615 6.636-6.615 17.49 0 24.125l82.063 82.053c6.636 6.656 17.49 6.656 24.125 0 6.666-6.656 6.666-17.49 0-24.136l-82.033-82.043zM883.517 100.618c6.666-6.666 6.666-17.49 0-24.156-6.636-6.636-17.49-6.636-24.125 0l-82.063 82.074c-6.615 6.636-6.615 17.49 0 24.125 6.666 6.666 17.49 6.666 24.156 0l82.033-82.043zM267.141 716.995c6.656-6.636 6.656-17.49 0-24.125-6.636-6.656-17.48-6.656-24.125 0l-82.043 82.053c-6.656 6.646-6.656 17.48 0 24.136 6.646 6.656 17.48 6.656 24.136 0l82.033-82.063zM539.3-56.105c0-9.431-7.629-17.070-17.060-17.070-9.411 0-17.060 7.639-17.060 17.070v116.019c0 9.452 7.639 17.070 17.060 17.070 9.431 0 17.060-7.619 17.060-17.070v-116.019zM539.3 815.585c0-9.431-7.629-17.070-17.060-17.070-9.411 0-17.060 7.639-17.060 17.070v116.029c0 9.431 7.639 17.070 17.060 17.070 9.431 0 17.060-7.639 17.060-17.070v-116.029zM522.24 495.452c-9.411 0-17.060 7.639-17.060 17.070 0 9.421 7.639 17.070 17.060 17.070 25.303 0 48.261-10.291 64.881-26.89 16.671-16.671 26.972-39.649 26.972-64.942 0-9.411-7.67-17.070-17.070-17.070-9.431 0-17.070 7.66-17.070 17.070 0 15.954-6.461 30.413-16.855 40.837-10.435 10.414-24.904 16.855-40.858 16.855zM522.24 588.175c-41.533 0-79.135-16.845-106.353-44.063-27.218-27.208-44.052-64.809-44.052-106.353s16.835-79.145 44.052-106.363c27.218-27.197 64.829-44.063 106.353-44.063s79.145 16.855 106.373 44.063c27.208 27.208 44.042 64.819 44.042 106.363s-16.835 79.145-44.042 106.353c-27.228 27.218-64.84 44.063-106.373 44.063zM391.752 568.248c33.382 33.393 79.534 54.057 130.488 54.057 50.985 0 97.126-20.675 130.499-54.057 33.413-33.372 54.047-79.534 54.047-130.488s-20.644-97.106-54.047-130.488c-33.372-33.382-79.514-54.067-130.499-54.067-50.964 0-97.106 20.695-130.488 54.067-33.393 33.382-54.057 79.534-54.057 130.488 0 50.964 20.664 97.116 54.057 130.488zM803.953 627.692c86.804-41.533 164.403-102.246 226.294-178.964 5.151-6.103 5.437-15.186 0.236-21.647-61.921-76.851-139.633-137.667-226.529-179.241-86.948-41.615-183.091-64.020-281.713-64.020s-194.755 22.405-281.702 64.020c-86.794 41.523-164.403 102.236-226.294 178.964-5.14 6.103-5.437 15.176-0.246 21.637 61.942 76.851 139.643 137.667 226.54 179.251 86.948 41.605 183.081 64 281.702 64s194.765-22.395 281.713-64z" />
<glyph unicode="&#xe930;" glyph-name="target" d="M493.404-70.339c-266.414 0-483.164 216.74-483.164 483.174 0 266.414 216.75 483.164 483.164 483.164 266.435 0 483.174-216.75 483.174-483.164-0.010-266.435-216.75-483.174-483.174-483.174zM493.404 852.716c-242.555 0-439.89-197.335-439.89-439.89 0-242.565 197.335-439.9 439.89-439.9 242.565 0 439.9 197.335 439.9 439.9 0 242.555-197.335 439.89-439.9 439.89zM493.404 127.468c-157.358 0-285.368 128-285.368 285.358 0 157.348 128.010 285.368 285.368 285.368s285.358-128.020 285.358-285.368c0-157.358-128-285.358-285.358-285.358zM493.404 654.93c-133.499 0-242.104-108.605-242.104-242.104s108.605-242.094 242.104-242.094c133.499 0 242.094 108.585 242.094 242.094-0.010 133.499-108.595 242.104-242.094 242.104zM493.404 325.274c-48.282 0-87.562 39.27-87.562 87.562 0 48.282 39.281 87.562 87.562 87.562s87.552-39.281 87.552-87.562c-0.010-48.292-39.281-87.562-87.552-87.562zM493.404 457.124c-24.422 0-44.298-19.866-44.298-44.288 0-24.433 19.876-44.288 44.298-44.288s44.278 19.855 44.278 44.288c0 24.412-19.866 44.288-44.278 44.288zM551.086 450.57c-5.693 0-11.346 2.232-15.596 6.646-8.294 8.622-7.997 22.323 0.625 30.597l291.328 279.665c8.622 8.315 22.313 7.997 30.587-0.625s7.997-22.323-0.625-30.587l-291.328-279.665c-4.198-4.024-9.605-6.031-14.991-6.031zM918.446 688.855c-5.827 0-11.633 1.434-16.814 4.168l-67.246 35.338c-6.902 3.635-12.36 9.298-15.739 16.374l-32.676 68.762c-6.615 14.019-3.584 30.648 7.547 41.411l79.78 76.595c6.758 6.492 15.626 10.056 24.934 10.056 15.913 0 29.768-10.199 34.478-25.364l18.616-59.802 58.931-20.972c11.858-4.229 20.511-14.090 23.153-26.409 2.652-12.308-1.178-24.852-10.25-33.567l-79.718-76.544c-6.82-6.492-15.657-10.045-24.996-10.045zM856.648 765.553l60.559-31.826 67.553 64.829-51.415 18.299c-10.701 3.871-19.005 12.585-22.313 23.347l-16.189 52.019-67.553-64.86 29.358-61.809z" />
<glyph unicode="&#xe931;" glyph-name="message-edit" d="M657.408-45.568h-557.056c-45.056 0-81.92 36.864-81.92 81.92v555.008c0 266.24 6.144 296.96 210.944 296.96h272.384c22.528 0 40.96-18.432 40.96-40.96s-18.432-40.96-40.96-40.96h-272.384c-65.536 2.048-106.496 2.048-116.736-12.288-14.336-22.528-14.336-94.208-14.336-202.752v-555.008l559.104-2.048c106.496 0 176.128 0 196.608 20.48s20.48 90.112 20.48 196.608v176.128c0 22.528 18.432 40.96 40.96 40.96s40.96-18.432 40.96-40.96v-176.128c-4.096-280.576-20.48-296.96-299.008-296.96zM278.528 103.936c-30.72 0-59.392 10.24-79.872 32.768-24.576 24.576-34.816 61.44-30.72 98.304l20.48 149.504c4.096 30.72 22.528 67.584 43.008 88.064l393.216 389.12c51.2 51.2 100.352 75.776 149.504 75.776 0 0 0 0 0 0 51.2 0 102.4-24.576 151.552-75.776 55.296-55.296 79.872-110.592 73.728-165.888-4.096-45.056-28.672-90.112-73.728-135.168l-391.168-391.168c-20.48-20.48-57.344-38.912-88.064-43.008l-149.504-20.48c-4.096-2.048-12.288-2.048-18.432-2.048zM774.144 857.6c-28.672 0-59.392-16.384-94.208-51.2 0 0 0 0 0 0l-389.12-391.168c-8.192-8.192-18.432-30.72-20.48-43.008l-20.48-149.504c-2.048-14.336 0-24.576 8.192-30.72 6.144-6.144 18.432-10.24 30.72-8.192l149.504 20.48c12.288 2.048 34.816 12.288 43.008 20.48l391.168 391.168c30.72 30.72 49.152 59.392 51.2 86.016 4.096 30.72-14.336 65.536-51.2 102.4-36.864 34.816-69.632 53.248-98.304 53.248 0 0 0 0 0 0zM653.312 833.024v0 0zM823.296 513.536c-4.096 0-6.144 0-10.24 2.048-112.64 30.72-202.752 120.832-233.472 233.472-6.144 20.48 6.144 43.008 28.672 49.152 20.48 6.144 43.008-6.144 49.152-28.672 24.576-86.016 92.16-153.6 178.176-178.176 20.48-6.144 32.768-28.672 28.672-49.152-6.144-16.384-22.528-28.672-40.96-28.672z" />
<glyph unicode="&#xe932;" glyph-name="notification" d="M512 525.824c-14.336 0-26.624 12.288-26.624 26.624v153.6c0 14.336 12.288 26.624 26.624 26.624s26.624-12.288 26.624-26.624v-153.6c0-14.336-12.288-26.624-26.624-26.624zM514.048 73.216c-118.784 0-235.52 18.432-348.16 55.296-40.96 14.336-69.632 40.96-83.968 77.824s-8.192 75.776 12.288 112.64l59.392 98.304c14.336 22.528 24.576 65.536 24.576 90.112v96.256c0 184.32 149.504 333.824 333.824 333.824s333.824-149.504 333.824-333.824v-96.256c0-26.624 12.288-69.632 24.576-90.112l59.392-98.304c20.48-34.816 24.576-75.776 10.24-112.64s-43.008-65.536-79.872-77.824c-110.592-36.864-229.376-55.296-346.112-55.296zM512 882.176c-153.6 0-278.528-124.928-278.528-278.528v-96.256c0-36.864-14.336-88.064-32.768-118.784l-57.344-98.304c-12.288-22.528-16.384-45.056-8.192-65.536s24.576-34.816 49.152-43.008c212.992-71.68 448.512-71.68 661.504 0 22.528 8.192 38.912 22.528 47.104 45.056 8.192 20.48 6.144 45.056-6.144 65.536l-59.392 98.304c-18.432 30.72-32.768 83.968-32.768 118.784v96.256c-2.048 151.552-129.024 276.48-282.624 276.48zM512-45.568c-47.104 0-94.208 18.432-126.976 53.248-34.816 34.816-53.248 79.872-53.248 126.976h55.296c0-32.768 14.336-65.536 36.864-88.064s55.296-36.864 88.064-36.864c69.632 0 124.928 57.344 124.928 124.928h55.296c0-98.304-79.872-180.224-180.224-180.224z" />
<glyph unicode="&#xe933;" glyph-name="search-zoom" d="M619.725 331.151c-9.298 0-18.555 3.594-25.58 10.752l-166.359 170.414c-13.783 14.121-13.507 36.721 0.604 50.514 14.141 13.773 36.741 13.466 50.514-0.604l166.4-170.373c13.763-14.141 13.486-36.741-0.614-50.565-6.963-6.738-15.944-10.138-24.965-10.138zM451.379 333.148c-9.277 0-18.565 3.594-25.559 10.752-13.793 14.141-13.507 36.741 0.604 50.565l170.363 166.349c14.141 13.763 36.7 13.537 50.565-0.604 13.773-14.121 13.486-36.721-0.604-50.514l-170.414-166.41c-6.963-6.738-15.964-10.138-24.955-10.138zM546.048-26.624c-269.189 0-488.192 218.982-488.192 488.192 0 269.199 219.003 488.192 488.192 488.192 269.21 0 488.192-218.993 488.192-488.182 0-269.22-218.982-488.202-488.192-488.202zM546.048 878.326c-229.796 0-416.748-186.952-416.748-416.748 0-229.816 186.952-416.748 416.748-416.748 229.816 0 416.748 186.931 416.748 416.748 0 229.796-186.921 416.748-416.748 416.748zM45.947-74.25c-9.144 0-18.278 3.492-25.252 10.465-13.957 13.947-13.957 36.557 0 50.514l95.252 95.263c13.957 13.947 36.557 13.947 50.514 0 13.957-13.957 13.957-36.557 0-50.514l-95.263-95.263c-6.973-6.973-16.108-10.465-25.252-10.465z" />
<glyph unicode="&#xe934;" glyph-name="clear" d="M522.24-71.322c-247.9 0-449.587 201.656-449.587 449.577 0 247.9 201.687 449.556 449.587 449.556 50.729 0 100.649-7.199 148.367-21.402 20.419-6.072 32.020-27.525 25.938-47.923-6.072-20.347-27.494-32.010-47.913-25.938-40.602 12.073-83.098 18.186-126.403 18.186-205.404 0-372.511-167.086-372.511-372.49 0-205.425 167.107-372.511 372.511-372.511 205.425 0 372.511 167.086 372.511 372.511 0 74.967-21.617 146.524-62.618 206.95-11.94 17.613-7.322 41.605 10.291 53.514 17.562 11.96 41.544 7.373 53.545-10.26 49.623-73.257 75.858-159.764 75.858-250.214 0-247.89-201.656-449.556-449.577-449.556zM730.173 722.371c-10.742 0-21.371 4.465-29 13.169l-133.97 153.242c-13.998 16.026-12.401 40.366 3.656 54.364 15.964 13.978 40.294 12.39 54.344-3.635l133.97-153.242c13.998-16.026 12.401-40.366-3.656-54.364-7.281-6.39-16.312-9.533-25.344-9.533zM573.665 608.748c-11.94 0-23.685 5.519-31.232 15.903-12.503 17.213-8.684 41.298 8.55 53.811l156.447 113.603c17.162 12.575 41.298 8.684 53.791-8.55 12.554-17.213 8.684-41.298-8.53-53.811l-156.436-113.603c-6.82-4.966-14.756-7.352-22.589-7.352z" />
<glyph unicode="&#xe935;" glyph-name="right-arrow" d="M577.536 87.552c-8.192 0-16.384 4.096-22.528 10.24-12.288 12.288-12.288 32.768 0 47.104l303.104 303.104-303.104 305.152c-12.288 12.288-12.288 32.768 0 47.104s32.768 12.288 47.104 0l327.68-327.68c12.288-12.288 12.288-32.768 0-47.104l-327.68-327.68c-8.192-6.144-16.384-10.24-24.576-10.24zM872.448 415.232h-753.664c-18.432 0-32.768 14.336-32.768 32.768s14.336 32.768 32.768 32.768h753.664c18.432 0 32.768-14.336 32.768-32.768s-14.336-32.768-32.768-32.768z" />
<glyph unicode="&#xe936;" glyph-name="rupee" d="M828.713 718.94h-138.496c-5.243 40.315-17.213 77.066-35.594 109.363-14.141 24.842-31.785 46.623-52.654 64.963h226.744c16.056 0 29.133 13.056 29.133 29.102s-13.056 29.112-29.133 29.112h-610.693c-16.046 0-29.102-13.056-29.102-29.102s13.046-29.102 29.102-29.102h258.898c64.625-12.206 138.107-64.369 154.89-174.326h-413.788c-16.046 0-29.102-13.056-29.102-29.102s13.046-29.102 29.102-29.102h417.444c-2.406-54.077-22.098-97.925-58.552-130.386-74.476-66.191-203.878-76.083-274.36-76.083-34.662 0-59.965 2.294-66.908 2.99l-0.41 0.041c-0.973 0.102-1.956 0.154-2.939 0.154-10.895 0-21.125-6.083-26.020-15.411-5.693-10.619-4.27-23.45 3.645-32.696l407.501-471.788c5.519-6.4 13.558-10.056 22.036-10.056 7.004 0 13.763 2.509 19.026 7.055 12.114 10.455 13.445 28.856 3 41.083l-362.957 420.188c1.526-0.010 3.062-0.010 4.588-0.010 56.033 0 108.145 5.427 154.88 16.148 65.546 15.043 118.559 40.223 157.522 74.854 49.377 43.889 75.674 102.39 78.193 173.957h135.004c16.046 0 29.133 13.056 29.133 29.102s-13.066 29.051-29.133 29.051v0 0z" />
<glyph unicode="&#xe937;" glyph-name="openings" d="M965.632 19.968c-8.192 0-16.384 1.024-24.576 0-30.72-5.12-38.912 7.168-38.912 37.888 2.048 277.504 1.024 553.984 1.024 830.464 0 50.176-10.24 59.392-59.392 59.392-223.232 0-445.44 0-668.672 0-50.176 0-59.392-9.216-59.392-59.392 0-264.192 0-527.36 0-791.552 0-75.776 0-78.848-75.776-75.776-34.816 1.024-28.672-17.408-30.72-38.912-2.048-25.6 4.096-33.792 31.744-33.792 155.648 1.024 312.32 1.024 467.968 1.024s312.32 0 467.968 0c10.24 0 26.624-8.192 31.744 11.264 12.288 43.008 0 59.392-43.008 59.392zM222.208 45.568c-28.672-10.24-30.72-1.024-30.72 23.552 1.024 126.976 0 252.928 0 379.904s0 252.928 0 379.904c0 24.576 3.072 32.768 30.72 23.552 99.328-34.816 198.656-67.584 299.008-99.328 19.456-6.144 24.576-14.336 24.576-34.816-1.024-179.2-1.024-358.4 0-537.6 0-19.456-6.144-28.672-24.576-34.816-99.328-32.768-199.68-65.536-299.008-100.352zM795.648 20.992c-132.096 1.024-264.192 1.024-396.288 1.024 0 2.048 0 5.12-1.024 7.168 58.368 19.456 116.736 40.96 176.128 58.368 30.72 9.216 43.008 25.6 43.008 58.368-1.024 201.728-1.024 403.456 0 605.184 0 33.792-11.264 51.2-44.032 60.416-61.44 18.432-120.832 39.936-181.248 66.56 140.288 0 279.552 0 419.84 0 15.36 0 21.504-5.12 20.48-20.48 0-5.12 0-9.216 0-14.336 0-261.12 0-523.264 1.024-784.384 0-29.696-8.192-38.912-37.888-37.888zM474.112 483.84c-21.504-1.024-34.816-13.312-33.792-35.84 0-22.528 14.336-32.768 35.84-34.816 21.504 3.072 34.816 14.336 33.792 36.864-1.024 20.48-14.336 33.792-35.84 33.792z" />
<glyph unicode="&#xe938;" glyph-name="clock" d="M512-53.76c-276.48 0-501.76 225.28-501.76 501.76s225.28 501.76 501.76 501.76c276.48 0 501.76-225.28 501.76-501.76s-225.28-501.76-501.76-501.76zM512 866.816c-231.424 0-418.816-187.392-418.816-418.816s187.392-418.816 418.816-418.816c231.424 0 418.816 187.392 418.816 418.816s-187.392 418.816-418.816 418.816zM683.008 259.584c-7.168 0-14.336 2.048-21.504 6.144l-142.336 84.992c-36.864 22.528-65.536 71.68-65.536 114.688v189.44c0 22.528 18.432 40.96 40.96 40.96s40.96-18.432 40.96-40.96v-188.416c0-14.336 12.288-35.84 24.576-44.032l142.336-84.992c19.456-11.264 25.6-36.864 14.336-56.32-6.144-13.312-20.48-21.504-33.792-21.504z" />
<glyph unicode="&#xe939;" glyph-name="document-upload" d="M300.032 104.96h-90.112c-138.24 9.216-199.68 115.712-199.68 209.92s61.44 200.704 196.608 209.92c19.456 2.048 35.84-13.312 37.888-32.768 1.024-19.456-13.312-35.84-32.768-37.888-91.136-6.144-131.072-74.752-131.072-140.288s40.96-133.12 131.072-140.288h87.040c19.456 0 34.816-16.384 34.816-34.816 1.024-19.456-15.36-33.792-33.792-33.792zM731.136 104.96c-1.024 0-1.024 0-2.048 0-19.456 0-36.864 16.384-36.864 34.816 0 20.48 15.36 34.816 34.816 34.816 57.344 0 109.568 20.48 149.504 56.32 72.704 63.488 77.824 155.648 58.368 220.16s-74.752 137.216-169.984 149.504c-15.36 2.048-27.648 13.312-30.72 28.672-18.432 112.64-78.848 190.464-171.008 218.112-94.208 29.696-204.8 0-273.408-71.68-66.56-69.632-81.92-167.936-44.032-275.456 6.144-18.432-3.072-37.888-21.504-45.056-18.432-6.144-37.888 3.072-45.056 21.504-47.104 132.096-25.6 258.048 59.392 347.136 87.040 91.136 225.28 126.976 345.088 90.112 109.568-33.792 186.368-123.904 215.040-249.856 95.232-21.504 172.032-94.208 202.752-194.56 32.768-109.568 3.072-221.184-78.848-292.864-53.248-45.056-120.832-71.68-191.488-71.68zM512-33.28c-94.208 0-182.272 50.176-230.4 131.072-5.12 8.192-10.24 17.408-14.336 27.648-16.384 32.768-24.576 70.656-24.576 110.592 0 148.48 120.832 269.312 269.312 269.312s269.312-120.832 269.312-269.312c0-39.936-8.192-76.8-25.6-111.616-4.096-9.216-9.216-18.432-14.336-27.648-47.104-79.872-135.168-130.048-229.376-130.048zM512 435.712c-109.568 0-198.656-89.088-198.656-198.656 0-28.672 6.144-56.32 17.408-80.896 4.096-8.192 7.168-14.336 11.264-20.48 35.84-60.416 100.352-97.28 169.984-97.28s134.144 36.864 169.984 96.256c4.096 7.168 8.192 13.312 11.264 20.48 12.288 25.6 18.432 53.248 18.432 81.92-1.024 108.544-90.112 198.656-199.68 198.656zM485.376 155.136c-9.216 0-17.408 3.072-24.576 10.24l-46.080 46.080c-13.312 13.312-13.312 35.84 0 49.152s35.84 13.312 49.152 0l22.528-22.528 74.752 69.632c14.336 13.312 36.864 12.288 49.152-2.048 13.312-14.336 12.288-36.864-2.048-49.152l-99.328-92.16c-6.144-6.144-15.36-9.216-23.552-9.216z" />
<glyph unicode="&#xe93a;" glyph-name="download-square" d="M505.856 202.24c-12.288 0-26.624 6.144-34.816 14.336l-194.56 194.56c-18.432 18.432-18.432 51.2 0 69.632s51.2 18.432 69.632 0l159.744-159.744 159.744 159.744c18.432 18.432 51.2 18.432 69.632 0s18.432-51.2 0-69.632l-194.56-194.56c-10.24-8.192-22.528-14.336-34.816-14.336zM505.856 208.384c-26.624 0-49.152 22.528-49.152 49.152v630.784c0 26.624 22.528 49.152 49.152 49.152s49.152-22.528 49.152-49.152v-630.784c0-26.624-22.528-49.152-49.152-49.152zM940.032-43.52h-856.064c-26.624 0-49.152 22.528-49.152 49.152v212.992c0 26.624 22.528 49.152 49.152 49.152s49.152-22.528 49.152-49.152v-161.792h755.712v161.792c0 26.624 22.528 49.152 49.152 49.152s49.152-22.528 49.152-49.152v-212.992c2.048-26.624-20.48-49.152-47.104-49.152z" />
<glyph unicode="&#xe93b;" glyph-name="close" d="M970.752-43.52c-14.336 0-26.624 6.144-36.864 16.384l-897.024 876.544c-20.48 20.48-20.48 55.296 0 75.776s55.296 20.48 75.776 0l897.024-876.544c20.48-20.48 20.48-55.296 0-75.776-12.288-10.24-26.624-16.384-38.912-16.384zM81.92-35.328c-14.336 0-26.624 6.144-36.864 16.384-20.48 20.48-20.48 55.296 0 75.776l878.592 860.16c20.48 20.48 55.296 20.48 75.776 0s20.48-55.296 0-75.776l-878.592-860.16c-10.24-12.288-24.576-16.384-38.912-16.384z" />
<glyph unicode="&#xe93c;" glyph-name="trash" d="M931.84 692.736h-839.68c-19.456 0-34.816 15.36-34.816 34.816s15.36 34.816 34.816 34.816h839.68c19.456 0 34.816-15.36 34.816-34.816 0-18.432-15.36-34.816-34.816-34.816zM745.472-53.76h-466.944c-33.792 0-66.56 13.312-91.136 37.888s-37.888 56.32-37.888 91.136v652.288c0 19.456 15.36 34.816 34.816 34.816s34.816-15.36 34.816-34.816v-653.312c0-15.36 6.144-30.72 17.408-40.96 11.264-11.264 25.6-17.408 40.96-17.408h466.944c15.36 0 30.72 6.144 40.96 17.408 11.264 11.264 17.408 25.6 17.408 40.96v653.312c0 19.456 15.36 34.816 34.816 34.816s34.816-15.36 34.816-34.816v-653.312c0-34.816-13.312-66.56-37.888-91.136-22.528-23.552-55.296-36.864-89.088-36.864zM698.368 692.736c-19.456 0-34.816 15.36-34.816 34.816v93.184c0 15.36-6.144 30.72-17.408 40.96-11.264 11.264-25.6 17.408-40.96 17.408h-186.368c-15.36 0-30.72-6.144-40.96-17.408-11.264-11.264-17.408-25.6-17.408-40.96v-93.184c0-19.456-15.36-34.816-34.816-34.816s-34.816 15.36-34.816 34.816v93.184c0 33.792 13.312 66.56 37.888 91.136 23.552 24.576 55.296 37.888 90.112 37.888h186.368c33.792 0 66.56-13.312 91.136-37.888s37.888-56.32 37.888-91.136v-93.184c-1.024-18.432-16.384-34.816-35.84-34.816zM418.816 179.712c-19.456 0-34.816 15.36-34.816 34.816v280.576c0 19.456 15.36 34.816 34.816 34.816s34.816-15.36 34.816-34.816v-279.552c0-20.48-15.36-35.84-34.816-35.84zM605.184 179.712c-19.456 0-34.816 15.36-34.816 34.816v280.576c0 19.456 15.36 34.816 34.816 34.816s34.816-15.36 34.816-34.816v-279.552c0-20.48-15.36-35.84-34.816-35.84z" />
<glyph unicode="&#xe93d;" glyph-name="globe-cursor" d="M635.238-20.511c-0.44 3.215-1.331 6.502-3.215 9.492-6.779 10.947-21.115 14.387-32 7.619-18.719-11.561-38.021-18.842-57.6-22.108v230.523h37.499c12.831 0 23.214 10.455 23.214 23.327 0 12.831-10.383 23.224-23.214 23.224h-37.499v162.929h54.723c12.831 0 23.214 10.414 23.214 23.265 0 12.831-10.383 23.276-23.214 23.276h-54.723v162.867h211.2c13.722-57.047 21.484-119.962 21.484-186.143 0-12.861 10.455-23.265 23.276-23.265h184.965c-1.219-23.951-3.656-47.718-8.55-70.83-2.673-12.554 5.386-24.883 17.94-27.546 12.554-2.724 24.945 5.335 27.607 17.94 7.158 33.72 10.721 68.598 10.721 103.711 0 282.266-229.642 511.939-511.898 511.939-282.307 0-511.969-229.642-511.969-511.939s229.663-511.928 511.928-511.928c36.966 0 73.329 3.942 108.206 11.725 12.503 2.826 20.388 15.268 17.562 27.832-1.321 5.98-4.936 10.865-9.656 14.090zM495.872-25.508c-84.654 13.988-157.399 103.209-198.062 230.523h198.052v-230.523zM495.872 251.556h-211.169c-12.145 50.33-19.302 105.267-20.89 162.929h232.059v-162.929zM54.927 414.495h162.396c1.444-57.498 8.161-112.21 19.548-162.867h-143.985c-22.047 50.258-35.092 105.257-37.96 162.867zM92.897 623.933h143.985c-11.387-50.688-18.104-105.38-19.548-162.898h-162.396c2.857 57.661 15.903 112.599 37.96 162.898zM495.872 461.036h-232.059c1.587 57.661 8.745 112.599 20.89 162.898h211.169v-162.898zM495.872 901.038v-230.584h-198.062c40.663 127.345 113.408 216.607 198.062 230.584zM542.423 670.454v230.584c84.705-13.978 157.368-103.24 198.031-230.584h-198.031zM801.444 623.933h143.985c22.057-50.299 35.113-105.236 37.939-162.898h-162.038c-1.454 57.6-8.561 112.179-19.886 162.898zM921.59 670.454h-132.26c-24.945 84.541-63.16 154.921-110.479 203.889 102.707-37.714 188.467-110.397 242.739-203.889zM359.721 874.424c-47.432-48.968-85.801-119.286-110.787-203.971h-132.209c54.303 93.573 140.145 166.308 242.995 203.971zM116.726 205.066h132.209c24.996-84.664 63.355-155.044 110.787-203.981-102.851 37.724-188.692 110.438-242.995 203.981zM1004.861 258.007l-300.851 144.425c-15.053 7.219-33.004 5.775-46.766-3.83-13.783-9.605-21.33-25.999-19.671-42.721l32.778-332.073c1.894-18.555 13.998-33.659 31.662-39.547 17.674-5.878 36.444-1.004 48.988 12.667l41.779 45.66 54.538-77.875c10.732-15.278 26.716-25.436 45.107-28.662 4.106-0.778 8.172-1.106 12.216-1.106 14.223 0 28.109 4.332 39.936 12.605l38.164 26.706c31.498 22.108 39.219 65.659 17.111 97.208l-54.548 77.875 57.16 23.675c17.285 7.107 28.283 23.101 28.723 41.769 0.563 18.616-9.544 35.164-26.327 43.223v0zM900.762 181.35c-6.554-2.724-11.551-8.223-13.496-15.002-1.935-6.779-0.717-14.111 3.277-19.886l71.209-101.652c7.342-10.496 4.782-25.047-5.724-32.44l-38.164-26.665c-5.048-3.564-11.223-4.997-17.388-3.83-6.113 1.055-11.377 4.444-14.94 9.554l-71.209 101.652c-4.106 5.775-10.547 9.39-17.551 9.892-0.563 0.061-1.004 0.061-1.556 0.061-6.502 0-12.78-2.775-17.111-7.557l-61.43-67.103-32.778 332.073 300.851-144.374-83.988-34.724z" />
<glyph unicode="&#xe952;" glyph-name="calling" d="M968.704 136.704c0 23.552 0 47.104 0 70.656 0 56.32-38.912 105.472-93.184 117.76-48.128 11.264-95.232 20.48-142.336 35.84-35.84 11.264-68.608 1.024-100.352-18.432-17.408-11.264-31.744-25.6-46.080-40.96-8.192-8.192-14.336-9.216-24.576-2.048-71.68 46.080-132.096 103.424-181.248 173.056-27.648 38.912-27.648 38.912 6.144 72.704 35.84 35.84 49.152 78.848 34.816 128-13.312 47.104-24.576 93.184-33.792 141.312-8.192 45.056-56.32 87.040-102.4 90.112-54.272 4.096-109.568 4.096-163.84 0-67.584-6.144-116.736-67.584-109.568-134.144 7.168-76.8 24.576-151.552 52.224-223.232 65.536-169.984 169.984-310.272 316.416-419.84 133.12-99.328 282.624-158.72 447.488-180.224 73.728-9.216 139.264 45.056 141.312 119.808 0 23.552-1.024 47.104-1.024 69.632 0 0 0 0 0 0zM902.144 69.12c-1.024-35.84-30.72-60.416-66.56-55.296-58.368 9.216-116.736 19.456-173.056 38.912-89.088 29.696-169.984 73.728-244.736 130.048-133.12 100.352-228.352 229.376-289.792 385.024-25.6 66.56-40.96 135.168-50.176 205.824-5.12 34.816 19.456 65.536 56.32 66.56 45.056 2.048 89.088 1.024 134.144 0 28.672-1.024 49.152-16.384 55.296-45.056 10.24-48.128 21.504-95.232 35.84-142.336 7.168-23.552-1.024-43.008-17.408-59.392-15.36-15.36-31.744-31.744-47.104-47.104-17.408-18.432-19.456-27.648-7.168-49.152 63.488-109.568 147.456-198.656 256-263.168 34.816-20.48 39.936-34.816 82.944 11.264 10.24 10.24 20.48 20.48 30.72 30.72 19.456 20.48 41.984 26.624 68.608 18.432 43.008-14.336 86.016-25.6 131.072-33.792 30.72-6.144 46.080-26.624 47.104-58.368 0-2.048 0-3.072 0-5.12 0-20.48 0-39.936 0-60.416 0 0 0 0 0 0-2.048-21.504-2.048-45.056-2.048-67.584zM1006.592 607.744c-36.864 181.248-190.464 322.56-374.784 342.016-10.24 1.024-20.48 1.024-28.672-6.144-9.216-8.192-13.312-18.432-10.24-31.744 3.072-15.36 12.288-24.576 27.648-27.648 57.344-11.264 113.664-24.576 163.84-59.392 60.416-41.984 107.52-94.208 136.192-162.816 14.336-33.792 19.456-69.632 27.648-104.448 5.12-21.504 19.456-31.744 37.888-27.648 17.408 3.072 27.648 17.408 26.624 40.96 0 10.24-3.072 23.552-6.144 36.864zM623.616 704c32.768-8.192 61.44-22.528 86.016-45.056 31.744-29.696 49.152-66.56 61.44-107.52 5.12-17.408 21.504-25.6 38.912-22.528 14.336 2.048 24.576 16.384 24.576 35.84 0 2.048-1.024 6.144-2.048 9.216-17.408 96.256-107.52 182.272-203.776 197.632-14.336 2.048-29.696-7.168-34.816-20.48-8.192-21.504 2.048-39.936 29.696-47.104z" />
</font>
</defs>
</svg>
